<svg width="50" height="50" viewBox="0 0 50 50" fill="none" xmlns="http://www.w3.org/2000/svg">
<path d="M17.2917 20.8337C17.0231 20.8483 16.7557 20.7884 16.5191 20.6606C16.2824 20.5328 16.0858 20.342 15.9508 20.1093C15.8158 19.8767 15.7478 19.6112 15.7543 19.3424C15.7608 19.0735 15.8415 18.8116 15.9875 18.5857L23.75 6.25033C23.872 6.03068 24.0486 5.84627 24.2628 5.71497C24.477 5.58368 24.7215 5.50995 24.9726 5.50094C25.2237 5.49193 25.4729 5.54794 25.6959 5.66354C25.919 5.77914 26.1084 5.95041 26.2458 6.16074L33.9583 18.542C34.1103 18.7603 34.1998 19.0161 34.2169 19.2815C34.234 19.547 34.1781 19.8121 34.0554 20.0481C33.9327 20.2842 33.7477 20.4821 33.5206 20.6206C33.2934 20.759 33.0327 20.8327 32.7667 20.8337H17.2917Z" stroke="#FF7100" stroke-width="3.5" stroke-linecap="round" stroke-linejoin="round"/>
<path d="M18.75 29.167H8.33333C7.18274 29.167 6.25 30.0997 6.25 31.2503V41.667C6.25 42.8176 7.18274 43.7503 8.33333 43.7503H18.75C19.9006 43.7503 20.8333 42.8176 20.8333 41.667V31.2503C20.8333 30.0997 19.9006 29.167 18.75 29.167Z" stroke="#FF7100" stroke-width="3.5" stroke-linecap="round" stroke-linejoin="round"/>
<path d="M36.4583 43.7503C40.4854 43.7503 43.75 40.4857 43.75 36.4587C43.75 32.4316 40.4854 29.167 36.4583 29.167C32.4313 29.167 29.1667 32.4316 29.1667 36.4587C29.1667 40.4857 32.4313 43.7503 36.4583 43.7503Z" stroke="#FF7100" stroke-width="3.5" stroke-linecap="round" stroke-linejoin="round"/>
</svg>
