<svg width="50" height="50" viewBox="0 0 50 50" fill="none" xmlns="http://www.w3.org/2000/svg">
<path d="M33.3327 43.75V39.5833C33.3327 37.3732 32.4547 35.2536 30.8919 33.6908C29.3291 32.128 27.2095 31.25 24.9994 31.25H12.4993C10.2892 31.25 8.1696 32.128 6.60679 33.6908C5.04399 35.2536 4.16602 37.3732 4.16602 39.5833V43.75M33.3327 6.51667C35.1197 6.97994 36.7023 8.02347 37.832 9.48346C38.9618 10.9435 39.5748 12.7373 39.5748 14.5833C39.5748 16.4294 38.9618 18.2232 37.832 19.6832C36.7023 21.1432 35.1197 22.1867 33.3327 22.65M45.8327 43.75V39.5833C45.8313 37.7369 45.2168 35.9433 44.0855 34.484C42.9543 33.0247 41.3705 31.9824 39.5827 31.5208M27.0827 14.5833C27.0827 19.1857 23.3517 22.9167 18.7494 22.9167C14.147 22.9167 10.416 19.1857 10.416 14.5833C10.416 9.98096 14.147 6.25 18.7494 6.25C23.3517 6.25 27.0827 9.98096 27.0827 14.5833Z" stroke="white" stroke-width="3.5" stroke-linecap="round" stroke-linejoin="round"/>
</svg>
