<svg width="50" height="50" viewBox="0 0 50 50" fill="none" xmlns="http://www.w3.org/2000/svg">
<path d="M33.2107 45.8327H37.5003C38.6053 45.8327 39.6651 45.3937 40.4465 44.6123C41.2279 43.8309 41.6669 42.7711 41.6669 41.666V16.666M41.6669 16.666C41.668 16.0065 41.5386 15.3534 41.2862 14.7441C41.0337 14.1348 40.6633 13.5815 40.1961 13.116L32.7211 5.64102C32.2555 5.1726 31.7016 4.80108 31.0916 4.54791C30.4816 4.29474 29.8274 4.16495 29.1669 4.16602M41.6669 16.666H31.2503C30.6977 16.666 30.1678 16.4465 29.7771 16.0558C29.3864 15.6651 29.1669 15.1352 29.1669 14.5827V4.16602M29.1669 4.16602H12.5003C11.3952 4.16602 10.3354 4.60501 9.55398 5.38641C8.77258 6.16781 8.33359 7.22762 8.33359 8.33269V15.6494M8.36901 23.9827C7.09479 25.1135 6.06516 26.4928 5.34337 28.036C4.62157 29.5792 4.22284 31.2536 4.17166 32.9565C4.12048 34.6593 4.41793 36.3547 5.04574 37.9384C5.67355 39.5222 6.61848 40.9609 7.82249 42.1661C9.0265 43.3714 10.4642 44.3179 12.0472 44.9474C13.6303 45.5769 15.3254 45.8761 17.0283 45.8268C18.7312 45.7774 20.406 45.3804 21.95 44.6603C23.4939 43.9401 24.8744 42.912 26.0065 41.6389M18.7503 33.3327C18.1977 33.3327 17.6678 33.1132 17.2771 32.7225C16.8864 32.3318 16.6669 31.8019 16.6669 31.2494V22.916C16.6669 21.766 17.6044 20.816 18.7398 21.0056C21.303 21.4366 23.668 22.6559 25.5059 24.4937C27.3438 26.3316 28.563 28.6966 28.994 31.2598C29.1836 32.3931 28.2336 33.3327 27.0836 33.3327H18.7503Z" stroke="#FF7100" stroke-width="3.5" stroke-linecap="round" stroke-linejoin="round"/>
</svg>
