<svg width="50" height="50" viewBox="0 0 50 50" fill="none" xmlns="http://www.w3.org/2000/svg">
<path d="M41.6667 6.25H8.33333C7.18274 6.25 6.25 7.18274 6.25 8.33333V18.75C6.25 19.9006 7.18274 20.8333 8.33333 20.8333H41.6667C42.8173 20.8333 43.75 19.9006 43.75 18.75V8.33333C43.75 7.18274 42.8173 6.25 41.6667 6.25Z" stroke="#FF7100" stroke-width="3.5" stroke-linecap="round" stroke-linejoin="round"/>
<path d="M18.75 29.1667H8.33333C7.18274 29.1667 6.25 30.0994 6.25 31.25V41.6667C6.25 42.8173 7.18274 43.75 8.33333 43.75H18.75C19.9006 43.75 20.8333 42.8173 20.8333 41.6667V31.25C20.8333 30.0994 19.9006 29.1667 18.75 29.1667Z" stroke="#FF7100" stroke-width="3.5" stroke-linecap="round" stroke-linejoin="round"/>
<path d="M41.6667 29.1667H31.25C30.0994 29.1667 29.1667 30.0994 29.1667 31.25V41.6667C29.1667 42.8173 30.0994 43.75 31.25 43.75H41.6667C42.8173 43.75 43.75 42.8173 43.75 41.6667V31.25C43.75 30.0994 42.8173 29.1667 41.6667 29.1667Z" stroke="#FF7100" stroke-width="3.5" stroke-linecap="round" stroke-linejoin="round"/>
</svg>
