<svg width="50" height="50" viewBox="0 0 50 50" fill="none" xmlns="http://www.w3.org/2000/svg">
<path d="M25.0003 35.4167V43.75M16.667 43.75H33.3337M18.7503 35.4167L31.4587 22.7083C32.2412 21.9414 33.2943 21.5135 34.39 21.5174C35.4857 21.5213 36.5358 21.9567 37.3128 22.7292L45.8337 31.25M45.8337 31.25V10.4167C45.8337 8.11548 43.9682 6.25 41.667 6.25H8.33366C6.03247 6.25 4.16699 8.11548 4.16699 10.4167V31.25C4.16699 33.5512 6.03247 35.4167 8.33366 35.4167H41.667C43.9682 35.4167 45.8337 33.5512 45.8337 31.25ZM20.8337 18.75C20.8337 21.0512 18.9682 22.9167 16.667 22.9167C14.3658 22.9167 12.5003 21.0512 12.5003 18.75C12.5003 16.4488 14.3658 14.5833 16.667 14.5833C18.9682 14.5833 20.8337 16.4488 20.8337 18.75Z" stroke="#FF7100" stroke-width="3.5" stroke-linecap="round" stroke-linejoin="round"/>
</svg>
