<svg width="50" height="50" viewBox="0 0 50 50" fill="none" xmlns="http://www.w3.org/2000/svg">
<path d="M24.9997 31.2499L18.7497 24.9999M24.9997 31.2499C27.9098 30.1431 30.7015 28.7472 33.333 27.0832M24.9997 31.2499V41.6665C24.9997 41.6665 31.3122 40.5207 33.333 37.4999C35.583 34.1249 33.333 27.0832 33.333 27.0832M18.7497 24.9999C19.8583 22.1237 21.2543 19.3667 22.9163 16.7707C25.3438 12.8894 28.7239 9.69372 32.7351 7.48756C36.7463 5.28139 41.2552 4.13814 45.833 4.16653C45.833 9.8332 44.208 19.7915 33.333 27.0832M18.7497 24.9999H8.33301C8.33301 24.9999 9.47884 18.6874 12.4997 16.6665C15.8747 14.4165 22.9163 16.6665 22.9163 16.6665M9.37467 34.3749C6.24967 36.9999 5.20801 44.7915 5.20801 44.7915C5.20801 44.7915 12.9997 43.7499 15.6247 40.6249C17.1038 38.8749 17.083 36.1874 15.4372 34.5624C14.6274 33.7895 13.5607 33.3429 12.4418 33.3083C11.3229 33.2736 10.2307 33.6535 9.37467 34.3749Z" stroke="#FF7100" stroke-width="3.5" stroke-linecap="round" stroke-linejoin="round"/>
</svg>
