<svg width="58" height="58" viewBox="0 0 58 58" fill="none" xmlns="http://www.w3.org/2000/svg">
<path d="M29.0003 36.2493L21.7503 28.9993M29.0003 36.2493C32.376 34.9654 35.6145 33.3462 38.667 31.416M29.0003 36.2493V48.3326C29.0003 48.3326 36.3228 47.0035 38.667 43.4993C41.277 39.5843 38.667 31.416 38.667 31.416M21.7503 28.9993C23.0363 25.6629 24.6557 22.4648 26.5837 19.4535C29.3995 14.9512 33.3204 11.2442 37.9734 8.68502C42.6264 6.12587 47.8568 4.79969 53.167 4.83263C53.167 11.406 51.282 22.9576 38.667 31.416M21.7503 28.9993H9.66699C9.66699 28.9993 10.9962 21.6768 14.5003 19.3326C18.4153 16.7226 26.5837 19.3326 26.5837 19.3326M10.8753 39.8743C7.25033 42.9193 6.04199 51.9576 6.04199 51.9576C6.04199 51.9576 15.0803 50.7493 18.1253 47.1243C19.8412 45.0943 19.817 41.9768 17.9078 40.0918C16.9685 39.1952 15.7311 38.6772 14.4332 38.637C13.1353 38.5969 11.8683 39.0375 10.8753 39.8743Z" stroke="#FF7100" stroke-width="3" stroke-linecap="round" stroke-linejoin="round"/>
</svg>
