<svg width="58" height="58" viewBox="0 0 58 58" fill="none" xmlns="http://www.w3.org/2000/svg">
<path d="M14.5 33.8333C14.5 40.1081 16.5352 46.2135 20.3 51.2333C21.0691 52.2588 22.2141 52.9368 23.4831 53.1181C24.7521 53.2994 26.0412 52.9691 27.0667 52.2C28.0922 51.4309 28.7701 50.2859 28.9514 49.0169C29.1327 47.7479 28.8025 46.4588 28.0333 45.4333C25.5234 42.0868 24.1667 38.0165 24.1667 33.8333M19.3333 14.5V33.8333M26.5833 14.5C33.9333 14.6893 41.1169 12.2948 46.8833 7.73333C47.2424 7.46405 47.6693 7.30007 48.1163 7.25977C48.5633 7.21946 49.0127 7.30442 49.4141 7.50514C49.8155 7.70585 50.1531 8.01438 50.3891 8.39615C50.625 8.77793 50.75 9.21786 50.75 9.66667V38.6667C50.75 39.1155 50.625 39.5554 50.3891 39.9372C50.1531 40.319 49.8155 40.6275 49.4141 40.8282C49.0127 41.0289 48.5633 41.1139 48.1163 41.0736C47.6693 41.0333 47.2424 40.8693 46.8833 40.6C41.1169 36.0385 33.9333 33.644 26.5833 33.8333H12.0833C10.8015 33.8333 9.57208 33.3241 8.66565 32.4177C7.75922 31.5113 7.25 30.2819 7.25 29V19.3333C7.25 18.0515 7.75922 16.8221 8.66565 15.9157C9.57208 15.0092 10.8015 14.5 12.0833 14.5H26.5833Z" stroke="#FF7100" stroke-width="3" stroke-linecap="round" stroke-linejoin="round"/>
</svg>
