<svg width="58" height="58" viewBox="0 0 58 58" fill="none" xmlns="http://www.w3.org/2000/svg">
<path d="M4.9541 4.95508H9.78744L16.2158 34.9701C16.4516 36.0693 17.0632 37.052 17.9454 37.7489C18.8276 38.4458 19.9251 38.8134 21.0491 38.7884H44.6841C45.7841 38.7866 46.8506 38.4097 47.7074 37.7198C48.5642 37.03 49.1601 36.0685 49.3966 34.9942L53.3841 17.0384H12.3733M21.7499 50.7509C21.7499 52.0856 20.668 53.1676 19.3333 53.1676C17.9986 53.1676 16.9166 52.0856 16.9166 50.7509C16.9166 49.4162 17.9986 48.3342 19.3333 48.3342C20.668 48.3342 21.7499 49.4162 21.7499 50.7509ZM48.3333 50.7509C48.3333 52.0856 47.2513 53.1676 45.9166 53.1676C44.5819 53.1676 43.4999 52.0856 43.4999 50.7509C43.4999 49.4162 44.5819 48.3342 45.9166 48.3342C47.2513 48.3342 48.3333 49.4162 48.3333 50.7509Z" stroke="#FF7100" stroke-width="3" stroke-linecap="round" stroke-linejoin="round"/>
</svg>
