<svg width="58" height="58" viewBox="0 0 58 58" fill="none" xmlns="http://www.w3.org/2000/svg">
<path d="M29.0006 4.83203H20.5423C18.299 4.83203 16.1476 5.72317 14.5614 7.30942C12.9751 8.89566 12.084 11.0471 12.084 13.2904C12.084 15.5337 12.9751 17.6851 14.5614 19.2713C16.1476 20.8576 18.299 21.7487 20.5423 21.7487M29.0006 4.83203V21.7487M29.0006 4.83203L37.459 4.83203C38.5697 4.83203 39.6696 5.05081 40.6958 5.47588C41.7221 5.90095 42.6545 6.52399 43.4399 7.30942C44.2254 8.09485 44.8484 9.02729 45.2735 10.0535C45.6985 11.0797 45.9173 12.1796 45.9173 13.2904C45.9173 14.4011 45.6985 15.501 45.2735 16.5272C44.8484 17.5534 44.2254 18.4859 43.4399 19.2713C42.6545 20.0567 41.7221 20.6798 40.6958 21.1048C39.6696 21.5299 38.5697 21.7487 37.459 21.7487M29.0006 21.7487H20.5423M29.0006 21.7487H37.459M29.0006 21.7487V38.6654M20.5423 21.7487C18.299 21.7487 16.1476 22.6398 14.5614 24.2261C12.9751 25.8123 12.084 27.9637 12.084 30.207C12.084 32.4503 12.9751 34.6017 14.5614 36.188C16.1476 37.7742 18.299 38.6654 20.5423 38.6654M37.459 21.7487C36.3482 21.7487 35.2483 21.9675 34.2221 22.3926C33.1959 22.8176 32.2635 23.4407 31.478 24.2261C30.6926 25.0115 30.0696 25.944 29.6445 26.9702C29.2194 27.9964 29.0006 29.0963 29.0006 30.207C29.0006 31.3178 29.2194 32.4177 29.6445 33.4439C30.0696 34.4701 30.6926 35.4025 31.478 36.188C32.2635 36.9734 33.1959 37.5964 34.2221 38.0215C35.2483 38.4466 36.3482 38.6654 37.459 38.6654C38.5697 38.6654 39.6696 38.4466 40.6958 38.0215C41.7221 37.5964 42.6545 36.9734 43.4399 36.188C44.2254 35.4025 44.8484 34.4701 45.2735 33.4439C45.6985 32.4177 45.9173 31.3178 45.9173 30.207C45.9173 29.0963 45.6985 27.9964 45.2735 26.9702C44.8484 25.944 44.2254 25.0115 43.4399 24.2261C42.6545 23.4407 41.7221 22.8176 40.6958 22.3926C39.6696 21.9675 38.5697 21.7487 37.459 21.7487ZM20.5423 38.6654C18.299 38.6654 16.1476 39.5565 14.5614 41.1428C12.9751 42.729 12.084 44.8804 12.084 47.1237C12.084 49.367 12.9751 51.5184 14.5614 53.1046C16.1476 54.6909 18.299 55.582 20.5423 55.582C22.7856 55.582 24.937 54.6909 26.5233 53.1046C28.1095 51.5184 29.0006 49.367 29.0006 47.1237V38.6654M20.5423 38.6654H29.0006" stroke="#FF7100" stroke-width="3" stroke-linecap="round" stroke-linejoin="round"/>
</svg>
