<svg width="58" height="58" viewBox="0 0 58 58" fill="none" xmlns="http://www.w3.org/2000/svg">
<path d="M51.2572 38.4005C49.7197 42.0363 47.3151 45.2402 44.2534 47.732C41.1917 50.2238 37.5662 51.9276 33.6939 52.6946C29.8216 53.4615 25.8204 53.2682 22.04 52.1315C18.2597 50.9949 14.8154 48.9494 12.0081 46.1741C9.20092 43.3988 7.11631 39.978 5.93654 36.2109C4.75677 32.4438 4.51778 28.445 5.24045 24.5642C5.96312 20.6834 7.62545 17.0387 10.0821 13.9488C12.5388 10.8588 15.715 8.4177 19.333 6.83885M50.7497 28.9997C52.0837 28.9997 53.1784 27.9146 53.0455 26.5879C52.4883 21.0396 50.0297 15.8547 46.0863 11.9122C42.1429 7.96971 36.9575 5.51219 31.4091 4.95627C30.0799 4.82335 28.9973 5.9181 28.9973 7.2521V26.5854C28.9973 27.2264 29.2519 27.8411 29.7051 28.2943C30.1583 28.7475 30.773 29.0021 31.4139 29.0021L50.7497 28.9997Z" stroke="#FF7100" stroke-width="3" stroke-linecap="round" stroke-linejoin="round"/>
</svg>
