<svg width="58" height="58" viewBox="0 0 58 58" fill="none" xmlns="http://www.w3.org/2000/svg">
<path d="M48.3333 7.25H9.66667C8.33198 7.25 7.25 8.33198 7.25 9.66667V21.75C7.25 23.0847 8.33198 24.1667 9.66667 24.1667H48.3333C49.668 24.1667 50.75 23.0847 50.75 21.75V9.66667C50.75 8.33198 49.668 7.25 48.3333 7.25Z" stroke="#FF7100" stroke-width="3" stroke-linecap="round" stroke-linejoin="round"/>
<path d="M21.75 33.8333H9.66667C8.33198 33.8333 7.25 34.9153 7.25 36.25V48.3333C7.25 49.668 8.33198 50.75 9.66667 50.75H21.75C23.0847 50.75 24.1667 49.668 24.1667 48.3333V36.25C24.1667 34.9153 23.0847 33.8333 21.75 33.8333Z" stroke="#FF7100" stroke-width="3" stroke-linecap="round" stroke-linejoin="round"/>
<path d="M48.3333 33.8333H36.25C34.9153 33.8333 33.8333 34.9153 33.8333 36.25V48.3333C33.8333 49.668 34.9153 50.75 36.25 50.75H48.3333C49.668 50.75 50.75 49.668 50.75 48.3333V36.25C50.75 34.9153 49.668 33.8333 48.3333 33.8333Z" stroke="#FF7100" stroke-width="3" stroke-linecap="round" stroke-linejoin="round"/>
</svg>
