<svg width="373" height="82" viewBox="0 0 373 82" fill="none" xmlns="http://www.w3.org/2000/svg">
<g clip-path="url(#clip0_3036_417)">
<mask id="mask0_3036_417" style="mask-type:luminance" maskUnits="userSpaceOnUse" x="0" y="0" width="373" height="82">
<path d="M373 0H0V82H373V0Z" fill="white"/>
</mask>
<g mask="url(#mask0_3036_417)">
<path d="M138.213 35.2106L138.357 39.0421L134.014 43.5122H113.823L113.679 29.057H110.199L115.06 23.2227H132.432L136.689 27.5186L136.804 31.0018L135.337 32.5692L138.213 35.2106ZM120.697 28.7377V31.205H129.843L129.383 28.7377H120.697ZM120.697 37.9681H131.368L130.907 35.8202H120.697V37.9681Z" fill="#FF7E16"/>
<path d="M161.539 30.0149H164.587V38.4616L159.18 43.4832H145.289L139.939 38.1713L144.454 32.4821H139.91V27.983L145.49 23.2227H159.41L163.955 27.4025L161.539 30.0149ZM147.561 37.7069H157.57L157.512 29.1441H147.618L147.561 37.7069Z" fill="#FF7E16"/>
<path d="M176.316 37.794H193.112L187.964 43.5122H173.642L168.58 38.4035V34.7752L170.219 32.1919H165.617L173.584 23.2227H192.825L184.772 32.1628L186.238 28.7087H177.381L175.396 30.7115L176.316 37.794Z" fill="#FF7E16"/>
<path d="M220.651 23.2227L213.115 32.1628L214.179 29.086H208.398V43.5122H199.224L204.429 37.5327L201.093 37.7069V29.086H191.4L196.002 23.2227H220.651Z" fill="#FF7E16"/>
<path d="M241.197 30.0149H244.246V38.4616L238.839 43.4832H224.947L219.597 38.1713L224.113 32.4821H219.568V27.983L225.148 23.2227H239.069L243.613 27.4025L241.197 30.0149ZM227.219 37.7069H237.228L237.17 29.1441H227.276L227.219 37.7069Z" fill="#FF7E16"/>
<path d="M262.42 32.8885L271.854 43.5122H263.168L257.444 36.9522L253.935 40.4064L253.878 43.5122H246.889V28.7087H251.318L246.889 24.8481V23.2227H253.878V32.7724L262.909 23.2227H271.595L262.42 32.8885Z" fill="#FF7E16"/>
<path d="M310.15 23.2227H317.772L309.057 47.8662L307.878 43.5122H302.269L298.271 33.0627L294.561 43.5122H286.105L279.174 23.2227H286.652L290.506 36.1395L294.245 26.3575L293.238 23.2227H301.924L306.353 36.1395L310.15 23.2227Z" fill="#1C1C1C"/>
<path d="M325.809 37.9972H343.871L339.441 43.5122H323.651L318.647 39.0421L321.063 35.7912H318.043V28.6216L323.968 23.2227H338.492L343.641 28.3023V35.8492H325.348L325.809 37.9972ZM325.809 28.7667L325.032 31.234H336.939V28.7667H325.809Z" fill="#1C1C1C"/>
<path d="M372.773 35.2106L372.917 39.0421L368.574 43.5412H348.384L348.24 29.057H344.76L349.62 23.2227H366.992L371.249 27.5186L371.364 31.0018L369.897 32.5692L372.773 35.2106ZM355.258 28.7377V31.205H364.404L363.944 28.7377H355.258ZM355.258 37.9681H365.928L365.468 35.8202H355.258V37.9681Z" fill="#1C1C1C"/>
<path d="M118.559 58.617V57.2989H114.738V51.9043H115.961V56.1636H117.932V51.9043H119.155V56.1636H119.782V58.617H118.559Z" fill="#1C1C1C"/>
<path d="M123.865 57.2989V51.9043H125.088V55.1883L127.55 51.9043H128.546V57.2989H127.316V54.0682L124.862 57.2989H123.865Z" fill="#1C1C1C"/>
<path d="M135.264 57.4211V56.5905H135.09C134.632 56.5855 134.229 56.5067 133.882 56.3543C133.54 56.2019 133.273 55.9708 133.082 55.661C132.891 55.3511 132.795 54.965 132.795 54.5028C132.795 54.0304 132.893 53.6393 133.089 53.3294C133.286 53.0145 133.555 52.7808 133.897 52.6284C134.245 52.476 134.642 52.3998 135.09 52.3998H135.264V51.6836H136.487V52.3998H136.623C137.066 52.3998 137.463 52.4786 137.816 52.636C138.168 52.7884 138.447 53.017 138.654 53.3218C138.86 53.6266 138.963 54.0126 138.963 54.4799C138.963 54.9523 138.87 55.346 138.684 55.661C138.498 55.9708 138.231 56.2019 137.884 56.3543C137.536 56.5067 137.126 56.5855 136.653 56.5905H136.487V57.4211H135.264ZM135.135 55.5314H135.264V53.4665H135.128C134.876 53.4665 134.665 53.5123 134.494 53.6037C134.328 53.6901 134.202 53.8094 134.116 53.9618C134.031 54.1142 133.988 54.2869 133.988 54.4799C133.988 54.6882 134.028 54.8711 134.109 55.0285C134.194 55.186 134.323 55.3105 134.494 55.4019C134.67 55.4882 134.884 55.5314 135.135 55.5314ZM136.487 55.5314H136.615C136.872 55.5314 137.086 55.4882 137.257 55.4019C137.428 55.3105 137.556 55.186 137.642 55.0285C137.728 54.8711 137.77 54.6882 137.77 54.4799C137.77 54.2818 137.725 54.1066 137.634 53.9542C137.549 53.8018 137.42 53.6824 137.249 53.5961C137.083 53.5097 136.872 53.4665 136.615 53.4665H136.487V55.5314Z" fill="#1C1C1C"/>
<path d="M143.213 57.2989V51.9043H145.38C145.792 51.9043 146.152 51.9653 146.459 52.0872C146.771 52.2091 147.013 52.4072 147.184 52.6815C147.36 52.9558 147.448 53.3266 147.448 53.7939C147.448 54.2257 147.355 54.5864 147.169 54.8759C146.983 55.1654 146.729 55.3813 146.406 55.5235C146.084 55.6607 145.717 55.7293 145.304 55.7293H144.436V57.2989H143.213ZM144.436 54.6321H145.304C145.591 54.6321 145.818 54.5609 145.984 54.4187C146.155 54.2765 146.24 54.0682 146.24 53.7939C146.24 53.545 146.167 53.3596 146.021 53.2377C145.881 53.1107 145.646 53.0472 145.319 53.0472H144.436V54.6321Z" fill="#1C1C1C"/>
<path d="M154.122 57.36C153.573 57.36 153.098 57.2458 152.695 57.0172C152.297 56.7835 151.99 56.461 151.774 56.0495C151.557 55.633 151.449 55.1529 151.449 54.6094C151.449 54.0507 151.56 53.5656 151.781 53.1541C152.008 52.7376 152.322 52.415 152.725 52.1864C153.128 51.9528 153.603 51.8359 154.152 51.8359C154.691 51.8359 155.159 51.9502 155.556 52.1788C155.959 52.4074 156.271 52.7274 156.493 53.1389C156.719 53.5452 156.832 54.0253 156.832 54.5789C156.832 55.1225 156.722 55.605 156.5 56.0266C156.279 56.4432 155.964 56.7708 155.556 57.0096C155.154 57.2432 154.676 57.36 154.122 57.36ZM154.145 56.1943C154.487 56.1943 154.764 56.1155 154.975 55.9581C155.186 55.8006 155.34 55.6 155.436 55.3561C155.531 55.1123 155.579 54.8634 155.579 54.6094C155.579 54.4215 155.551 54.2335 155.496 54.0456C155.446 53.8576 155.363 53.6849 155.247 53.5275C155.136 53.37 154.99 53.243 154.809 53.1465C154.628 53.05 154.404 53.0017 154.137 53.0017C153.8 53.0017 153.525 53.0805 153.314 53.2379C153.103 53.3903 152.947 53.5884 152.846 53.8322C152.75 54.0761 152.702 54.3326 152.702 54.6018C152.702 54.871 152.753 55.1275 152.853 55.3714C152.954 55.6152 153.11 55.8133 153.322 55.9657C153.538 56.1181 153.812 56.1943 154.145 56.1943Z" fill="#1C1C1C"/>
<path d="M161.078 57.2989V51.9043H163.577C163.814 51.9043 164.03 51.9297 164.226 51.9805C164.428 52.0262 164.601 52.1049 164.747 52.2167C164.898 52.3234 165.017 52.4681 165.102 52.651C165.188 52.8288 165.231 53.0548 165.231 53.3291C165.231 53.5374 165.183 53.7355 165.087 53.9235C164.991 54.1114 164.856 54.2562 164.679 54.3578C164.916 54.4492 165.105 54.6016 165.246 54.8149C165.392 55.0232 165.465 55.295 165.465 55.6302C165.465 55.9604 165.404 56.2347 165.283 56.4531C165.168 56.6665 165.007 56.8366 164.8 56.9636C164.599 57.0855 164.367 57.1719 164.106 57.2227C163.844 57.2735 163.57 57.2989 163.283 57.2989H161.078ZM162.301 56.1636H163.403C163.529 56.1636 163.643 56.1534 163.743 56.1331C163.849 56.1077 163.937 56.0747 164.007 56.0341C164.083 55.9883 164.138 55.9299 164.174 55.8588C164.214 55.7826 164.234 55.6963 164.234 55.5997C164.234 55.4981 164.216 55.4143 164.181 55.3483C164.151 55.2823 164.103 55.2289 164.038 55.1883C163.972 55.1426 163.894 55.1121 163.804 55.0969C163.713 55.0765 163.61 55.0664 163.494 55.0664H162.301V56.1636ZM162.301 54.053H163.275C163.396 54.053 163.502 54.0403 163.592 54.0149C163.688 53.9895 163.766 53.9539 163.826 53.9082C163.887 53.8625 163.932 53.8066 163.962 53.7406C163.997 53.6746 164.015 53.5984 164.015 53.512C164.015 53.3952 163.987 53.3037 163.932 53.2377C163.882 53.1666 163.809 53.1183 163.713 53.0929C163.617 53.0625 163.502 53.0472 163.366 53.0472H162.301V54.053Z" fill="#1C1C1C"/>
<path d="M169.168 57.2989L171.282 51.9043H172.581L174.672 57.2989H173.351L173.056 56.4607H170.784L170.482 57.2989H169.168ZM171.169 55.3407H172.671L171.931 53.2529L171.169 55.3407Z" fill="#1C1C1C"/>
<path d="M178.428 57.2989L179.839 55.3254C179.447 55.1934 179.15 54.9902 178.949 54.7159C178.752 54.4365 178.654 54.086 178.654 53.6644C178.654 53.3241 178.712 53.0396 178.828 52.811C178.949 52.5824 179.112 52.4021 179.319 52.27C179.525 52.138 179.762 52.044 180.028 51.9881C180.296 51.9322 180.574 51.9043 180.867 51.9043H182.996V57.2989H181.773V55.5235H181.047L179.886 57.2989H178.428ZM180.813 54.4263H181.773V53.0472H180.754C180.587 53.0472 180.436 53.0701 180.301 53.1158C180.164 53.1564 180.057 53.225 179.976 53.3215C179.9 53.418 179.862 53.5501 179.862 53.7177C179.862 53.9057 179.911 54.0504 180.006 54.152C180.101 54.2536 180.222 54.3247 180.368 54.3654C180.519 54.406 180.668 54.4263 180.813 54.4263Z" fill="#1C1C1C"/>
<path d="M195.498 57.36C194.944 57.36 194.472 57.2483 194.078 57.0248C193.686 56.8013 193.386 56.4838 193.181 56.0724C192.98 55.6609 192.879 55.1783 192.879 54.6247C192.879 54.0608 192.983 53.5706 193.195 53.1541C193.407 52.7376 193.706 52.415 194.094 52.1864C194.486 51.9528 194.95 51.8359 195.484 51.8359C195.895 51.8359 196.267 51.9096 196.6 52.0569C196.932 52.2042 197.202 52.4226 197.409 52.7122C197.619 52.9966 197.749 53.3573 197.794 53.7941H196.623C196.562 53.5452 196.44 53.3522 196.253 53.2151C196.071 53.0728 195.825 53.0017 195.512 53.0017C195.176 53.0017 194.907 53.0805 194.705 53.2379C194.504 53.3903 194.358 53.5859 194.267 53.8246C194.182 54.0634 194.139 54.3123 194.139 54.5713C194.139 54.8405 194.184 55.0996 194.276 55.3485C194.371 55.5974 194.518 55.8006 194.72 55.9581C194.926 56.1155 195.198 56.1943 195.536 56.1943C195.737 56.1943 195.913 56.1638 196.064 56.1028C196.221 56.0419 196.348 55.953 196.449 55.8362C196.55 55.7193 196.62 55.5796 196.661 55.4171H197.862C197.82 55.8387 197.687 56.1943 197.461 56.4838C197.24 56.7734 196.956 56.9918 196.607 57.1391C196.266 57.2864 195.895 57.36 195.498 57.36Z" fill="#1C1C1C"/>
<path d="M202.109 57.2989V51.9043H203.332V55.1883L205.793 51.9043H206.79V57.2989H205.559V54.0682L203.105 57.2989H202.109Z" fill="#1C1C1C"/>
<path d="M210.857 57.3141V56.1407C211.05 56.1407 211.195 56.1052 211.296 56.0341C211.402 55.9629 211.478 55.8613 211.523 55.7293C211.573 55.5972 211.611 55.4448 211.636 55.2721C211.656 55.1299 211.668 54.98 211.674 54.8226C211.683 54.66 211.688 54.5076 211.688 54.3654C211.693 54.2181 211.695 54.0936 211.695 53.992L211.711 51.9043H215.569V57.2989H214.347V53.0472H212.851L212.837 54.213C212.837 54.6092 212.828 54.98 212.813 55.3254C212.799 55.6658 212.756 55.9706 212.686 56.2398C212.614 56.509 212.491 56.7325 212.315 56.9103C212.148 57.0728 211.956 57.182 211.733 57.2379C211.517 57.2887 211.226 57.3141 210.857 57.3141Z" fill="#1C1C1C"/>
<path d="M219.562 57.2989L221.676 51.9043H222.976L225.067 57.2989H223.745L223.451 56.4607H221.179L220.877 57.2989H219.562ZM221.563 55.3407H223.066L222.327 53.2529L221.563 55.3407Z" fill="#1C1C1C"/>
<path d="M234.23 58.617V56.1636C234.446 56.1636 234.604 56.1052 234.705 55.9883C234.811 55.8664 234.887 55.7191 234.932 55.5464C234.978 55.3635 235.012 55.1781 235.038 54.9902C235.063 54.7972 235.081 54.6067 235.091 54.4187C235.106 54.2308 235.117 54.0504 235.12 53.8777C235.136 53.5272 235.145 53.192 235.151 52.872C235.162 52.5469 235.167 52.2243 235.167 51.9043H239.062V56.1636H239.704V58.617H238.48V57.2989H235.453V58.617H234.23ZM236.005 56.1636H237.838V53.0472H236.283L236.253 54.6168C236.253 54.7133 236.249 54.8276 236.238 54.9597C236.233 55.0918 236.22 55.2289 236.201 55.3712C236.181 55.5083 236.156 55.6455 236.125 55.7826C236.095 55.9198 236.055 56.0467 236.005 56.1636Z" fill="#1C1C1C"/>
<path d="M243.387 57.2989L245.501 51.9043H246.799L248.891 57.2989H247.57L247.275 56.4607H245.003L244.701 57.2989H243.387ZM245.387 55.3407H246.89L246.15 53.2529L245.387 55.3407Z" fill="#1C1C1C"/>
<path d="M252.479 57.3141V56.1407C252.671 56.1407 252.816 56.1052 252.917 56.0341C253.023 55.9629 253.099 55.8613 253.144 55.7293C253.194 55.5972 253.232 55.4448 253.257 55.2721C253.277 55.1299 253.289 54.98 253.295 54.8226C253.305 54.66 253.309 54.5076 253.309 54.3654C253.314 54.2181 253.318 54.0936 253.318 53.992L253.332 51.9043H257.19V57.2989H255.968V53.0472H254.472L254.458 54.213C254.458 54.6092 254.45 54.98 254.434 55.3254C254.42 55.6658 254.377 55.9706 254.307 56.2398C254.237 56.509 254.113 56.7325 253.936 56.9103C253.771 57.0728 253.577 57.182 253.356 57.2379C253.138 57.2887 252.847 57.3141 252.479 57.3141Z" fill="#1C1C1C"/>
<path d="M261.729 57.2989V51.9043H262.951V53.832H263.986C264.267 53.832 264.531 53.86 264.779 53.9158C265.025 53.9666 265.239 54.0555 265.421 54.1825C265.606 54.3044 265.75 54.4721 265.85 54.6854C265.956 54.8937 266.009 55.1578 266.009 55.4778C266.014 55.8334 265.951 56.1306 265.82 56.3693C265.694 56.603 265.523 56.7884 265.308 56.9255C265.095 57.0627 264.855 57.1592 264.581 57.2151C264.31 57.2709 264.033 57.2989 263.751 57.2989H261.729ZM262.951 56.1636H263.812C263.952 56.1636 264.082 56.156 264.197 56.1407C264.317 56.1204 264.423 56.0874 264.515 56.0417C264.605 55.996 264.673 55.9299 264.718 55.8436C264.768 55.7572 264.793 55.648 264.793 55.5159C264.793 55.3889 264.774 55.2873 264.732 55.2111C264.693 55.135 264.632 55.0765 264.553 55.0359C264.472 54.9902 264.378 54.9597 264.272 54.9445C264.171 54.9292 264.058 54.9216 263.932 54.9216H262.951V56.1636Z" fill="#1C1C1C"/>
<path d="M270.275 57.2989V51.9043H271.498V54.0682H273.628V51.9043H274.85V57.2989H273.628V55.2035H271.498V57.2989H270.275Z" fill="#1C1C1C"/>
<path d="M279.396 57.2989V51.9043H283.337V53.0472H280.619V54.0682H282.907V55.1654H280.619V56.1636H283.337V57.2989H279.396Z" fill="#1C1C1C"/>
<path d="M287.588 57.2989V51.9043H291.37V53.0472H288.81V57.2989H287.588Z" fill="#1C1C1C"/>
<path d="M297.642 57.36C297.092 57.36 296.617 57.2458 296.214 57.0172C295.817 56.7835 295.51 56.461 295.292 56.0495C295.077 55.633 294.969 55.1529 294.969 54.6094C294.969 54.0507 295.078 53.5656 295.301 53.1541C295.528 52.7376 295.842 52.415 296.245 52.1864C296.648 51.9528 297.122 51.8359 297.671 51.8359C298.21 51.8359 298.677 51.9502 299.076 52.1788C299.479 52.4074 299.79 52.7274 300.011 53.1389C300.237 53.5452 300.351 54.0253 300.351 54.5789C300.351 55.1225 300.241 55.605 300.02 56.0266C299.797 56.4432 299.482 56.7708 299.076 57.0096C298.674 57.2432 298.195 57.36 297.642 57.36ZM297.663 56.1943C298.007 56.1943 298.284 56.1155 298.494 55.9581C298.706 55.8006 298.859 55.6 298.954 55.3561C299.051 55.1123 299.098 54.8634 299.098 54.6094C299.098 54.4215 299.071 54.2335 299.015 54.0456C298.965 53.8576 298.882 53.6849 298.765 53.5275C298.656 53.37 298.51 53.243 298.328 53.1465C298.147 53.05 297.922 53.0017 297.656 53.0017C297.318 53.0017 297.045 53.0805 296.833 53.2379C296.623 53.3903 296.466 53.5884 296.365 53.8322C296.27 54.0761 296.222 54.3326 296.222 54.6018C296.222 54.871 296.272 55.1275 296.373 55.3714C296.473 55.6152 296.63 55.8133 296.84 55.9657C297.058 56.1181 297.331 56.1943 297.663 56.1943Z" fill="#1C1C1C"/>
<path d="M310.23 57.2989V51.9043H312.729C312.966 51.9043 313.182 51.9297 313.378 51.9805C313.579 52.0262 313.754 52.1049 313.899 52.2167C314.05 52.3234 314.169 52.4681 314.255 52.651C314.34 52.8288 314.383 53.0548 314.383 53.3291C314.383 53.5374 314.334 53.7355 314.239 53.9235C314.144 54.1114 314.007 54.2562 313.831 54.3578C314.068 54.4492 314.257 54.6016 314.397 54.8149C314.545 55.0232 314.617 55.295 314.617 55.6302C314.617 55.9604 314.557 56.2347 314.435 56.4531C314.32 56.6665 314.158 56.8366 313.953 56.9636C313.752 57.0855 313.52 57.1719 313.258 57.2227C312.997 57.2735 312.722 57.2989 312.434 57.2989H310.23ZM311.453 56.1636H312.557C312.682 56.1636 312.796 56.1534 312.896 56.1331C313.001 56.1077 313.089 56.0747 313.161 56.0341C313.236 55.9883 313.29 55.9299 313.326 55.8588C313.365 55.7826 313.387 55.6963 313.387 55.5997C313.387 55.4981 313.369 55.4143 313.333 55.3483C313.303 55.2823 313.256 55.2289 313.189 55.1883C313.125 55.1426 313.047 55.1121 312.956 55.0969C312.866 55.0765 312.761 55.0664 312.646 55.0664H311.453V56.1636ZM311.453 54.053H312.427C312.548 54.053 312.654 54.0403 312.745 54.0149C312.841 53.9895 312.918 53.9539 312.979 53.9082C313.038 53.8625 313.085 53.8066 313.114 53.7406C313.15 53.6746 313.168 53.5984 313.168 53.512C313.168 53.3952 313.139 53.3037 313.085 53.2377C313.035 53.1666 312.961 53.1183 312.866 53.0929C312.77 53.0625 312.654 53.0472 312.519 53.0472H311.453V54.053Z" fill="#1C1C1C"/>
<path d="M321.249 57.36C320.701 57.36 320.225 57.2458 319.822 57.0172C319.425 56.7835 319.117 56.461 318.902 56.0495C318.686 55.633 318.576 55.1529 318.576 54.6094C318.576 54.0507 318.688 53.5656 318.909 53.1541C319.135 52.7376 319.45 52.415 319.852 52.1864C320.255 51.9528 320.731 51.8359 321.28 51.8359C321.819 51.8359 322.286 51.9502 322.684 52.1788C323.086 52.4074 323.399 52.7274 323.62 53.1389C323.847 53.5452 323.96 54.0253 323.96 54.5789C323.96 55.1225 323.849 55.605 323.627 56.0266C323.406 56.4432 323.092 56.7708 322.684 57.0096C322.281 57.2432 321.803 57.36 321.249 57.36ZM321.273 56.1943C321.614 56.1943 321.891 56.1155 322.103 55.9581C322.313 55.8006 322.468 55.6 322.563 55.3561C322.659 55.1123 322.707 54.8634 322.707 54.6094C322.707 54.4215 322.678 54.2335 322.624 54.0456C322.574 53.8576 322.49 53.6849 322.374 53.5275C322.263 53.37 322.117 53.243 321.936 53.1465C321.756 53.05 321.531 53.0017 321.265 53.0017C320.927 53.0017 320.652 53.0805 320.442 53.2379C320.23 53.3903 320.074 53.5884 319.973 53.8322C319.878 54.0761 319.831 54.3326 319.831 54.6018C319.831 54.871 319.881 55.1275 319.982 55.3714C320.083 55.6152 320.237 55.8133 320.449 55.9657C320.665 56.1181 320.94 56.1943 321.273 56.1943Z" fill="#1C1C1C"/>
<path d="M330.547 57.36C329.993 57.36 329.52 57.2483 329.127 57.0248C328.735 56.8013 328.435 56.4838 328.228 56.0724C328.026 55.6609 327.926 55.1783 327.926 54.6247C327.926 54.0608 328.032 53.5706 328.244 53.1541C328.454 52.7376 328.754 52.415 329.143 52.1864C329.535 51.9528 329.998 51.8359 330.53 51.8359C330.944 51.8359 331.316 51.9096 331.649 52.0569C331.981 52.2042 332.251 52.4226 332.456 52.7122C332.668 52.9966 332.795 53.3573 332.842 53.7941H331.672C331.611 53.5452 331.487 53.3522 331.302 53.2151C331.12 53.0728 330.874 53.0017 330.561 53.0017C330.225 53.0017 329.955 53.0805 329.754 53.2379C329.553 53.3903 329.407 53.5859 329.315 53.8246C329.231 54.0634 329.188 54.3123 329.188 54.5713C329.188 54.8405 329.233 55.0996 329.323 55.3485C329.42 55.5974 329.567 55.8006 329.768 55.9581C329.975 56.1155 330.246 56.1943 330.584 56.1943C330.786 56.1943 330.962 56.1638 331.113 56.1028C331.269 56.0419 331.397 55.953 331.498 55.8362C331.598 55.7193 331.668 55.5796 331.71 55.4171H332.909C332.869 55.8387 332.736 56.1943 332.51 56.4838C332.289 56.7734 332.003 56.9918 331.656 57.1391C331.314 57.2864 330.944 57.36 330.547 57.36Z" fill="#1C1C1C"/>
<path d="M338.209 57.2989V53.0472H336.602V51.9043H341.056V53.0472H339.433V57.2989H338.209Z" fill="#1C1C1C"/>
<path d="M347.335 57.36C346.787 57.36 346.311 57.2458 345.908 57.0172C345.511 56.7835 345.203 56.461 344.987 56.0495C344.77 55.633 344.662 55.1529 344.662 54.6094C344.662 54.0507 344.774 53.5656 344.995 53.1541C345.221 52.7376 345.536 52.415 345.938 52.1864C346.341 51.9528 346.817 51.8359 347.366 51.8359C347.903 51.8359 348.372 51.9502 348.77 52.1788C349.172 52.4074 349.485 52.7274 349.706 53.1389C349.933 53.5452 350.046 54.0253 350.046 54.5789C350.046 55.1225 349.934 55.605 349.713 56.0266C349.492 56.4432 349.178 56.7708 348.77 57.0096C348.367 57.2432 347.889 57.36 347.335 57.36ZM347.358 56.1943C347.7 56.1943 347.977 56.1155 348.189 55.9581C348.399 55.8006 348.554 55.6 348.649 55.3561C348.744 55.1123 348.793 54.8634 348.793 54.6094C348.793 54.4215 348.764 54.2335 348.708 54.0456C348.658 53.8576 348.575 53.6849 348.46 53.5275C348.349 53.37 348.203 53.243 348.022 53.1465C347.84 53.05 347.617 53.0017 347.35 53.0017C347.013 53.0017 346.738 53.0805 346.528 53.2379C346.316 53.3903 346.16 53.5884 346.059 53.8322C345.964 54.0761 345.915 54.3326 345.915 54.6018C345.915 54.871 345.965 55.1275 346.066 55.3714C346.167 55.6152 346.323 55.8133 346.535 55.9657C346.751 56.1181 347.026 56.1943 347.358 56.1943Z" fill="#1C1C1C"/>
<path d="M354.299 57.2989V51.9043H355.521V54.0606H356.276L357.545 51.9043H358.942L357.288 54.5102L358.935 57.2989H357.508L356.307 55.1959H355.521V57.2989H354.299Z" fill="#1C1C1C"/>
<path d="M362.426 57.2989L364.54 51.9043H365.838L367.93 57.2989H366.609L366.314 56.4607H364.042L363.74 57.2989H362.426ZM364.427 55.3407H365.929L365.189 53.2529L364.427 55.3407Z" fill="#1C1C1C"/>
<mask id="mask1_3036_417" style="mask-type:luminance" maskUnits="userSpaceOnUse" x="0" y="0" width="93" height="82">
<path d="M92.2164 0H0V82H92.2164V0Z" fill="white"/>
</mask>
<g mask="url(#mask1_3036_417)">
<path d="M18.3357 0.363281H14.0215V4.71726H18.3357V0.363281Z" fill="#FF7E16"/>
<path d="M16.5381 6.71094H9.16797V14.149H16.5381V6.71094Z" fill="#1C1C1C"/>
<path d="M27.1446 14.5137H17.2578V24.4915H27.1446V14.5137Z" fill="#FF7E16"/>
<path d="M11.1445 18.6855H6.29102V23.5838H11.1445V18.6855Z" fill="#FF7E16"/>
<path d="M9.52818 26.3047H2.51758V33.3799H9.52818V26.3047Z" fill="#FF7E16"/>
<path d="M16.8966 25.0352H11.6836V30.2962H16.8966V25.0352Z" fill="#1C1C1C"/>
<path d="M22.6497 37.1895H14.5605V45.3532H22.6497V37.1895Z" fill="#1C1C1C"/>
<path d="M4.13446 5.80469H0V9.97725H4.13446V5.80469Z" fill="#FF7E16"/>
<path d="M21.0312 12.1549V0H81.61V26.1239H81.3404C81.1907 24.7029 80.0641 21.5522 76.397 20.3186V5.07965H26.2443V12.1549H21.0312Z" fill="#FF7E16"/>
<path d="M21.0312 47.9844H26.2443V76.7388H76.397V64.1304C76.8464 63.7676 77.6553 62.0623 77.2958 58.1437C79.0934 57.6901 79.4529 57.9623 81.61 56.783V81.9999H21.0312V47.9844Z" fill="#FF7E16"/>
<path fill-rule="evenodd" clip-rule="evenodd" d="M29.3002 26.488H21.0312V34.4703H25.705V31.0234C44.31 31.2048 45.9279 32.0212 45.9279 32.0212C45.9279 32.0212 33.3447 32.9283 30.8281 33.4725V36.2845H26.9633V44.811C34.8727 40.8199 47.0963 37.373 47.2761 37.373C47.2572 37.4016 47.2432 37.4243 47.2295 37.4465C47.1132 37.6351 47.0156 37.7935 44.0404 41.3641C44.4747 45.9222 47.0911 49.6331 49.4566 52.9882C49.5391 53.105 49.621 53.2215 49.7028 53.3376C50.2978 50.249 50.4407 49.7572 50.6541 49.0221C50.6663 48.98 50.6787 48.9372 50.6915 48.8929C51.3683 46.5514 55.2556 44.7129 58.8908 42.9938C59.3392 42.7817 59.7846 42.5711 60.2187 42.3619H53.2081C60.2872 38.3238 64.0068 37.4103 65.6636 37.0034C65.9423 36.935 66.1625 36.881 66.3305 36.8287C65.1621 38.1894 64.5329 39.9128 64.3532 40.5478C68.6674 37.4274 75.2586 36.4659 78.0149 36.3752C76.3798 34.175 75.8914 32.8597 75.7316 32.4294C75.7069 32.363 75.69 32.3176 75.678 32.2933C83.2784 35.5556 85.8691 38.4749 86.751 39.4689C86.7763 39.4975 86.8004 39.5246 86.8231 39.55C83.9469 37.5907 81.3104 36.9194 80.3517 36.8287C81.7612 41.5147 82.7118 42.1094 83.8385 42.8144C83.9333 42.8735 84.0292 42.9336 84.1267 42.9969C83.6234 41.473 83.4975 40.5478 83.4975 40.2756C87.1826 42.0898 86.6433 46.055 85.7445 47.3509C85.1154 48.2579 84.0368 48.6208 83.5874 48.6208C78.2845 49.0743 78.1946 45.446 78.1946 44.9924C79.2013 44.9199 81.7299 45.0832 82.8684 45.1739C79.0934 41.727 73.7007 42.5584 73.2513 42.634C66.7799 43.7225 63.8738 48.1672 63.005 50.4349C66.8639 44.5549 71.5509 45.9394 74.8139 46.9031C75.4267 47.0842 75.9895 47.2504 76.4869 47.3509C76.9183 48.5119 78.2845 49.286 78.9137 49.5278C78.9137 51.977 77.6554 53.3376 76.2173 54.4261C81.4657 53.7314 82.5958 51.7068 83.3136 50.4211C83.3456 50.3636 83.3769 50.3078 83.4076 50.2535C87.0747 49.8181 88.1713 46.7462 88.2611 45.2646C92.4855 41.5455 92.3057 40.7718 92.0361 40.2756C90.5081 37.4637 79.6327 29.2093 79.1833 29.0278H75.2286C76.0914 28.2296 77.206 27.7882 77.6554 27.6672C77.9649 25.0124 75.7434 24.0257 73.5712 23.0609C73.22 22.9049 72.87 22.7494 72.5322 22.5876C55.5125 14.433 50.2486 14.4921 48.4064 14.5128C48.3224 14.5137 48.2453 14.5146 48.1749 14.5146C50.1522 17.2358 49.9725 17.78 49.8826 17.78C42.5937 11.8952 35.7427 12.0495 31.8283 12.1376C31.3985 12.1473 31.0041 12.1561 30.6484 12.1561C30.2888 14.4783 30.918 16.0264 31.2775 16.5101H29.3002V26.488ZM64.8026 29.4814C64.4431 27.5947 62.9151 25.9135 62.1961 25.3088C69.2966 26.8509 71.5435 29.8442 72.2626 30.842C68.2852 29.397 66.4199 29.444 65.2336 29.4739C65.0796 29.4778 64.9369 29.4814 64.8026 29.4814ZM52.1296 29.4814C52.2495 27.1834 53.1362 22.0615 55.7247 19.9571C55.7774 20.0634 55.8148 20.2011 55.8592 20.3652C55.9663 20.7611 56.1154 21.3115 56.6235 21.9526C56.8932 21.227 57.5223 19.8663 58.8705 19.05C60.8119 19.7756 61.7167 20.1989 61.9264 20.3199C60.5782 20.9245 57.4504 23.0048 55.7247 26.488C55.6248 26.2108 55.5389 25.9897 55.4648 25.7992C55.2723 25.3041 55.1605 25.0166 55.0956 24.4924C55.064 24.5364 55.0316 24.5812 54.9985 24.6269C54.2815 25.6201 53.2466 27.0533 52.1296 29.4814ZM48.5344 21.9526C45.4425 15.6393 37.5991 14.5448 34.0638 14.7867C35.5917 20.5013 39.6363 22.4062 42.0631 23.404C41.2541 20.3199 39.3667 18.5057 37.8387 17.3265C45.0221 18.591 46.4612 22.6758 47.278 24.9941C47.3402 25.1704 47.3987 25.3364 47.4558 25.4902C48.2647 23.9482 48.6243 22.0433 48.5344 21.9526Z" fill="#FF7E16"/>
<path d="M48.1759 60.5935C40.4104 59.0696 31.5783 62.5588 28.1328 64.494C29.2114 61.9534 30.1102 53.5176 30.4697 50.5242C32.9863 49.5264 34.2446 49.2543 36.5815 48.7101C35.2333 51.7034 34.6041 53.7897 34.0649 56.8738C36.0422 55.6946 39.8172 55.241 41.6147 55.1503C39.6014 50.7958 39.9969 45.4141 40.4463 43.2676C41.0755 47.0773 42.0641 51.1592 44.9403 53.9711C46.2885 55.1503 49.7938 56.5109 53.2092 57.418C50.6926 52.157 55.0068 50.6149 59.5008 46.0795C59.4109 46.4424 56.6884 51.2499 56.4449 52.3384C55.8157 55.1503 57.9728 58.2344 60.3097 61.772C62.3769 65.1282 61.8376 67.8494 61.4781 69.4822C64.7138 69.5729 66.062 68.7565 66.9608 68.2123C71.1851 64.9468 68.7584 63.6769 67.9494 63.1326C63.9947 61.391 62.8263 58.8391 62.7364 57.7809C62.1972 51.9755 67.1405 48.5286 67.3203 48.4379C62.0174 55.0596 64.8935 58.2344 66.062 59.4136C71.1851 63.4047 73.0726 59.2322 73.6119 58.2344C74.4028 61.5724 72.9228 63.2536 72.0839 63.6769C74.6005 71.1149 60.1299 73.9269 54.7372 72.5663C59.5008 69.7543 56.6246 63.7676 56.5347 63.6769C49.3444 60.5928 48.5355 60.6842 48.1759 60.5935Z" fill="#1C1C1C"/>
</g>
</g>
</g>
<defs>
<clipPath id="clip0_3036_417">
<rect width="373" height="82" fill="white"/>
</clipPath>
</defs>
</svg>
