<svg width="256" height="56" viewBox="0 0 256 56" fill="none" xmlns="http://www.w3.org/2000/svg">
<g clip-path="url(#clip0_1_15)">
<mask id="mask0_1_15" style="mask-type:luminance" maskUnits="userSpaceOnUse" x="0" y="0" width="256" height="56">
<path d="M256 0H0V56H256V0Z" fill="white"/>
</mask>
<g mask="url(#mask0_1_15)">
<path d="M94.8594 24.0453L94.9581 26.6619L91.9774 29.7147H78.1201L78.0214 19.8428H75.6329L78.9689 15.8584H90.8917L93.8132 18.7922L93.8922 21.171L92.8854 22.2414L94.8594 24.0453ZM82.8379 19.6248V21.3097H89.1151L88.7993 19.6248H82.8379ZM82.8379 25.9285H90.1614L89.8455 24.4616H82.8379V25.9285Z" fill="#FF7E16"/>
<path d="M110.868 20.497H112.96V26.2655L109.249 29.6949H99.7148L96.0432 26.0672L99.1423 22.1819H96.0234V19.1094L99.853 15.8584H109.407L112.526 18.7129L110.868 20.497ZM101.274 25.7501H108.144L108.104 19.9023H101.314L101.274 25.7501Z" fill="#FF7E16"/>
<path d="M121.011 25.8096H132.539L129.005 29.7147H119.176L115.701 26.2258V23.748L116.827 21.9837H113.668L119.136 15.8584H132.341L126.814 21.9639L127.821 19.605H121.742L120.38 20.9727L121.011 25.8096Z" fill="#FF7E16"/>
<path d="M151.438 15.8584L146.267 21.9639L146.997 19.8627H143.029V29.7147H136.732L140.305 25.6312L138.015 25.7501V19.8627H131.363L134.522 15.8584H151.438Z" fill="#FF7E16"/>
<path d="M165.54 20.497H167.632V26.2655L163.921 29.6949H154.387L150.715 26.0672L153.814 22.1819H150.695V19.1094L154.525 15.8584H164.079L167.198 18.7129L165.54 20.497ZM155.946 25.7501H162.816L162.776 19.9023H155.986L155.946 25.7501Z" fill="#FF7E16"/>
<path d="M180.105 22.4595L186.579 29.7147H180.618L176.69 25.2347L174.282 27.5936L174.242 29.7147H169.445V19.6049H172.485L169.445 16.9685V15.8584H174.242V22.3802L180.44 15.8584H186.402L180.105 22.4595Z" fill="#FF7E16"/>
<path d="M212.863 15.8584H218.094L212.113 32.6881L211.304 29.7147H207.455L204.711 22.5784L202.164 29.7147H196.361L191.604 15.8584H196.736L199.381 24.6796L201.947 17.9993L201.256 15.8584H207.218L210.258 24.6796L212.863 15.8584Z" fill="white"/>
<path d="M223.611 25.9483H236.007L232.967 29.7147H222.13L218.696 26.6619L220.354 24.4418H218.281V19.5455L222.347 15.8584H232.316L235.849 19.3274V24.4814H223.295L223.611 25.9483ZM223.611 19.6446L223.078 21.3296H231.25V19.6446H223.611Z" fill="white"/>
<path d="M255.844 24.0453L255.942 26.6619L252.962 29.7345H239.104L239.006 19.8428H236.617L239.953 15.8584H251.876L254.798 18.7922L254.876 21.171L253.87 22.2414L255.844 24.0453ZM243.822 19.6248V21.3097H250.099L249.784 19.6248H243.822ZM243.822 25.9285H251.146L250.83 24.4616H243.822V25.9285Z" fill="white"/>
<path d="M81.37 40.0306V39.1304H78.748V35.4463H79.5875V38.3551H80.9399V35.4463H81.7793V38.3551H82.2094V40.0306H81.37Z" fill="white"/>
<path d="M85.0117 39.1304V35.4463H85.8512V37.689L87.5404 35.4463H88.2244V39.1304H87.3798V36.9241L85.6957 39.1304H85.0117Z" fill="white"/>
<path d="M92.835 39.2142V38.647H92.7159C92.4015 38.6435 92.1251 38.5897 91.8868 38.4857C91.6519 38.3816 91.4688 38.2238 91.3375 38.0121C91.2063 37.8005 91.1406 37.5369 91.1406 37.2212C91.1406 36.8986 91.208 36.6315 91.3427 36.4199C91.4774 36.2048 91.6623 36.0452 91.8972 35.9411C92.1355 35.8371 92.4084 35.785 92.7159 35.785H92.835V35.2959H93.6745V35.785H93.7677C94.0717 35.785 94.3446 35.8388 94.5865 35.9463C94.8283 36.0504 95.02 36.2065 95.1616 36.4147C95.3033 36.6228 95.3741 36.8864 95.3741 37.2056C95.3741 37.5282 95.3102 37.7971 95.1823 38.0121C95.0545 38.2238 94.8714 38.3816 94.6331 38.4857C94.3947 38.5897 94.1132 38.6435 93.7885 38.647H93.6745V39.2142H92.835ZM92.747 37.9237H92.835V36.5135H92.7418C92.569 36.5135 92.424 36.5447 92.3065 36.6072C92.1925 36.6662 92.1062 36.7477 92.0474 36.8518C91.9887 36.9558 91.9593 37.0738 91.9593 37.2056C91.9593 37.3478 91.987 37.4727 92.0422 37.5803C92.101 37.6878 92.1891 37.7728 92.3065 37.8352C92.4274 37.8942 92.5742 37.9237 92.747 37.9237ZM93.6745 37.9237H93.7626C93.9387 37.9237 94.0856 37.8942 94.203 37.8352C94.3205 37.7728 94.4085 37.6878 94.4673 37.5803C94.526 37.4727 94.5554 37.3478 94.5554 37.2056C94.5554 37.0703 94.5243 36.9506 94.4621 36.8466C94.4034 36.7425 94.3153 36.661 94.1978 36.602C94.0838 36.543 93.9387 36.5135 93.7626 36.5135H93.6745V37.9237Z" fill="white"/>
<path d="M98.291 39.1304V35.4463H99.7782C100.061 35.4463 100.308 35.4879 100.519 35.5712C100.733 35.6544 100.899 35.7897 101.017 35.977C101.137 36.1644 101.198 36.4176 101.198 36.7368C101.198 37.0316 101.134 37.2779 101.006 37.4757C100.878 37.6734 100.704 37.8208 100.483 37.918C100.262 38.0116 100.01 38.0585 99.7263 38.0585H99.1304V39.1304H98.291ZM99.1304 37.3092H99.7263C99.9232 37.3092 100.079 37.2606 100.193 37.1635C100.31 37.0663 100.369 36.9241 100.369 36.7368C100.369 36.5668 100.319 36.4402 100.219 36.3569C100.122 36.2702 99.9612 36.2268 99.7367 36.2268H99.1304V37.3092Z" fill="white"/>
<path d="M105.778 39.172C105.401 39.172 105.075 39.0939 104.798 38.9378C104.525 38.7782 104.315 38.558 104.166 38.277C104.018 37.9925 103.943 37.6647 103.943 37.2935C103.943 36.9119 104.019 36.5806 104.171 36.2996C104.327 36.0152 104.543 35.7949 104.819 35.6388C105.095 35.4792 105.422 35.3994 105.798 35.3994C106.168 35.3994 106.489 35.4775 106.762 35.6336C107.039 35.7897 107.253 36.0082 107.405 36.2892C107.56 36.5667 107.638 36.8946 107.638 37.2727C107.638 37.6439 107.562 37.9734 107.41 38.2614C107.258 38.5458 107.042 38.7696 106.762 38.9326C106.486 39.0922 106.158 39.172 105.778 39.172ZM105.793 38.3758C106.028 38.3758 106.218 38.3221 106.363 38.2145C106.508 38.107 106.614 37.97 106.679 37.8034C106.745 37.6369 106.778 37.467 106.778 37.2935C106.778 37.1651 106.759 37.0368 106.721 36.9084C106.686 36.7801 106.629 36.6621 106.55 36.5546C106.474 36.4471 106.374 36.3603 106.249 36.2944C106.125 36.2285 105.971 36.1956 105.788 36.1956C105.557 36.1956 105.368 36.2493 105.223 36.3569C105.078 36.4609 104.971 36.5962 104.902 36.7627C104.836 36.9293 104.804 37.1044 104.804 37.2883C104.804 37.4722 104.838 37.6473 104.907 37.8139C104.976 37.9804 105.083 38.1157 105.228 38.2197C105.377 38.3238 105.565 38.3758 105.793 38.3758Z" fill="white"/>
<path d="M110.553 39.1304V35.4463H112.268C112.43 35.4463 112.579 35.4636 112.713 35.4983C112.852 35.5295 112.971 35.5833 113.071 35.6596C113.175 35.7325 113.256 35.8314 113.315 35.9562C113.373 36.0777 113.403 36.232 113.403 36.4194C113.403 36.5616 113.37 36.6969 113.304 36.8252C113.239 36.9536 113.145 37.0524 113.024 37.1218C113.187 37.1843 113.316 37.2883 113.413 37.434C113.513 37.5763 113.563 37.7619 113.563 37.9908C113.563 38.2163 113.522 38.4036 113.439 38.5528C113.359 38.6985 113.249 38.8147 113.107 38.9014C112.969 38.9847 112.81 39.0437 112.631 39.0784C112.451 39.1131 112.263 39.1304 112.066 39.1304H110.553ZM111.392 38.3551H112.149C112.235 38.3551 112.313 38.3481 112.382 38.3343C112.454 38.3169 112.515 38.2944 112.563 38.2666C112.615 38.2354 112.653 38.1955 112.677 38.1469C112.705 38.0949 112.719 38.0359 112.719 37.97C112.719 37.9006 112.707 37.8434 112.682 37.7983C112.662 37.7532 112.629 37.7168 112.584 37.689C112.539 37.6578 112.486 37.637 112.423 37.6266C112.361 37.6127 112.29 37.6058 112.211 37.6058H111.392V38.3551ZM111.392 36.9137H112.061C112.144 36.9137 112.216 36.905 112.278 36.8877C112.344 36.8703 112.397 36.846 112.439 36.8148C112.48 36.7836 112.511 36.7454 112.532 36.7003C112.556 36.6552 112.568 36.6032 112.568 36.5442C112.568 36.4644 112.549 36.402 112.511 36.3569C112.477 36.3083 112.427 36.2754 112.361 36.258C112.296 36.2372 112.216 36.2268 112.123 36.2268H111.392V36.9137Z" fill="white"/>
<path d="M116.105 39.1304L117.556 35.4463H118.448L119.883 39.1304H118.976L118.774 38.558H117.214L117.007 39.1304H116.105ZM117.479 37.7931H118.51L118.002 36.3673L117.479 37.7931Z" fill="white"/>
<path d="M122.461 39.1304L123.43 37.7827C123.16 37.6925 122.957 37.5537 122.818 37.3664C122.684 37.1756 122.616 36.9362 122.616 36.6483C122.616 36.4159 122.656 36.2216 122.736 36.0655C122.818 35.9094 122.931 35.7863 123.072 35.6961C123.214 35.6059 123.376 35.5417 123.559 35.5035C123.743 35.4654 123.934 35.4463 124.135 35.4463H125.596V39.1304H124.757V37.918H124.259L123.462 39.1304H122.461ZM124.098 37.1687H124.757V36.2268H124.058C123.943 36.2268 123.839 36.2424 123.747 36.2737C123.653 36.3014 123.579 36.3482 123.523 36.4141C123.471 36.4801 123.446 36.5703 123.446 36.6847C123.446 36.8131 123.479 36.912 123.544 36.9813C123.61 37.0507 123.692 37.0993 123.792 37.127C123.896 37.1548 123.998 37.1687 124.098 37.1687Z" fill="white"/>
<path d="M134.176 39.172C133.796 39.172 133.472 39.0957 133.202 38.943C132.933 38.7904 132.727 38.5736 132.586 38.2926C132.448 38.0116 132.379 37.682 132.379 37.3039C132.379 36.9188 132.45 36.5841 132.596 36.2996C132.742 36.0152 132.946 35.7949 133.213 35.6388C133.482 35.4792 133.8 35.3994 134.167 35.3994C134.449 35.3994 134.704 35.4497 134.933 35.5503C135.161 35.6509 135.346 35.8001 135.488 35.9978C135.632 36.1921 135.721 36.4384 135.752 36.7367H134.949C134.907 36.5667 134.823 36.4349 134.695 36.3413C134.57 36.2441 134.401 36.1956 134.186 36.1956C133.956 36.1956 133.771 36.2493 133.632 36.3569C133.494 36.4609 133.394 36.5945 133.331 36.7575C133.273 36.9206 133.244 37.0906 133.244 37.2675C133.244 37.4513 133.275 37.6283 133.338 37.7982C133.403 37.9682 133.504 38.107 133.642 38.2145C133.784 38.3221 133.97 38.3758 134.202 38.3758C134.341 38.3758 134.461 38.355 134.565 38.3134C134.672 38.2718 134.76 38.2111 134.829 38.1313C134.898 38.0515 134.946 37.9561 134.975 37.8451H135.799C135.77 38.133 135.679 38.3758 135.524 38.5736C135.372 38.7713 135.177 38.9205 134.938 39.0211C134.703 39.1217 134.449 39.172 134.176 39.172Z" fill="white"/>
<path d="M138.713 39.1304V35.4463H139.552V37.689L141.241 35.4463H141.926V39.1304H141.08V36.9241L139.396 39.1304H138.713Z" fill="white"/>
<path d="M144.717 39.1408V38.3395C144.849 38.3395 144.949 38.3152 145.018 38.2666C145.091 38.218 145.142 38.1487 145.173 38.0585C145.208 37.9683 145.234 37.8642 145.251 37.7463C145.265 37.6491 145.273 37.5468 145.277 37.4392C145.283 37.3282 145.287 37.2242 145.287 37.127C145.29 37.0264 145.292 36.9414 145.292 36.8721L145.303 35.4463H147.95V39.1304H147.111V36.2268H146.085L146.075 37.023C146.075 37.2935 146.069 37.5468 146.059 37.7827C146.049 38.0151 146.02 38.2232 145.972 38.4071C145.922 38.591 145.838 38.7436 145.717 38.865C145.603 38.976 145.471 39.0506 145.318 39.0888C145.17 39.1235 144.97 39.1408 144.717 39.1408Z" fill="white"/>
<path d="M150.691 39.1304L152.142 35.4463H153.034L154.469 39.1304H153.562L153.36 38.558H151.801L151.593 39.1304H150.691ZM152.065 37.7931H153.096L152.589 36.3673L152.065 37.7931Z" fill="white"/>
<path d="M160.76 40.0306V38.3551C160.908 38.3551 161.016 38.3152 161.085 38.2354C161.158 38.1521 161.21 38.0515 161.241 37.9336C161.273 37.8087 161.296 37.6821 161.314 37.5537C161.331 37.4219 161.343 37.2918 161.351 37.1635C161.361 37.0351 161.368 36.912 161.37 36.794C161.382 36.5546 161.388 36.3257 161.391 36.1071C161.399 35.8851 161.403 35.6648 161.403 35.4463H164.076V38.3551H164.516V40.0306H163.676V39.1304H161.599V40.0306H160.76ZM161.977 38.3551H163.236V36.2268H162.169L162.148 37.2987C162.148 37.3647 162.145 37.4427 162.138 37.5329C162.134 37.6231 162.126 37.7168 162.112 37.8139C162.098 37.9076 162.081 38.0012 162.06 38.0949C162.039 38.1886 162.012 38.2753 161.977 38.3551Z" fill="white"/>
<path d="M167.043 39.1306L168.494 35.4465H169.384L170.82 39.1306H169.914L169.711 38.5582H168.152L167.945 39.1306H167.043ZM168.416 37.7933H169.447L168.939 36.3675L168.416 37.7933Z" fill="white"/>
<path d="M173.283 39.141V38.3397C173.415 38.3397 173.515 38.3154 173.584 38.2668C173.657 38.2183 173.709 38.1489 173.739 38.0587C173.774 37.9685 173.8 37.8644 173.817 37.7465C173.831 37.6493 173.839 37.547 173.843 37.4395C173.851 37.3285 173.853 37.2244 173.853 37.1273C173.857 37.0267 173.859 36.9417 173.859 36.8723L173.869 35.4465H176.517V39.1306H175.678V36.227H174.651L174.641 37.0232C174.641 37.2938 174.636 37.547 174.625 37.7829C174.615 38.0153 174.586 38.2235 174.538 38.4073C174.49 38.5912 174.404 38.7438 174.284 38.8652C174.17 38.9762 174.037 39.0508 173.885 39.089C173.736 39.1237 173.536 39.141 173.283 39.141Z" fill="white"/>
<path d="M179.631 39.1304V35.4463H180.47V36.7628H181.18C181.373 36.7628 181.554 36.7819 181.725 36.82C181.894 36.8547 182.04 36.9154 182.165 37.0021C182.292 37.0854 182.391 37.1999 182.46 37.3456C182.533 37.4878 182.568 37.6682 182.568 37.8867C182.572 38.1296 182.529 38.3325 182.439 38.4956C182.352 38.6551 182.235 38.7818 182.087 38.8754C181.942 38.9691 181.776 39.035 181.589 39.0732C181.403 39.1113 181.213 39.1304 181.019 39.1304H179.631ZM180.47 38.3551H181.061C181.157 38.3551 181.246 38.3499 181.325 38.3395C181.407 38.3256 181.48 38.303 181.543 38.2718C181.605 38.2406 181.652 38.1955 181.683 38.1365C181.717 38.0775 181.734 38.003 181.734 37.9128C181.734 37.826 181.721 37.7567 181.692 37.7046C181.665 37.6526 181.623 37.6127 181.569 37.5849C181.514 37.5537 181.449 37.5329 181.377 37.5225C181.308 37.5121 181.23 37.5069 181.143 37.5069H180.47V38.3551Z" fill="white"/>
<path d="M185.496 39.1304V35.4463H186.335V36.9241H187.797V35.4463H188.636V39.1304H187.797V37.6994H186.335V39.1304H185.496Z" fill="white"/>
<path d="M191.758 39.1304V35.4463H194.462V36.2268H192.597V36.9241H194.167V37.6734H192.597V38.3551H194.462V39.1304H191.758Z" fill="white"/>
<path d="M197.379 39.1306V35.4465H199.975V36.227H198.218V39.1306H197.379Z" fill="white"/>
<path d="M204.28 39.172C203.902 39.172 203.577 39.0939 203.3 38.9378C203.028 38.7782 202.817 38.558 202.667 38.277C202.519 37.9925 202.445 37.6647 202.445 37.2935C202.445 36.9119 202.521 36.5806 202.674 36.2996C202.829 36.0152 203.045 35.7949 203.321 35.6388C203.598 35.4792 203.923 35.3994 204.3 35.3994C204.67 35.3994 204.991 35.4775 205.264 35.6336C205.541 35.7897 205.754 36.0082 205.906 36.2892C206.061 36.5667 206.139 36.8946 206.139 37.2727C206.139 37.6439 206.064 37.9734 205.912 38.2614C205.759 38.5458 205.543 38.7696 205.264 38.9326C204.988 39.0922 204.66 39.172 204.28 39.172ZM204.295 38.3758C204.53 38.3758 204.72 38.3221 204.865 38.2145C205.01 38.107 205.115 37.97 205.18 37.8034C205.247 37.6369 205.279 37.467 205.279 37.2935C205.279 37.1651 205.261 37.0368 205.222 36.9084C205.188 36.7801 205.131 36.6621 205.051 36.5546C204.976 36.4471 204.876 36.3603 204.751 36.2944C204.627 36.2285 204.472 36.1956 204.29 36.1956C204.058 36.1956 203.87 36.2493 203.725 36.3569C203.58 36.4609 203.473 36.5962 203.404 36.7627C203.339 36.9293 203.305 37.1044 203.305 37.2883C203.305 37.4722 203.34 37.6473 203.409 37.8139C203.478 37.9804 203.585 38.1157 203.73 38.2197C203.879 38.3238 204.066 38.3758 204.295 38.3758Z" fill="white"/>
<path d="M212.92 39.1304V35.4463H214.635C214.798 35.4463 214.946 35.4636 215.08 35.4983C215.218 35.5295 215.338 35.5833 215.438 35.6596C215.542 35.7325 215.623 35.8314 215.682 35.9562C215.74 36.0777 215.77 36.232 215.77 36.4194C215.77 36.5616 215.737 36.6969 215.671 36.8252C215.606 36.9536 215.512 37.0524 215.391 37.1218C215.554 37.1843 215.683 37.2883 215.78 37.434C215.881 37.5763 215.93 37.7619 215.93 37.9908C215.93 38.2163 215.89 38.4036 215.806 38.5528C215.727 38.6985 215.616 38.8147 215.475 38.9014C215.337 38.9847 215.178 39.0437 214.998 39.0784C214.819 39.1131 214.63 39.1304 214.432 39.1304H212.92ZM213.759 38.3551H214.516C214.603 38.3551 214.68 38.3481 214.75 38.3343C214.821 38.3169 214.882 38.2944 214.931 38.2666C214.983 38.2354 215.02 38.1955 215.044 38.1469C215.072 38.0949 215.086 38.0359 215.086 37.97C215.086 37.9006 215.074 37.8434 215.049 37.7983C215.028 37.7532 214.996 37.7168 214.951 37.689C214.906 37.6578 214.853 37.637 214.79 37.6266C214.729 37.6127 214.657 37.6058 214.578 37.6058H213.759V38.3551ZM213.759 36.9137H214.428C214.51 36.9137 214.583 36.905 214.646 36.8877C214.711 36.8703 214.764 36.846 214.806 36.8148C214.847 36.7836 214.879 36.7454 214.899 36.7003C214.923 36.6552 214.936 36.6032 214.936 36.5442C214.936 36.4644 214.916 36.402 214.879 36.3569C214.845 36.3083 214.794 36.2754 214.729 36.258C214.663 36.2372 214.583 36.2268 214.49 36.2268H213.759V36.9137Z" fill="white"/>
<path d="M220.481 39.172C220.105 39.172 219.778 39.0939 219.501 38.9378C219.229 38.7782 219.018 38.558 218.87 38.277C218.722 37.9925 218.646 37.6647 218.646 37.2935C218.646 36.9119 218.723 36.5806 218.875 36.2996C219.03 36.0152 219.246 35.7949 219.522 35.6388C219.799 35.4792 220.126 35.3994 220.502 35.3994C220.872 35.3994 221.193 35.4775 221.466 35.6336C221.742 35.7897 221.957 36.0082 222.108 36.2892C222.264 36.5667 222.342 36.8946 222.342 37.2727C222.342 37.6439 222.265 37.9734 222.113 38.2614C221.962 38.5458 221.746 38.7696 221.466 38.9326C221.189 39.0922 220.861 39.172 220.481 39.172ZM220.497 38.3758C220.731 38.3758 220.921 38.3221 221.067 38.2145C221.211 38.107 221.318 37.97 221.383 37.8034C221.448 37.6369 221.482 37.467 221.482 37.2935C221.482 37.1651 221.462 37.0368 221.425 36.9084C221.39 36.7801 221.332 36.6621 221.253 36.5546C221.177 36.4471 221.077 36.3603 220.952 36.2944C220.829 36.2285 220.675 36.1956 220.492 36.1956C220.26 36.1956 220.071 36.2493 219.927 36.3569C219.782 36.4609 219.674 36.5962 219.605 36.7627C219.54 36.9293 219.508 37.1044 219.508 37.2883C219.508 37.4722 219.542 37.6473 219.611 37.8139C219.68 37.9804 219.786 38.1157 219.932 38.2197C220.08 38.3238 220.269 38.3758 220.497 38.3758Z" fill="white"/>
<path d="M226.863 39.172C226.483 39.172 226.159 39.0957 225.889 38.943C225.62 38.7904 225.414 38.5736 225.272 38.2926C225.134 38.0116 225.064 37.682 225.064 37.3039C225.064 36.9188 225.137 36.5841 225.283 36.2996C225.427 36.0152 225.633 35.7949 225.9 35.6388C226.169 35.4792 226.487 35.3994 226.852 35.3994C227.136 35.3994 227.391 35.4497 227.62 35.5503C227.848 35.6509 228.033 35.8001 228.173 35.9978C228.319 36.1921 228.407 36.4384 228.439 36.7367H227.636C227.594 36.5667 227.508 36.4349 227.381 36.3413C227.257 36.2441 227.088 36.1956 226.873 36.1956C226.642 36.1956 226.457 36.2493 226.319 36.3569C226.181 36.4609 226.081 36.5945 226.018 36.7575C225.96 36.9206 225.931 37.0906 225.931 37.2675C225.931 37.4513 225.961 37.6283 226.023 37.7982C226.09 37.9682 226.191 38.107 226.329 38.2145C226.471 38.3221 226.657 38.3758 226.889 38.3758C227.027 38.3758 227.148 38.355 227.252 38.3134C227.359 38.2718 227.447 38.2111 227.516 38.1313C227.585 38.0515 227.633 37.9561 227.661 37.8451H228.484C228.457 38.133 228.366 38.3758 228.21 38.5736C228.059 38.7713 227.863 38.9205 227.624 39.0211C227.39 39.1217 227.136 39.172 226.863 39.172Z" fill="white"/>
<path d="M232.121 39.1304V36.2268H231.018V35.4463H234.075V36.2268H232.961V39.1304H232.121Z" fill="white"/>
<path d="M238.385 39.172C238.009 39.172 237.682 39.0939 237.406 38.9378C237.133 38.7782 236.922 38.558 236.774 38.277C236.625 37.9925 236.551 37.6647 236.551 37.2935C236.551 36.9119 236.627 36.5806 236.779 36.2996C236.934 36.0152 237.15 35.7949 237.427 35.6388C237.703 35.4792 238.03 35.3994 238.406 35.3994C238.775 35.3994 239.097 35.4775 239.37 35.6336C239.646 35.7897 239.861 36.0082 240.013 36.2892C240.168 36.5667 240.246 36.8946 240.246 37.2727C240.246 37.6439 240.169 37.9734 240.018 38.2614C239.866 38.5458 239.65 38.7696 239.37 38.9326C239.094 39.0922 238.765 39.172 238.385 39.172ZM238.401 38.3758C238.636 38.3758 238.826 38.3221 238.971 38.2145C239.116 38.107 239.222 37.97 239.287 37.8034C239.353 37.6369 239.386 37.467 239.386 37.2935C239.386 37.1651 239.366 37.0368 239.328 36.9084C239.293 36.7801 239.237 36.6621 239.158 36.5546C239.081 36.4471 238.981 36.3603 238.857 36.2944C238.732 36.2285 238.579 36.1956 238.395 36.1956C238.165 36.1956 237.976 36.2493 237.831 36.3569C237.686 36.4609 237.578 36.5962 237.509 36.7627C237.444 36.9293 237.411 37.1044 237.411 37.2883C237.411 37.4722 237.445 37.6473 237.514 37.8139C237.583 37.9804 237.691 38.1157 237.836 38.2197C237.984 38.3238 238.173 38.3758 238.401 38.3758Z" fill="white"/>
<path d="M243.166 39.1304V35.4463H244.005V36.9189H244.523L245.394 35.4463H246.353L245.218 37.2259L246.348 39.1304H245.368L244.544 37.6942H244.005V39.1304H243.166Z" fill="white"/>
<path d="M248.744 39.1304L250.195 35.4463H251.086L252.522 39.1304H251.615L251.413 38.558H249.853L249.646 39.1304H248.744ZM250.117 37.7931H251.149L250.64 36.3673L250.117 37.7931Z" fill="white"/>
<mask id="mask1_1_15" style="mask-type:luminance" maskUnits="userSpaceOnUse" x="0" y="0" width="64" height="56">
<path d="M63.2906 0H0V56H63.2906V0Z" fill="white"/>
</mask>
<g mask="url(#mask1_1_15)">
<path d="M12.584 0.248047H9.62305V3.2215H12.584V0.248047Z" fill="#FF7E16"/>
<path d="M11.3513 4.58398H6.29297V9.66363H11.3513V4.58398Z" fill="white"/>
<path d="M18.6293 9.91113H11.8438V16.7253H18.6293V9.91113Z" fill="#FF7E16"/>
<path d="M7.64944 12.7607H4.31836V16.1059H7.64944V12.7607Z" fill="#FF7E16"/>
<path d="M6.53813 17.9648H1.72656V22.7967H6.53813V17.9648Z" fill="#FF7E16"/>
<path d="M11.5974 17.0977H8.01953V20.6906H11.5974V17.0977Z" fill="white"/>
<path d="M15.5459 25.3984H9.99414V30.9737H15.5459V25.3984Z" fill="white"/>
<path d="M2.83759 3.9646H0V6.81416H2.83759V3.9646Z" fill="#FF7E16"/>
<path d="M14.4355 8.30088V0H56.0124V17.8407H55.8274C55.7246 16.8702 54.9514 14.7186 52.4346 13.8761V3.46903H18.0134V8.30088H14.4355Z" fill="#FF7E16"/>
<path d="M14.4355 32.7695H18.0134V52.4067H52.4346V43.7961C52.743 43.5483 53.2982 42.3837 53.0515 39.7076C54.2852 39.3979 54.5319 39.5837 56.0124 38.7784V55.9996H14.4355V32.7695Z" fill="#FF7E16"/>
<path fill-rule="evenodd" clip-rule="evenodd" d="M20.1107 18.0884H14.4355V23.5397H17.6433V21.1857C30.4124 21.3096 31.5228 21.8671 31.5228 21.8671C31.5228 21.8671 22.8866 22.4866 21.1594 22.8583V24.7786H18.5069V30.6017C23.9353 27.876 32.3247 25.522 32.4481 25.522C32.4351 25.5416 32.4255 25.5571 32.4161 25.5722C32.3363 25.701 32.2693 25.8092 30.2274 28.2477C30.5254 31.3605 32.3211 33.8948 33.9446 36.186C34.0012 36.2658 34.0575 36.3454 34.1136 36.4247C34.522 34.3154 34.6201 33.9795 34.7665 33.4775C34.7749 33.4487 34.7834 33.4195 34.7922 33.3893C35.2567 31.7902 37.9246 30.5346 40.4196 29.3606C40.7273 29.2158 41.033 29.0719 41.331 28.9291H36.5194C41.378 26.1713 43.9308 25.5475 45.068 25.2696C45.2592 25.2229 45.4103 25.186 45.5257 25.1503C44.7237 26.0795 44.2919 27.2565 44.1686 27.6902C47.1295 25.5592 51.6533 24.9025 53.5449 24.8406C52.4227 23.338 52.0875 22.4398 51.9779 22.1459C51.961 22.1006 51.9494 22.0696 51.9411 22.053C57.1574 24.2808 58.9355 26.2745 59.5408 26.9534C59.5582 26.9729 59.5747 26.9914 59.5902 27.0087C57.6163 25.6707 55.8068 25.2123 55.1488 25.1503C56.1162 28.3505 56.7686 28.7566 57.5419 29.2381C57.6069 29.2785 57.6728 29.3195 57.7396 29.3627C57.3942 28.322 57.3078 27.6902 57.3078 27.5043C59.837 28.7432 59.4669 31.4512 58.85 32.3362C58.4182 32.9556 57.678 33.2034 57.3695 33.2034C53.73 33.5132 53.6683 31.0353 53.6683 30.7256C54.3592 30.676 56.0947 30.7875 56.876 30.8494C54.2852 28.4955 50.584 29.0633 50.2755 29.1149C45.8341 29.8583 43.8395 32.8937 43.2433 34.4424C45.8917 30.4267 49.1086 31.3723 51.348 32.0304C51.7686 32.154 52.1549 32.2675 52.4963 32.3362C52.7924 33.1291 53.73 33.6577 54.1618 33.8229C54.1618 35.4955 53.2982 36.4247 52.3112 37.168C55.9133 36.6936 56.689 35.311 57.1816 34.4329C57.2036 34.3937 57.2251 34.3555 57.2462 34.3185C59.763 34.0211 60.5155 31.9232 60.5772 30.9114C63.4765 28.3716 63.3531 27.8432 63.1681 27.5043C62.1194 25.584 54.6553 19.9468 54.3469 19.8229H51.6327C52.2249 19.2778 52.9898 18.9763 53.2982 18.8937C53.5106 17.0806 51.986 16.4068 50.4952 15.7479C50.2541 15.6414 50.0139 15.5352 49.7821 15.4247C38.1009 9.85568 34.4882 9.89603 33.2238 9.91015C33.1662 9.9108 33.1133 9.91138 33.0649 9.91138C34.4221 11.7698 34.2987 12.1415 34.237 12.1415C29.2344 8.12258 24.5324 8.22791 21.8459 8.28809C21.5509 8.2947 21.2802 8.30076 21.036 8.30076C20.7893 9.8866 21.2211 10.9438 21.4678 11.2742H20.1107V18.0884ZM44.477 20.1326C44.2302 18.8441 43.1816 17.696 42.6881 17.2831C47.5613 18.3362 49.1035 20.3804 49.597 21.0618C46.8672 20.075 45.587 20.1071 44.7728 20.1276C44.6671 20.1302 44.5692 20.1326 44.477 20.1326ZM35.7792 20.1326C35.8615 18.5633 36.4701 15.0654 38.2466 13.6282C38.2828 13.7008 38.3084 13.7948 38.3389 13.907C38.4124 14.1773 38.5147 14.5532 38.8635 14.991C39.0486 14.4955 39.4804 13.5663 40.4057 13.0087C41.7381 13.5043 42.359 13.7934 42.503 13.876C41.5777 14.2889 39.431 15.7096 38.2466 18.0884C38.178 17.8991 38.1191 17.748 38.0682 17.618C37.9361 17.2799 37.8594 17.0835 37.8148 16.7256C37.7931 16.7555 37.7709 16.7861 37.7482 16.8174C37.2561 17.4957 36.5458 18.4744 35.7792 20.1326ZM33.3117 14.991C31.1897 10.6795 25.8065 9.93203 23.3801 10.0972C24.4288 13.9999 27.2047 15.3008 28.8702 15.9822C28.3151 13.876 27.0196 12.6371 25.971 11.8317C30.9011 12.6953 31.8888 15.4849 32.4494 17.0681C32.4921 17.1885 32.5322 17.3019 32.5715 17.407C33.1266 16.3539 33.3734 15.053 33.3117 14.991Z" fill="#FF7E16"/>
<path d="M33.0647 41.3812C27.735 40.3405 21.6733 42.7233 19.3086 44.0449C20.0488 42.3099 20.6657 36.5488 20.9124 34.5046C22.6397 33.8232 23.5033 33.6373 25.1071 33.2656C24.1818 35.3099 23.75 36.7347 23.3799 38.8409C24.737 38.0356 27.3279 37.7258 28.5616 37.6639C27.1798 34.69 27.4512 31.0147 27.7597 29.5488C28.1915 32.1506 28.87 34.9382 30.844 36.8586C31.7693 37.6639 34.1751 38.5931 36.5192 39.2125C34.792 35.6196 37.7529 34.5665 40.8373 31.4692C40.7756 31.717 38.9071 35.0002 38.7399 35.7435C38.3081 37.6639 39.7886 39.7701 41.3924 42.186C42.8112 44.478 42.4411 46.3364 42.1944 47.4515C44.4151 47.5134 45.3404 46.9559 45.9573 46.5842C48.8565 44.3541 47.191 43.4869 46.6358 43.1152C43.9216 41.9258 43.1197 40.183 43.058 39.4603C42.6879 35.4957 46.0806 33.1417 46.204 33.0798C42.5645 37.6019 44.5385 39.7701 45.3404 40.5754C48.8565 43.301 50.152 40.4515 50.5221 39.7701C51.0649 42.0497 50.0492 43.1978 49.4734 43.4869C51.2006 48.5665 41.2691 50.4869 37.5679 49.5577C40.8373 47.6373 38.8633 43.5488 38.8016 43.4869C33.8667 41.3807 33.3115 41.4431 33.0647 41.3812Z" fill="white"/>
</g>
</g>
</g>
<defs>
<clipPath id="clip0_1_15">
<rect width="256" height="56" fill="white"/>
</clipPath>
</defs>
</svg>
