<svg width="513" height="452" viewBox="0 0 513 452" fill="none" xmlns="http://www.w3.org/2000/svg">
<g clip-path="url(#clip0_3025_1506)">
<mask id="mask0_3025_1506" style="mask-type:luminance" maskUnits="userSpaceOnUse" x="0" y="0" width="513" height="452">
<path d="M513 0H0V452H513V0Z" fill="white"/>
</mask>
<g mask="url(#mask0_3025_1506)">
<path d="M102 2H78V26H102V2Z" fill="#FF7E16"/>
<path d="M102 2H78V26H102V2Z" fill="#FF7E16"/>
<path d="M92 37H51V78H92V37Z" fill="#1C1C1C"/>
<path d="M92 37H51V78H92V37Z" fill="#1C1C1C"/>
<path d="M151 80H96V135H151V80Z" fill="#FF7E16"/>
<path d="M151 80H96V135H151V80Z" fill="#FF7E16"/>
<path d="M62 103H35V130H62V103Z" fill="#FF7E16"/>
<path d="M62 103H35V130H62V103Z" fill="#FF7E16"/>
<path d="M53 145H14V184H53V145Z" fill="#FF7E16"/>
<path d="M53 145H14V184H53V145Z" fill="#FF7E16"/>
<path d="M94 138H65V167H94V138Z" fill="#1C1C1C"/>
<path d="M94 138H65V167H94V138Z" fill="#1C1C1C"/>
<path d="M126 205H81V250H126V205Z" fill="#1C1C1C"/>
<path d="M126 205H81V250H126V205Z" fill="#1C1C1C"/>
<path d="M23 32H0V55H23V32Z" fill="#FF7E16"/>
<path d="M23 32H0V55H23V32Z" fill="#FF7E16"/>
<path d="M117 67V0H454V144C448 126 440 119 425 112V28H146V67H117Z" fill="#FF7E16"/>
<path d="M117 67V0H454V144C448 126 440 119 425 112V28H146V67H117Z" fill="#FF7E16"/>
<path d="M117 264.5H146V423H425C425 389.167 425 355.333 425 321.5C437 321.5 448 319 454 313V452H117V264.5Z" fill="#FF7E16"/>
<path d="M117 264.5H146V423H425C425 389.167 425 355.333 425 321.5C437 321.5 448 319 454 313V452H117V264.5Z" fill="#FF7E16"/>
<path fill-rule="evenodd" clip-rule="evenodd" d="M163 146.002H117V190.002H143V171.002C246.5 172.002 255.5 176.502 255.5 176.502C255.5 176.502 185.5 181.502 171.5 184.502V200.002H150V247.002C194 225.002 262 206.002 263 206.002C262.895 206.16 262.817 206.285 262.741 206.407C262.094 207.447 261.551 208.32 245 228.002C247.416 253.127 261.971 273.582 275.13 292.076C275.589 292.72 276.045 293.362 276.5 294.002C279.81 276.977 280.605 274.266 281.792 270.214C281.86 269.982 281.929 269.746 282 269.502C285.765 256.595 307.39 246.461 327.613 236.985C330.107 235.816 332.585 234.655 335 233.502H296C335.381 211.243 356.073 206.208 365.29 203.965C366.84 203.588 368.065 203.29 369 203.002C362.5 210.502 359 220.002 358 223.502C382 206.302 418.667 201.002 434 200.502C424.904 188.374 422.187 181.124 421.298 178.752C421.161 178.386 421.067 178.136 421 178.002C463.281 195.984 477.693 212.076 482.599 217.555C482.74 217.713 482.874 217.862 483 218.002C467 207.202 452.333 203.502 447 203.002C454.841 228.832 460.129 232.11 466.397 235.996C466.924 236.322 467.458 236.653 468 237.002C465.2 228.602 464.5 223.502 464.5 222.002C485 232.002 482 253.859 477 261.002C473.5 266.002 467.5 268.002 465 268.002C435.5 270.502 435 250.502 435 248.002C440.6 247.602 454.667 248.502 461 249.002C440 230.002 410 234.585 407.5 235.002C371.5 241.002 355.333 265.502 350.5 278.002C371.967 245.59 398.041 253.222 416.193 258.534C419.602 259.532 422.733 260.448 425.5 261.002C427.9 267.402 435.5 271.669 439 273.002C439 286.502 432 294.002 424 300.002C453.197 296.173 459.484 285.013 463.477 277.926C463.655 277.609 463.829 277.301 464 277.002C484.4 274.602 490.5 257.669 491 249.502C514.5 229.002 513.5 224.737 512 222.002C503.5 206.502 443 161.002 440.5 160.002H418.5C423.3 155.602 429.5 153.169 432 152.502C433.722 137.868 421.364 132.429 409.28 127.111C407.326 126.251 405.379 125.394 403.5 124.502C308.819 79.5523 279.536 79.878 269.288 79.992C268.821 79.9972 268.392 80.0019 268 80.0019C279 95.0019 278 98.0019 277.5 98.0019C236.952 65.5637 198.84 66.4139 177.064 66.8996C174.673 66.953 172.479 67.0019 170.5 67.0019C168.5 79.8019 172 88.3353 174 91.0019H163V146.002ZM360.5 162.502C358.5 152.102 350 142.835 346 139.502C385.5 148.002 398 164.502 402 170.002C379.874 162.037 369.497 162.296 362.898 162.461C362.041 162.482 361.247 162.502 360.5 162.502ZM290 162.502C290.667 149.835 295.6 121.602 310 110.002C310.293 110.588 310.501 111.347 310.748 112.252C311.344 114.434 312.173 117.468 315 121.002C316.5 117.002 320 109.502 327.5 105.002C338.3 109.002 343.333 111.335 344.5 112.002C337 115.335 319.6 126.802 310 146.002C309.444 144.474 308.966 143.255 308.554 142.205C307.483 139.476 306.861 137.891 306.5 135.002C306.324 135.244 306.144 135.491 305.96 135.743C301.971 141.218 296.214 149.118 290 162.502ZM270 121.002C252.8 86.2019 209.167 80.1686 189.5 81.5019C198 113.002 220.5 123.502 234 129.002C229.5 112.002 219 102.002 210.5 95.5019C250.461 102.472 258.467 124.988 263.011 137.767C263.357 138.739 263.682 139.654 264 140.502C268.5 132.002 270.5 121.502 270 121.002Z" fill="#FF7E16"/>
<path fill-rule="evenodd" clip-rule="evenodd" d="M163 146.002H117V190.002H143V171.002C246.5 172.002 255.5 176.502 255.5 176.502C255.5 176.502 185.5 181.502 171.5 184.502V200.002H150V247.002C194 225.002 262 206.002 263 206.002C262.895 206.16 262.817 206.285 262.741 206.407C262.094 207.447 261.551 208.32 245 228.002C247.416 253.127 261.971 273.582 275.13 292.076C275.589 292.72 276.045 293.362 276.5 294.002C279.81 276.977 280.605 274.266 281.792 270.214C281.86 269.982 281.929 269.746 282 269.502C285.765 256.595 307.39 246.461 327.613 236.985C330.107 235.816 332.585 234.655 335 233.502H296C335.381 211.243 356.073 206.208 365.29 203.965C366.84 203.588 368.065 203.29 369 203.002C362.5 210.502 359 220.002 358 223.502C382 206.302 418.667 201.002 434 200.502C424.904 188.374 422.187 181.124 421.298 178.752C421.161 178.386 421.067 178.136 421 178.002C463.281 195.984 477.693 212.076 482.599 217.555C482.74 217.713 482.874 217.862 483 218.002C467 207.202 452.333 203.502 447 203.002C454.841 228.832 460.129 232.11 466.397 235.996C466.924 236.322 467.458 236.653 468 237.002C465.2 228.602 464.5 223.502 464.5 222.002C485 232.002 482 253.859 477 261.002C473.5 266.002 467.5 268.002 465 268.002C435.5 270.502 435 250.502 435 248.002C440.6 247.602 454.667 248.502 461 249.002C440 230.002 410 234.585 407.5 235.002C371.5 241.002 355.333 265.502 350.5 278.002C371.967 245.59 398.041 253.222 416.193 258.534C419.602 259.532 422.733 260.448 425.5 261.002C427.9 267.402 435.5 271.669 439 273.002C439 286.502 432 294.002 424 300.002C453.197 296.173 459.484 285.013 463.477 277.926C463.655 277.609 463.829 277.301 464 277.002C484.4 274.602 490.5 257.669 491 249.502C514.5 229.002 513.5 224.737 512 222.002C503.5 206.502 443 161.002 440.5 160.002H418.5C423.3 155.602 429.5 153.169 432 152.502C433.722 137.868 421.364 132.429 409.28 127.111C407.326 126.251 405.379 125.394 403.5 124.502C308.819 79.5523 279.536 79.878 269.288 79.992C268.821 79.9972 268.392 80.0019 268 80.0019C279 95.0019 278 98.0019 277.5 98.0019C236.952 65.5637 198.84 66.4139 177.064 66.8996C174.673 66.953 172.479 67.0019 170.5 67.0019C168.5 79.8019 172 88.3353 174 91.0019H163V146.002ZM360.5 162.502C358.5 152.102 350 142.835 346 139.502C385.5 148.002 398 164.502 402 170.002C379.874 162.037 369.497 162.296 362.898 162.461C362.041 162.482 361.247 162.502 360.5 162.502ZM290 162.502C290.667 149.835 295.6 121.602 310 110.002C310.293 110.588 310.501 111.347 310.748 112.252C311.344 114.434 312.173 117.468 315 121.002C316.5 117.002 320 109.502 327.5 105.002C338.3 109.002 343.333 111.335 344.5 112.002C337 115.335 319.6 126.802 310 146.002C309.444 144.474 308.966 143.255 308.554 142.205C307.483 139.476 306.861 137.891 306.5 135.002C306.324 135.244 306.144 135.491 305.96 135.743C301.971 141.218 296.214 149.118 290 162.502ZM270 121.002C252.8 86.2019 209.167 80.1686 189.5 81.5019C198 113.002 220.5 123.502 234 129.002C229.5 112.002 219 102.002 210.5 95.5019C250.461 102.472 258.467 124.988 263.011 137.767C263.357 138.739 263.682 139.654 264 140.502C268.5 132.002 270.5 121.502 270 121.002Z" fill="#FF7E16"/>
<path d="M268 334.004C224.8 325.604 175.667 344.837 156.5 355.504C162.5 341.5 167.5 295 169.5 278.5C183.5 273 190.5 271.5 203.5 268.5C196 285 192.5 296.5 189.5 313.5C200.5 307 221.5 304.5 231.5 304C220.3 279.997 222.5 250.332 225 238.5C228.5 259.5 234 282 250 297.5C257.5 304 277 311.5 296 316.5C282 287.5 306 279 331 254C330.5 256 315.355 282.5 314 288.5C310.5 304 322.5 321 335.5 340.5C347 359 344 374 342 383C360 383.5 367.5 379 372.5 376C396 358 382.5 351 378 348C356 338.4 349.5 324.333 349 318.5C346 286.5 373.5 267.5 374.5 267C345 303.5 361 321 367.5 327.5C396 349.5 406.5 326.5 409.5 321C413.9 339.4 405.667 348.667 401 351C415 392 334.5 407.5 304.5 400C331 384.5 315 351.5 314.5 351C274.5 334 270 334.504 268 334.004Z" fill="#1C1C1C"/>
<path d="M268 334.004C224.8 325.604 175.667 344.837 156.5 355.504C162.5 341.5 167.5 295 169.5 278.5C183.5 273 190.5 271.5 203.5 268.5C196 285 192.5 296.5 189.5 313.5C200.5 307 221.5 304.5 231.5 304C220.3 279.997 222.5 250.332 225 238.5C228.5 259.5 234 282 250 297.5C257.5 304 277 311.5 296 316.5C282 287.5 306 279 331 254C330.5 256 315.355 282.5 314 288.5C310.5 304 322.5 321 335.5 340.5C347 359 344 374 342 383C360 383.5 367.5 379 372.5 376C396 358 382.5 351 378 348C356 338.4 349.5 324.333 349 318.5C346 286.5 373.5 267.5 374.5 267C345 303.5 361 321 367.5 327.5C396 349.5 406.5 326.5 409.5 321C413.9 339.4 405.667 348.667 401 351C415 392 334.5 407.5 304.5 400C331 384.5 315 351.5 314.5 351C274.5 334 270 334.504 268 334.004Z" fill="#1C1C1C"/>
</g>
</g>
<defs>
<clipPath id="clip0_3025_1506">
<rect width="513" height="452" fill="white"/>
</clipPath>
</defs>
</svg>
