<svg width="513" height="452" viewBox="0 0 513 452" fill="none" xmlns="http://www.w3.org/2000/svg">
<g clip-path="url(#clip0_3001_508)">
<rect x="78" y="2" width="24" height="24" fill="#FF7E16"/>
<rect x="78" y="2" width="24" height="24" fill="url(#paint0_linear_3001_508)"/>
<rect x="78.5" y="2.5" width="23" height="23" stroke="white" stroke-opacity="0.2" style="mix-blend-mode:overlay"/>
<rect x="51" y="37" width="41" height="41" fill="white"/>
<rect x="51" y="37" width="41" height="41" fill="url(#paint1_linear_3001_508)"/>
<rect x="51.5" y="37.5" width="40" height="40" stroke="white" stroke-opacity="0.3"/>
<rect x="96" y="80" width="55" height="55" fill="#FF7E16"/>
<rect x="96" y="80" width="55" height="55" fill="url(#paint2_linear_3001_508)"/>
<rect x="96.5" y="80.5" width="54" height="54" stroke="white" stroke-opacity="0.2" style="mix-blend-mode:overlay"/>
<rect x="35" y="103" width="27" height="27" fill="#FF7E16"/>
<rect x="35" y="103" width="27" height="27" fill="url(#paint3_linear_3001_508)"/>
<rect x="35.5" y="103.5" width="26" height="26" stroke="white" stroke-opacity="0.2" style="mix-blend-mode:overlay"/>
<rect x="14" y="145" width="39" height="39" fill="#FF7E16"/>
<rect x="14" y="145" width="39" height="39" fill="url(#paint4_linear_3001_508)"/>
<rect x="14.5" y="145.5" width="38" height="38" stroke="white" stroke-opacity="0.2" style="mix-blend-mode:overlay"/>
<rect x="65" y="138" width="29" height="29" fill="white"/>
<rect x="65" y="138" width="29" height="29" fill="url(#paint5_linear_3001_508)"/>
<rect x="65.5" y="138.5" width="28" height="28" stroke="white" stroke-opacity="0.3"/>
<rect x="81" y="205" width="45" height="45" fill="white"/>
<rect x="81" y="205" width="45" height="45" fill="url(#paint6_linear_3001_508)"/>
<rect x="81.5" y="205.5" width="44" height="44" stroke="white" stroke-opacity="0.3"/>
<rect y="32" width="23" height="23" fill="#FF7E16"/>
<rect y="32" width="23" height="23" fill="url(#paint7_linear_3001_508)"/>
<rect x="0.5" y="32.5" width="22" height="22" stroke="white" stroke-opacity="0.2" style="mix-blend-mode:overlay"/>
<path d="M117 67V0H454V144C448 126 440 119 425 112V28H146V67H117Z" fill="#FF7E16"/>
<path d="M117 67V0H454V144C448 126 440 119 425 112V28H146V67H117Z" fill="url(#paint8_linear_3001_508)"/>
<path d="M117 264.5H146V423H425C425 389.167 425 355.333 425 321.5C437 321.5 448 319 454 313V452H117V264.5Z" fill="#FF7E16"/>
<path d="M117 264.5H146V423H425C425 389.167 425 355.333 425 321.5C437 321.5 448 319 454 313V452H117V264.5Z" fill="url(#paint9_linear_3001_508)"/>
<path d="M145.5 265V423.5H425.5V321.996C436.803 321.931 447.297 319.638 453.5 314.154V451.5H117.5V265H145.5ZM453.5 0.5V141.064C450.699 133.476 447.432 127.953 443.237 123.531C438.61 118.654 432.884 115.15 425.5 111.683V27.5H145.5V66.5H117.5V0.5H453.5Z" stroke="white" stroke-opacity="0.3" style="mix-blend-mode:overlay"/>
<path fill-rule="evenodd" clip-rule="evenodd" d="M163 146.002H117V190.002H143V171.002C246.5 172.002 255.5 176.502 255.5 176.502C255.5 176.502 185.5 181.502 171.5 184.502V200.002H150V247.002C194 225.002 262 206.002 263 206.002C262.895 206.16 262.817 206.285 262.741 206.407C262.094 207.447 261.551 208.32 245 228.002C247.416 253.127 261.971 273.582 275.13 292.076C275.589 292.72 276.045 293.362 276.5 294.002C279.81 276.977 280.605 274.266 281.792 270.214C281.86 269.982 281.929 269.746 282 269.502C285.765 256.595 307.39 246.461 327.613 236.985C330.107 235.816 332.585 234.655 335 233.502H296C335.381 211.243 356.073 206.208 365.29 203.965C366.84 203.588 368.065 203.29 369 203.002C362.5 210.502 359 220.002 358 223.502C382 206.302 418.667 201.002 434 200.502C424.904 188.374 422.187 181.124 421.298 178.752C421.161 178.386 421.067 178.136 421 178.002C463.281 195.984 477.693 212.076 482.599 217.555C482.74 217.713 482.874 217.862 483 218.002C467 207.202 452.333 203.502 447 203.002C454.841 228.832 460.129 232.11 466.397 235.996C466.924 236.322 467.458 236.653 468 237.002C465.2 228.602 464.5 223.502 464.5 222.002C485 232.002 482 253.859 477 261.002C473.5 266.002 467.5 268.002 465 268.002C435.5 270.502 435 250.502 435 248.002C440.6 247.602 454.667 248.502 461 249.002C440 230.002 410 234.585 407.5 235.002C371.5 241.002 355.333 265.502 350.5 278.002C371.967 245.59 398.041 253.222 416.193 258.534C419.602 259.532 422.733 260.448 425.5 261.002C427.9 267.402 435.5 271.669 439 273.002C439 286.502 432 294.002 424 300.002C453.197 296.173 459.484 285.013 463.477 277.926C463.655 277.609 463.829 277.301 464 277.002C484.4 274.602 490.5 257.669 491 249.502C514.5 229.002 513.5 224.737 512 222.002C503.5 206.502 443 161.002 440.5 160.002H418.5C423.3 155.602 429.5 153.169 432 152.502C433.722 137.868 421.364 132.429 409.28 127.111C407.326 126.251 405.379 125.394 403.5 124.502C308.819 79.5523 279.536 79.878 269.288 79.992C268.821 79.9972 268.392 80.0019 268 80.0019C279 95.0019 278 98.0019 277.5 98.0019C236.952 65.5637 198.84 66.4139 177.064 66.8996C174.673 66.953 172.479 67.0019 170.5 67.0019C168.5 79.8019 172 88.3353 174 91.0019H163V146.002ZM360.5 162.502C358.5 152.102 350 142.835 346 139.502C385.5 148.002 398 164.502 402 170.002C379.874 162.037 369.497 162.296 362.898 162.461C362.041 162.482 361.247 162.502 360.5 162.502ZM290 162.502C290.667 149.835 295.6 121.602 310 110.002C310.293 110.588 310.501 111.347 310.748 112.252C311.344 114.434 312.173 117.468 315 121.002C316.5 117.002 320 109.502 327.5 105.002C338.3 109.002 343.333 111.335 344.5 112.002C337 115.335 319.6 126.802 310 146.002C309.444 144.474 308.966 143.255 308.554 142.205C307.483 139.476 306.861 137.891 306.5 135.002C306.324 135.244 306.144 135.491 305.96 135.743C301.971 141.218 296.214 149.118 290 162.502ZM270 121.002C252.8 86.2019 209.167 80.1686 189.5 81.5019C198 113.002 220.5 123.502 234 129.002C229.5 112.002 219 102.002 210.5 95.5019C250.461 102.472 258.467 124.988 263.011 137.767C263.357 138.739 263.682 139.654 264 140.502C268.5 132.002 270.5 121.502 270 121.002Z" fill="#FF7E16"/>
<path fill-rule="evenodd" clip-rule="evenodd" d="M163 146.002H117V190.002H143V171.002C246.5 172.002 255.5 176.502 255.5 176.502C255.5 176.502 185.5 181.502 171.5 184.502V200.002H150V247.002C194 225.002 262 206.002 263 206.002C262.895 206.16 262.817 206.285 262.741 206.407C262.094 207.447 261.551 208.32 245 228.002C247.416 253.127 261.971 273.582 275.13 292.076C275.589 292.72 276.045 293.362 276.5 294.002C279.81 276.977 280.605 274.266 281.792 270.214C281.86 269.982 281.929 269.746 282 269.502C285.765 256.595 307.39 246.461 327.613 236.985C330.107 235.816 332.585 234.655 335 233.502H296C335.381 211.243 356.073 206.208 365.29 203.965C366.84 203.588 368.065 203.29 369 203.002C362.5 210.502 359 220.002 358 223.502C382 206.302 418.667 201.002 434 200.502C424.904 188.374 422.187 181.124 421.298 178.752C421.161 178.386 421.067 178.136 421 178.002C463.281 195.984 477.693 212.076 482.599 217.555C482.74 217.713 482.874 217.862 483 218.002C467 207.202 452.333 203.502 447 203.002C454.841 228.832 460.129 232.11 466.397 235.996C466.924 236.322 467.458 236.653 468 237.002C465.2 228.602 464.5 223.502 464.5 222.002C485 232.002 482 253.859 477 261.002C473.5 266.002 467.5 268.002 465 268.002C435.5 270.502 435 250.502 435 248.002C440.6 247.602 454.667 248.502 461 249.002C440 230.002 410 234.585 407.5 235.002C371.5 241.002 355.333 265.502 350.5 278.002C371.967 245.59 398.041 253.222 416.193 258.534C419.602 259.532 422.733 260.448 425.5 261.002C427.9 267.402 435.5 271.669 439 273.002C439 286.502 432 294.002 424 300.002C453.197 296.173 459.484 285.013 463.477 277.926C463.655 277.609 463.829 277.301 464 277.002C484.4 274.602 490.5 257.669 491 249.502C514.5 229.002 513.5 224.737 512 222.002C503.5 206.502 443 161.002 440.5 160.002H418.5C423.3 155.602 429.5 153.169 432 152.502C433.722 137.868 421.364 132.429 409.28 127.111C407.326 126.251 405.379 125.394 403.5 124.502C308.819 79.5523 279.536 79.878 269.288 79.992C268.821 79.9972 268.392 80.0019 268 80.0019C279 95.0019 278 98.0019 277.5 98.0019C236.952 65.5637 198.84 66.4139 177.064 66.8996C174.673 66.953 172.479 67.0019 170.5 67.0019C168.5 79.8019 172 88.3353 174 91.0019H163V146.002ZM360.5 162.502C358.5 152.102 350 142.835 346 139.502C385.5 148.002 398 164.502 402 170.002C379.874 162.037 369.497 162.296 362.898 162.461C362.041 162.482 361.247 162.502 360.5 162.502ZM290 162.502C290.667 149.835 295.6 121.602 310 110.002C310.293 110.588 310.501 111.347 310.748 112.252C311.344 114.434 312.173 117.468 315 121.002C316.5 117.002 320 109.502 327.5 105.002C338.3 109.002 343.333 111.335 344.5 112.002C337 115.335 319.6 126.802 310 146.002C309.444 144.474 308.966 143.255 308.554 142.205C307.483 139.476 306.861 137.891 306.5 135.002C306.324 135.244 306.144 135.491 305.96 135.743C301.971 141.218 296.214 149.118 290 162.502ZM270 121.002C252.8 86.2019 209.167 80.1686 189.5 81.5019C198 113.002 220.5 123.502 234 129.002C229.5 112.002 219 102.002 210.5 95.5019C250.461 102.472 258.467 124.988 263.011 137.767C263.357 138.739 263.682 139.654 264 140.502C268.5 132.002 270.5 121.502 270 121.002Z" fill="url(#paint10_linear_3001_508)"/>
<path d="M346.105 139.013L345.68 139.886C347.647 141.525 350.743 144.644 353.593 148.643C356.444 152.643 359.027 157.493 360.009 162.597L360.087 163.002H360.5C361.255 163.002 362.054 162.982 362.91 162.961C369.458 162.797 379.772 162.531 401.831 170.473L403.361 171.023L402.404 169.708C400.386 166.933 396.222 161.384 387.596 155.465C378.973 149.549 365.911 143.275 346.105 139.013ZM327.243 104.573C320.096 108.862 316.525 115.809 314.854 119.991C312.521 116.839 311.782 114.137 311.23 112.12C310.988 111.232 310.767 110.419 310.447 109.778L310.17 109.224L309.687 109.612C302.369 115.507 297.498 125.584 294.372 135.704C291.242 145.84 289.836 156.107 289.501 162.476L290.453 162.713C296.554 149.572 302.21 141.738 306.185 136.283C306.571 138.521 307.173 140.054 308.089 142.388C308.501 143.437 308.977 144.652 309.53 146.173L309.928 147.266L310.447 146.226C319.983 127.155 337.279 115.758 344.703 112.459L345.605 112.058L344.748 111.567C343.541 110.878 338.471 108.532 327.674 104.533L327.448 104.449L327.243 104.573ZM230.848 87.2324C215.257 81.5136 199.36 80.3321 189.466 81.0029L188.858 81.0439L189.018 81.6318C197.581 113.365 220.271 123.948 233.812 129.465L234.74 129.844L234.483 128.874C230.225 112.785 220.637 102.914 212.415 96.3613C231.108 99.9625 242.447 107.063 249.672 114.797C257.159 122.812 260.269 131.547 262.54 137.935C262.885 138.905 263.212 139.825 263.532 140.678L263.922 141.718L264.441 140.736C266.714 136.443 268.352 131.655 269.358 127.881C269.862 125.993 270.21 124.351 270.4 123.143C270.495 122.54 270.553 122.035 270.569 121.657C270.578 121.47 270.577 121.298 270.562 121.155C270.554 121.084 270.541 121.006 270.518 120.931C270.503 120.885 270.477 120.817 270.431 120.746C261.754 103.218 246.432 92.9491 230.848 87.2324ZM439.5 272.657L439.178 272.535C437.47 271.885 434.739 270.507 432.143 268.506C429.542 266.501 427.122 263.904 425.968 260.826L425.87 260.566L425.598 260.512L424.553 260.29C422.075 259.735 419.322 258.929 416.333 258.055C407.271 255.402 396.117 252.131 384.526 253.626C373.953 254.99 363.067 260.31 353.058 273.522C359.673 260.486 375.883 240.778 407.582 235.495C408.807 235.291 416.882 234.048 427.257 235.218C437.264 236.346 449.372 239.716 459.546 248.392C452.715 247.883 440.201 247.129 434.965 247.503L434.5 247.536V248.002C434.5 249.283 434.626 255.046 438.54 260.18C442.481 265.348 450.163 269.755 465.021 268.501C466.374 268.495 468.565 267.966 470.849 266.824C473.154 265.671 475.601 263.872 477.409 261.289C479.993 257.598 482.011 250.213 480.807 242.496C479.596 234.743 475.129 226.631 464.719 221.553L464 221.202V222.002C464 223.498 464.645 228.202 467.095 235.841C466.949 235.75 466.805 235.66 466.661 235.571C463.542 233.638 460.727 231.891 457.702 227.446C454.717 223.06 451.521 216.029 447.703 203.585C453.49 204.331 467.489 208.135 482.721 218.416L483.372 217.667C483.247 217.528 483.113 217.38 482.972 217.222C478.021 211.694 463.551 195.555 421.195 177.542L419.945 177.01L420.553 178.226C420.605 178.329 420.687 178.546 420.83 178.928C421.714 181.286 424.358 188.325 433.034 200.04C425.237 200.375 412.681 201.851 399.128 205.255C385.479 208.683 370.783 214.075 358.912 222.25C360.293 218.074 363.67 209.915 369.378 203.329L370.521 202.011L368.853 202.524C367.935 202.807 366.727 203.101 365.172 203.479C355.916 205.732 335.18 210.782 295.754 233.066L294.1 234.002H332.776C331.005 234.84 329.208 235.685 327.4 236.532C317.297 241.267 306.804 246.183 298.367 251.534C289.954 256.871 283.458 262.717 281.52 269.362C281.449 269.605 281.379 269.841 281.312 270.073C280.145 274.054 279.358 276.751 276.232 292.764C276.001 292.438 275.769 292.112 275.537 291.786C262.401 273.325 247.979 253.036 245.519 228.16C261.918 208.657 262.496 207.747 263.165 206.671C263.241 206.549 263.315 206.43 263.416 206.279L263.935 205.502H263C262.929 205.502 262.849 205.517 262.811 205.524C262.754 205.535 262.683 205.55 262.601 205.569C262.435 205.607 262.209 205.664 261.926 205.736C261.358 205.882 260.551 206.097 259.529 206.379C257.485 206.942 254.572 207.772 250.968 208.835C243.76 210.961 233.786 214.025 222.468 217.777C200.083 225.198 172.42 235.317 150.5 246.196V200.502H172V184.91C179.33 183.428 199.876 181.472 218.792 179.875C228.415 179.063 237.601 178.344 244.382 177.828C247.772 177.57 250.561 177.364 252.502 177.222C253.472 177.15 254.23 177.095 254.746 177.058C255.004 177.039 255.202 177.024 255.335 177.015C255.401 177.01 255.452 177.006 255.485 177.004C255.502 177.003 255.514 177.003 255.522 177.002C255.527 177.002 255.53 177.001 255.532 177.001H255.535L257.355 176.871L255.724 176.055L255.5 176.502C255.716 176.069 255.722 176.055 255.722 176.054L255.714 176.05C255.71 176.048 255.706 176.046 255.701 176.044C255.692 176.04 255.68 176.034 255.666 176.028C255.637 176.016 255.598 176.001 255.545 175.981C255.44 175.943 255.28 175.89 255.046 175.825C254.578 175.695 253.805 175.512 252.564 175.291C250.082 174.85 245.706 174.255 238.104 173.629C222.899 172.377 194.76 171.002 143.005 170.502L142.5 170.497V189.502H117.5V146.502H163.5V91.502H175L174.4 90.7021C172.516 88.1895 169.09 79.9551 170.933 67.499C172.804 67.4927 174.858 67.4489 177.075 67.3994C198.825 66.9142 236.783 66.0694 277.188 98.3926L277.324 98.502H277.5C277.835 98.502 278.042 98.2575 278.137 98.0605C278.237 97.8532 278.278 97.5913 278.273 97.291C278.264 96.6863 278.067 95.7763 277.526 94.4395C276.479 91.8523 274.087 87.5382 268.976 80.4941C269.08 80.493 269.186 80.4934 269.294 80.4922C279.437 80.3794 308.642 80.0216 403.285 124.953C405.172 125.849 407.125 126.709 409.078 127.568C415.14 130.236 421.172 132.896 425.487 136.688C429.699 140.39 432.259 145.16 431.537 152.113C428.803 152.907 422.837 155.349 418.162 159.634L417.215 160.502H440.385C440.439 160.531 440.522 160.578 440.639 160.649C440.819 160.76 441.054 160.913 441.343 161.107C441.919 161.495 442.697 162.04 443.65 162.724C445.556 164.091 448.154 166.009 451.229 168.331C457.381 172.976 465.44 179.238 473.685 185.952C481.93 192.667 490.358 199.831 497.252 206.281C504.166 212.749 509.481 218.448 511.562 222.242C511.917 222.89 512.212 223.572 512.157 224.542C512.101 225.53 511.678 226.877 510.452 228.824C507.994 232.728 502.418 238.877 490.671 249.125L490.514 249.263L490.501 249.472C490.009 257.505 484.007 274.144 463.941 276.505L463.691 276.535L463.565 276.754C463.394 277.054 463.22 277.364 463.042 277.68C461.051 281.213 458.525 285.694 452.896 289.781C447.508 293.695 439.237 297.271 425.804 299.244C433.225 293.377 439.5 285.867 439.5 273.002V272.657Z" stroke="white" stroke-opacity="0.2" style="mix-blend-mode:overlay"/>
<path d="M268 334.004C224.8 325.604 175.667 344.837 156.5 355.504C162.5 341.5 167.5 295 169.5 278.5C183.5 273 190.5 271.5 203.5 268.5C196 285 192.5 296.5 189.5 313.5C200.5 307 221.5 304.5 231.5 304C220.3 279.997 222.5 250.332 225 238.5C228.5 259.5 234 282 250 297.5C257.5 304 277 311.5 296 316.5C282 287.5 306 279 331 254C330.5 256 315.355 282.5 314 288.5C310.5 304 322.5 321 335.5 340.5C347 359 344 374 342 383C360 383.5 367.5 379 372.5 376C396 358 382.5 351 378 348C356 338.4 349.5 324.333 349 318.5C346 286.5 373.5 267.5 374.5 267C345 303.5 361 321 367.5 327.5C396 349.5 406.5 326.5 409.5 321C413.9 339.4 405.667 348.667 401 351C415 392 334.5 407.5 304.5 400C331 384.5 315 351.5 314.5 351C274.5 334 270 334.504 268 334.004Z" fill="white"/>
<path d="M268 334.004C224.8 325.604 175.667 344.837 156.5 355.504C162.5 341.5 167.5 295 169.5 278.5C183.5 273 190.5 271.5 203.5 268.5C196 285 192.5 296.5 189.5 313.5C200.5 307 221.5 304.5 231.5 304C220.3 279.997 222.5 250.332 225 238.5C228.5 259.5 234 282 250 297.5C257.5 304 277 311.5 296 316.5C282 287.5 306 279 331 254C330.5 256 315.355 282.5 314 288.5C310.5 304 322.5 321 335.5 340.5C347 359 344 374 342 383C360 383.5 367.5 379 372.5 376C396 358 382.5 351 378 348C356 338.4 349.5 324.333 349 318.5C346 286.5 373.5 267.5 374.5 267C345 303.5 361 321 367.5 327.5C396 349.5 406.5 326.5 409.5 321C413.9 339.4 405.667 348.667 401 351C415 392 334.5 407.5 304.5 400C331 384.5 315 351.5 314.5 351C274.5 334 270 334.504 268 334.004Z" fill="url(#paint11_linear_3001_508)"/>
<path d="M224.977 241.332C228.508 261.542 234.226 282.915 249.652 297.859L249.662 297.869L249.673 297.878C253.489 301.186 260.305 304.711 268.5 308.026C276.71 311.348 286.356 314.479 295.873 316.983L296.922 317.26L296.45 316.282C292.978 309.091 291.887 303.221 292.543 298.079C293.199 292.938 295.61 288.462 299.26 284.069C302.916 279.669 307.79 275.383 313.342 270.613C318.297 266.356 323.78 261.721 329.364 256.309C328.953 257.112 328.453 258.075 327.881 259.157C326.375 262.007 324.384 265.709 322.378 269.517C320.368 273.33 318.329 277.275 316.707 280.643C315.095 283.989 313.866 286.824 313.513 288.39C311.726 296.303 313.905 304.554 318.112 313.219C321.267 319.716 325.585 326.493 330.285 333.582L335.084 340.777C346.47 359.103 343.502 373.936 341.512 382.892L341.381 383.483L341.986 383.5C351.03 383.751 357.46 382.747 362.27 381.291C367.081 379.835 370.25 377.933 372.757 376.429L372.781 376.414L372.804 376.396C384.564 367.389 387.311 360.959 386.237 356.264C385.705 353.934 384.247 352.13 382.676 350.735C381.11 349.346 379.375 348.316 378.277 347.584L378.24 347.56L378.2 347.542L377.186 347.091C356.125 337.562 349.971 323.975 349.498 318.457V318.453L349.434 317.713C348.202 302.221 354.176 289.849 360.649 281.238C363.937 276.865 367.35 273.467 370.002 271.133C370.665 270.549 371.281 270.033 371.834 269.584C358.957 286.444 355.918 299.158 357.003 308.558C358.148 318.484 363.879 324.586 367.146 327.854L367.169 327.876L367.194 327.896C374.361 333.428 380.436 336.163 385.581 337.032C390.737 337.903 394.93 336.896 398.308 334.998C404.2 331.687 407.57 325.676 409.306 322.423C412.971 339.752 405.103 348.389 400.776 350.553L400.386 350.748L400.526 351.161C403.964 361.229 401.609 369.704 395.666 376.684C389.699 383.691 380.104 389.2 369.079 393.218C358.063 397.232 345.669 399.74 334.158 400.775C323.239 401.758 313.15 401.411 305.804 399.791C318.359 391.896 320.862 379.931 320.124 369.839C319.745 364.66 318.514 359.96 317.349 356.526C316.766 354.809 316.197 353.405 315.758 352.411C315.538 351.915 315.35 351.519 315.207 351.236C315.136 351.096 315.075 350.981 315.025 350.894C315.001 350.851 314.977 350.81 314.955 350.776C314.941 350.754 314.903 350.696 314.854 350.646L314.785 350.578L314.695 350.54L311.048 348.996C293.317 341.529 283.15 337.778 277.154 335.839C270.767 333.773 269.05 333.751 268.121 333.519L268.096 333.513L267.077 333.32C245.674 329.38 222.919 332.097 203.114 337.119C183.818 342.012 167.287 349.102 157.479 354.397C158.81 350.854 160.082 345.817 161.271 339.984C162.618 333.385 163.869 325.733 164.995 318.01C167.219 302.748 168.955 287.178 169.96 278.857C183.385 273.599 190.339 272.046 202.629 269.214C195.397 285.264 191.959 296.69 189.008 313.413L188.818 314.483L189.754 313.931C195.177 310.726 203.107 308.489 210.969 306.991C218.818 305.496 226.545 304.748 231.525 304.499L232.268 304.462L231.953 303.789C221.597 281.595 222.761 254.493 224.977 241.332Z" stroke="white" stroke-opacity="0.5"/>
</g>
<defs>
<linearGradient id="paint0_linear_3001_508" x1="90.6716" y1="2" x2="90.6716" y2="26" gradientUnits="userSpaceOnUse">
<stop stop-color="#FF7100"/>
<stop offset="1" stop-color="#E43D00"/>
</linearGradient>
<linearGradient id="paint1_linear_3001_508" x1="92" y1="37" x2="51" y2="78" gradientUnits="userSpaceOnUse">
<stop stop-color="white"/>
<stop offset="1" stop-color="#AEAEAE"/>
</linearGradient>
<linearGradient id="paint2_linear_3001_508" x1="125.039" y1="80" x2="125.039" y2="135" gradientUnits="userSpaceOnUse">
<stop stop-color="#FF7100"/>
<stop offset="1" stop-color="#E43D00"/>
</linearGradient>
<linearGradient id="paint3_linear_3001_508" x1="49.2555" y1="103" x2="49.2555" y2="130" gradientUnits="userSpaceOnUse">
<stop stop-color="#FF7100"/>
<stop offset="1" stop-color="#E43D00"/>
</linearGradient>
<linearGradient id="paint4_linear_3001_508" x1="34.5913" y1="145" x2="34.5913" y2="184" gradientUnits="userSpaceOnUse">
<stop stop-color="#FF7100"/>
<stop offset="1" stop-color="#E43D00"/>
</linearGradient>
<linearGradient id="paint5_linear_3001_508" x1="93.5" y1="138" x2="65" y2="167" gradientUnits="userSpaceOnUse">
<stop stop-color="white"/>
<stop offset="1" stop-color="#969696"/>
</linearGradient>
<linearGradient id="paint6_linear_3001_508" x1="126" y1="205" x2="81" y2="250" gradientUnits="userSpaceOnUse">
<stop stop-color="white"/>
<stop offset="1" stop-color="#909090"/>
</linearGradient>
<linearGradient id="paint7_linear_3001_508" x1="12.1436" y1="32" x2="12.1436" y2="55" gradientUnits="userSpaceOnUse">
<stop stop-color="#FF7100"/>
<stop offset="1" stop-color="#E43D00"/>
</linearGradient>
<linearGradient id="paint8_linear_3001_508" x1="454" y1="0" x2="117" y2="452" gradientUnits="userSpaceOnUse">
<stop stop-color="#FF7100"/>
<stop offset="1" stop-color="#E43D00"/>
</linearGradient>
<linearGradient id="paint9_linear_3001_508" x1="454" y1="0" x2="117" y2="452" gradientUnits="userSpaceOnUse">
<stop stop-color="#FF7100"/>
<stop offset="1" stop-color="#E43D00"/>
</linearGradient>
<linearGradient id="paint10_linear_3001_508" x1="325.903" y1="66.7656" x2="325.903" y2="300.002" gradientUnits="userSpaceOnUse">
<stop stop-color="#FF7100"/>
<stop offset="1" stop-color="#E43D00"/>
</linearGradient>
<linearGradient id="paint11_linear_3001_508" x1="329" y1="250.5" x2="157" y2="402" gradientUnits="userSpaceOnUse">
<stop stop-color="white"/>
<stop offset="1" stop-color="#717171"/>
</linearGradient>
<clipPath id="clip0_3001_508">
<rect width="513" height="452" fill="white"/>
</clipPath>
</defs>
</svg>
