<svg width="56" height="56" viewBox="0 0 56 56" fill="none" xmlns="http://www.w3.org/2000/svg">
<rect width="56" height="56" rx="12" fill="#F1F1F1"/>
<path d="M21.5833 20.6673C21.5833 20.1811 21.7765 19.7148 22.1203 19.371C22.4641 19.0271 22.9304 18.834 23.4167 18.834H34.4167C34.9029 18.834 35.3692 19.0271 35.713 19.371C36.0568 19.7148 36.25 20.1811 36.25 20.6673V35.334C36.25 35.8202 36.0568 36.2865 35.713 36.6303C35.3692 36.9742 34.9029 37.1673 34.4167 37.1673H32.2167M24.3333 33.5007H24.3425M21.5833 24.334H27.0833C28.0959 24.334 28.9167 25.1548 28.9167 26.1673V35.334C28.9167 36.3465 28.0959 37.1673 27.0833 37.1673H21.5833C20.5708 37.1673 19.75 36.3465 19.75 35.334V26.1673C19.75 25.1548 20.5708 24.334 21.5833 24.334Z" stroke="#1C1C1C" stroke-width="2" stroke-linecap="round" stroke-linejoin="round"/>
</svg>
