<svg width="850" height="383" viewBox="0 0 850 383" fill="none" xmlns="http://www.w3.org/2000/svg">
<path d="M805 0H45C20.1472 0 0 20.1472 0 45V338C0 362.853 20.1472 383 45 383H805C829.853 383 850 362.853 850 338V45C850 20.1472 829.853 0 805 0Z" fill="#E96700"/>
<path opacity="0.2" d="M516.775 112.965C532.775 96.9503 532.775 70.9864 516.775 54.9724C500.775 38.9584 474.834 38.9584 458.834 54.9724C442.834 70.9864 442.834 96.9503 458.834 112.965C474.834 128.979 500.775 128.979 516.775 112.965Z" fill="white"/>
<path opacity="0.2" d="M169.056 263.778C179.459 290.895 195.281 316.048 214.767 338.267H588.777C588.777 338.267 603.767 317.678 607.955 308.895C629.612 263.516 623.398 198.244 578.401 168.854C548.766 149.496 514.254 158.46 482.212 148.817C460.437 142.262 440.499 129.64 425.247 112.763C408.376 94.0936 399.284 69.8918 382.892 50.8146C364.176 29.0302 333.472 22.1309 305.89 22.3754C220.936 23.1269 162.588 92.7717 156.111 173.888C154.383 195.51 156.056 217.439 161.185 238.517C163.275 247.091 165.89 255.539 169.056 263.778Z" fill="white"/>
<path d="M589.293 365.99H67.9269C59.5589 365.99 52.7739 359.199 52.7739 350.824C52.7739 342.449 59.5589 335.658 67.9269 335.658H589.293C597.661 335.658 604.445 342.449 604.445 350.824C604.445 359.199 597.661 365.99 589.293 365.99Z" fill="#FFA04D"/>
<path d="M295.523 220.67L416.626 280.844L507.243 335.939H295.523V220.67Z" fill="url(#paint0_linear_3022_1502)"/>
<path style="mix-blend-mode:soft-light" d="M375.882 283.217L455.824 335.94H507.243L416.626 280.845L295.523 220.662V267.3H322.843C341.696 267.3 360.141 272.832 375.882 283.217Z" fill="url(#paint1_linear_3022_1502)"/>
<path d="M359.888 285.236C354.813 275.53 349.53 266.403 342.808 257.72C336.377 249.408 329.176 241.74 321.658 234.406C319.813 232.604 316.954 235.465 318.836 237.231C334.133 251.627 347.965 267.888 359.58 285.408C359.707 285.598 359.996 285.435 359.888 285.227V285.236Z" fill="#522C1F"/>
<path d="M333.572 261.448C331.871 257.645 330.56 253.625 328.298 250.112C326.227 246.907 323.929 243.829 321.486 240.904C318.98 237.898 316.212 235.128 313.281 232.538C310.712 230.256 307.537 226.852 304.063 226.2C302.688 225.938 301.367 227.332 302.172 228.663C303.973 231.678 307.537 233.38 310.187 235.635C312.983 238.007 315.606 240.569 318.148 243.204C323.458 248.709 329.04 255.228 332.957 261.81C333.201 262.218 333.753 261.865 333.572 261.448Z" fill="#522C1F"/>
<path d="M354.967 257.927C362.095 266.365 369.061 275.238 375.62 284.147C378.641 288.258 381.545 292.441 384.304 296.733C386.638 300.354 388.728 306.24 392.59 308.367C393.341 308.784 394.228 308.259 394.255 307.408C394.418 302.944 390.202 298.236 387.895 294.632C384.865 289.888 381.672 285.234 378.288 280.734C371.594 271.852 364.348 264.192 356.025 256.876C355.293 256.233 354.343 257.202 354.967 257.936V257.927Z" fill="#522C1F"/>
<path d="M379.039 275.866C382.232 282.267 386.891 287.763 391.224 293.431C394.626 297.877 398.262 304.604 403.057 307.574C403.681 307.963 404.531 307.32 404.314 306.605C402.641 301.163 397.095 296.02 393.631 291.566C389.252 285.934 385.118 280.031 379.735 275.323C379.356 274.988 378.804 275.404 379.039 275.866Z" fill="#522C1F"/>
<path d="M394.915 289.572C397.892 293.99 400.949 298.364 404.224 302.565C405.02 303.588 406.838 302.203 406.042 301.161C404.387 299.016 402.659 295.675 400.253 294.325C399.855 294.099 399.438 294.47 399.52 294.887C400.026 297.513 402.559 300.12 404.043 302.32C404.712 301.931 405.373 301.542 406.042 301.152C402.985 296.788 399.701 292.596 396.345 288.458C395.693 287.662 394.336 288.703 394.915 289.563V289.572Z" fill="#522C1F"/>
<path d="M394.065 271.237C406.35 274.859 411.986 286.992 419.223 296.399C425.03 303.95 432.186 310.279 441.133 313.729C443.874 314.788 445.068 310.361 442.345 309.319C431.155 305.028 424.035 295.457 417.115 286.186C411.19 278.236 404.613 270.875 394.273 269.626C393.332 269.508 393.196 270.984 394.056 271.237H394.065Z" fill="#522C1F"/>
<path d="M417.784 288.784C421.72 293.918 426.722 296.507 432.566 299.079C435.488 300.364 438.446 301.568 441.232 303.135C444.2 304.801 446.606 307.617 449.664 308.993C450.306 309.283 450.993 308.812 450.84 308.087C449.691 302.682 441.983 299.676 437.505 297.729C431.191 294.977 424.144 292.623 419.033 287.806C418.4 287.209 417.196 288.023 417.775 288.784H417.784Z" fill="#522C1F"/>
<path d="M355.428 269.226C362.593 275.383 364.366 284.799 368.446 292.875C371.042 298.027 376.587 305.714 383.173 305.243C384.53 305.144 385.1 303.405 383.879 302.645C380.622 300.626 377.564 299.621 374.968 296.533C372.109 293.129 370.363 288.864 368.636 284.826C365.759 278.099 362.936 271.806 356.45 267.904C355.654 267.424 354.695 268.592 355.437 269.226H355.428Z" fill="#522C1F"/>
<path d="M364.917 282.409C365.107 290.757 366.899 298.988 371.576 306.041C372.598 307.58 374.85 306.249 374.045 304.601C370.535 297.412 367.586 290.187 366.464 282.201C366.338 281.314 364.899 281.54 364.927 282.409H364.917Z" fill="#522C1F"/>
<path d="M312.286 257.975L372.598 307.302L502.087 317.361C519.971 318.746 535.495 330.209 542.108 346.896H311.635L312.286 257.975Z" fill="url(#paint2_linear_3022_1502)"/>
<path d="M473.319 336.184H311.716L311.635 346.895H514.046C501.616 339.869 487.585 336.184 473.319 336.184Z" fill="url(#paint3_linear_3022_1502)"/>
<path style="mix-blend-mode:soft-light" d="M359.897 317.469L489.386 327.528C503.335 328.615 515.837 335.849 523.807 346.886H542.117C535.504 330.199 519.971 318.746 502.096 317.351L372.607 307.292L312.295 257.965L312.15 278.4L359.906 317.46L359.897 317.469Z" fill="url(#paint4_linear_3022_1502)"/>
<path d="M333.816 295.241C333.518 289.709 333.011 285.046 330.903 279.831C328.886 274.815 326.308 270.134 323.214 265.707C321.45 263.171 317.261 265.679 319.089 268.124C325.114 276.182 329.827 285.834 333.11 295.341C333.237 295.703 333.834 295.667 333.807 295.25L333.816 295.241Z" fill="#522C1F"/>
<path d="M370.535 333.216C371.91 328.489 373.168 324.125 373.068 319.145C372.996 315.325 373.195 310.109 370.752 307.031C370.3 306.461 369.468 306.868 369.26 307.429C367.903 311.16 369.83 315.868 370.074 319.788C370.345 324.198 370.363 328.743 369.83 333.116C369.775 333.523 370.418 333.587 370.526 333.207L370.535 333.216Z" fill="#522C1F"/>
<path d="M377.265 330.598C378.288 324.061 378.631 317.424 376.198 311.086C375.546 309.384 373.086 310.018 373.448 311.847C374.678 318.031 376.424 324.188 376.741 330.535C376.759 330.815 377.22 330.924 377.265 330.607V330.598Z" fill="#522C1F"/>
<path d="M427.31 320.957C427.626 325.502 427.68 331.324 429.68 335.461C430.44 337.037 432.584 336.095 432.701 334.638C432.882 332.41 432.149 330.011 431.67 327.829C431.136 325.384 430.458 323.003 429.725 320.622C429.336 319.345 427.21 319.508 427.31 320.948V320.957Z" fill="#522C1F"/>
<path d="M428.413 313.315C430.349 316.348 431.905 319.68 433.353 322.975C434.954 326.633 435.533 330.545 436.971 334.221C437.496 335.552 439.604 335.479 439.604 333.868C439.576 325.954 434.483 318.195 429.39 312.563C428.92 312.038 428.024 312.717 428.413 313.324V313.315Z" fill="#522C1F"/>
<path d="M434.51 312.807C436.211 314.609 437.668 316.52 439.097 318.539C440.21 320.114 441.368 322.196 443.186 323.02C443.711 323.256 444.371 322.984 444.371 322.341C444.344 320.186 442.706 318.339 441.331 316.809C439.631 314.926 437.65 313.224 435.732 311.585C434.899 310.879 433.751 311.983 434.52 312.798L434.51 312.807Z" fill="#522C1F"/>
<path d="M508.826 331.741C511.992 333.833 514.787 336.368 517.357 339.156C518.578 340.487 519.718 341.882 520.722 343.385C521.699 344.833 522.359 346.527 523.707 347.649C524.494 348.301 526.122 347.975 525.996 346.699C525.643 343.222 522.251 339.718 519.917 337.282C517.013 334.249 513.485 332.013 509.703 330.229C508.69 329.749 507.867 331.116 508.817 331.741H508.826Z" fill="#522C1F"/>
<path d="M520.532 330.753C525.607 334.13 529.542 339.427 531.758 345.077C532.564 347.123 535.893 346.254 535.097 344.153C532.518 337.344 527.805 332.555 521.283 329.458C520.414 329.051 519.718 330.21 520.523 330.753H520.532Z" fill="#522C1F"/>
<path d="M470.352 315.688C473.365 317.599 476.449 319.681 478.928 322.271C480.231 323.629 481.307 325.15 482.402 326.68C483.153 327.731 483.605 328.618 484.917 328.944C485.423 329.071 485.831 328.781 486.011 328.319C487.178 325.385 482.945 321.311 481.072 319.518C478.168 316.748 475.038 314.783 471.103 313.905C470.018 313.66 469.393 315.091 470.343 315.698L470.352 315.688Z" fill="#522C1F"/>
<path d="M488.164 315.968C490.127 317.905 491.9 319.97 493.619 322.134C495.166 324.08 496.55 326.28 498.576 327.765C499.02 328.091 499.59 327.557 499.472 327.077C498.169 322.161 492.787 318.159 489.005 315.144C488.426 314.682 487.621 315.433 488.173 315.977L488.164 315.968Z" fill="#522C1F"/>
<path d="M335.634 328.262C340.438 320.729 343.233 313.223 343.921 304.223C344.581 295.594 343.17 286.604 339.732 278.663C338.755 276.418 334.911 278.02 335.752 280.338C341.415 295.784 341.632 312.707 335.182 328.063C335.064 328.334 335.49 328.479 335.634 328.253V328.262Z" fill="#522C1F"/>
<path d="M345.531 314.961C347.25 309.148 348.01 303.534 347.214 297.459C346.662 293.294 346.137 286.603 342.229 284.24C341.587 283.851 340.619 284.204 340.447 284.964C339.551 289.039 342.627 293.883 343.477 297.966C344.626 303.48 345.278 309.284 345.178 314.915C345.178 315.124 345.468 315.151 345.531 314.961Z" fill="#522C1F"/>
<path d="M351.809 318.811C355.057 312.347 355.012 304.877 353.899 297.86C353.809 297.271 353.203 296.764 352.66 296.619C351.592 296.33 351.782 296.321 350.932 297.081C350.452 297.507 350.335 298.213 350.471 298.811C351.99 305.52 351.484 311.849 351.149 318.63C351.131 318.974 351.656 319.128 351.818 318.811H351.809Z" fill="#522C1F"/>
<path d="M354.071 310.897C355.554 309.33 356.233 307.003 356.938 305.002C357.291 304.006 358.648 301.39 356.975 300.783C355.382 300.204 354.894 302.648 354.604 303.644C353.971 305.835 353.03 308.298 353.338 310.607C353.383 310.951 353.79 311.204 354.071 310.906V310.897Z" fill="#522C1F"/>
<path d="M354.74 295.733C355.156 301.347 356.251 306.852 356.414 312.501C356.558 317.59 355.59 322.85 356.92 327.83C357.002 328.129 357.382 328.147 357.535 327.912C360.647 323.212 360.421 317.074 360.132 311.659C359.833 306.091 358.974 300.305 356.595 295.235C356.178 294.348 354.659 294.773 354.731 295.742L354.74 295.733Z" fill="#522C1F"/>
<path d="M403.373 312.275C406.865 315.145 409.878 318.55 412.184 322.452C414.337 326.083 414.971 330.411 417.087 333.933C417.766 335.064 419.25 334.467 419.385 333.308C419.883 329.016 416.861 323.747 414.545 320.297C411.904 316.377 408.53 313.271 404.585 310.7C403.654 310.093 402.487 311.542 403.373 312.266V312.275Z" fill="#522C1F"/>
<path d="M184.968 114.32L130.256 147.504C130.256 147.504 110.436 154.648 99.3362 176.07C88.2362 197.501 41.8472 230.431 43.0412 257.014C44.2262 283.597 46.6052 357.208 114.009 346.895H341.171L267.253 114.32H184.968Z" fill="url(#paint5_linear_3022_1502)"/>
<path d="M270.022 341.237C244.882 338.665 219.589 334.844 195.308 327.682C174.122 321.435 154.211 311.322 136.299 298.428C118.894 285.897 103.28 270.831 89.1948 254.688C79.1898 243.216 69.8448 230.232 65.7288 215.564C53.2538 229.508 42.4618 244.022 43.0408 257.015C44.2258 283.598 46.6048 357.208 114.009 346.895H341.171C317.424 345.8 293.678 343.645 270.031 341.237H270.022Z" fill="url(#paint6_linear_3022_1502)"/>
<path style="mix-blend-mode:soft-light" d="M47.9711 276.336C52.1781 259.296 62.9701 240.472 76.7381 229.39C80.4111 226.429 84.4731 223.939 87.9191 220.716C91.7371 217.149 94.5321 212.73 96.9571 208.14C101.308 199.91 104.927 191.688 110.743 184.336C122.684 169.234 139.411 158.677 154.564 147.142C169.779 135.561 185.104 124.108 201.541 114.32H184.95L130.238 147.504C130.238 147.504 110.418 154.648 99.3181 176.07C88.2181 197.501 41.8291 230.431 43.0231 257.014C43.3751 264.864 43.8461 276.734 46.0441 289.283C46.2791 285.019 46.8851 280.7 47.9621 276.327L47.9711 276.336Z" fill="url(#paint7_linear_3022_1502)"/>
<path d="M317.479 271.672L277.105 145.176H182.182C182.571 151.985 181.893 158.902 181.015 164.878C178.699 180.514 173.452 195.553 170.178 211.018C166.876 226.6 165.582 242.608 166.342 258.516C166.776 267.516 167.925 276.715 172.132 284.683C178.862 297.449 192.269 305.091 201.731 315.983C209.013 324.367 213.844 336.934 218.774 346.894C219.001 347.356 219.236 346.432 219.471 346.894H317.488V271.672H317.479Z" fill="url(#paint8_linear_3022_1502)"/>
<g style="mix-blend-mode:multiply">
<path d="M174.755 188.936C183.431 202.372 195.127 215.791 208.95 224.057C219.073 230.114 229.965 233.111 241.155 234.08C262.595 233.401 282.153 224.872 298.255 211.436L267.263 114.32H186.778C175.388 123.076 164.994 136.376 160.408 150.256C162.253 164.073 167.12 177.111 174.764 188.945L174.755 188.936Z" fill="#E5D6CE"/>
</g>
<path d="M122.938 278.146C118.84 271.211 115.33 263.614 111.829 256.344C108.066 248.539 104.963 240.418 102.502 232.115C100.132 224.156 98.4588 215.962 97.7438 207.687C97.3818 203.486 97.2648 199.257 97.4358 195.047C97.5988 191.054 98.6118 187.396 97.0658 183.63C96.6668 182.643 95.2918 181.937 94.4418 182.933C89.6838 188.546 91.1128 199.257 91.6018 206.193C92.2438 215.265 94.0348 224.238 96.6668 232.93C99.2368 241.432 102.719 249.644 106.799 257.53C110.961 265.579 115.972 272.162 121.681 279.106C122.269 279.821 123.399 278.898 122.938 278.128V278.146Z" fill="#522C1F"/>
<path d="M95.7172 265.018C90.7962 256.172 86.6712 246.348 84.0562 236.561C82.7362 231.608 81.7132 226.547 81.1622 221.44C80.6642 216.786 81.3152 211.743 80.2572 207.225C79.8052 205.297 77.0362 205.451 76.5032 207.225C75.0732 212.033 76.1772 218.045 76.8192 222.952C77.5072 228.195 78.6022 233.365 80.1942 238.417C83.4232 248.612 88.2902 257.313 95.1742 265.435C95.4282 265.733 95.8892 265.353 95.7082 265.027L95.7172 265.018Z" fill="#522C1F"/>
<path d="M89.3042 275.386C101.57 297.008 120.486 314.355 142.812 325.211C144.821 326.189 146.585 323.238 144.576 322.187C122.883 310.879 104.438 294.708 89.9822 274.988C89.6932 274.589 89.0502 274.934 89.3042 275.386Z" fill="#522C1F"/>
<path d="M57.7591 256.17C61.4681 276.597 71.0751 294.116 85.9291 308.657C93.1851 315.756 101.525 321.786 110.508 326.503C119.102 331.012 128.881 335.168 138.651 335.847C141.401 336.037 141.655 332.062 139.275 331.248C130.021 328.106 120.884 325.725 112.191 321.071C103.832 316.598 96.1251 310.957 89.2131 304.465C75.4451 291.518 64.3001 274.043 58.8721 255.872C58.6551 255.156 57.6421 255.464 57.7681 256.179L57.7591 256.17Z" fill="#522C1F"/>
<path d="M62.5168 294.696C70.3968 306.132 79.3798 315.783 91.2488 323.162C96.9928 326.73 103.126 329.691 109.432 332.117C114.85 334.2 122.992 337.957 128.845 336.635C130.528 336.255 130.573 334.028 129.297 333.176C126.846 331.538 123.607 331.347 120.776 330.578C117.609 329.727 114.479 328.758 111.395 327.644C105.189 325.399 99.2638 322.511 93.5818 319.161C82.4098 312.569 71.4548 304.221 63.0418 294.289C62.7978 293.999 62.2908 294.379 62.5078 294.696H62.5168Z" fill="#522C1F"/>
<path d="M80.7911 267.426C73.6531 251.853 69.1661 234.84 68.7861 217.682C68.7231 214.631 63.9831 214.622 64.0371 217.682C64.3811 235.863 69.1031 253.193 79.1531 268.386C79.8321 269.418 81.2881 268.531 80.7911 267.426Z" fill="#522C1F"/>
<path d="M156.337 183.431C157.938 186.491 159.195 189.868 161.258 192.666C163.347 195.491 166.143 197.954 168.893 200.108C175.035 204.934 182.01 208.42 189.012 211.788C197.66 215.944 206.534 220.191 214.694 225.261C218.747 227.778 222.076 231.336 224.817 235.203C227.042 238.335 228.571 242.011 231.041 244.936C232.072 246.158 233.963 244.836 233.61 243.442C231.937 236.968 226.228 230.051 221.289 225.696C214.604 219.792 205.512 216.361 197.497 212.667C189.925 209.181 182.119 206.166 174.972 201.847C168.115 197.7 159.367 191.19 156.554 183.349C156.499 183.195 156.264 183.286 156.346 183.44L156.337 183.431Z" fill="#522C1F"/>
<path d="M162.651 199.158C175.217 219.276 201.903 221.712 215.572 240.689C216.359 241.785 218.123 240.825 217.418 239.612C205.567 218.905 176.646 217.918 163.266 198.796C163.004 198.424 162.407 198.759 162.651 199.158Z" fill="#522C1F"/>
<path d="M86.3718 217.265C86.9598 229.325 89.9908 240.525 94.8128 251.59C99.5168 262.373 105.795 274.461 114.923 282.166C115.393 282.564 116.171 282.066 115.818 281.478C109.82 271.382 102.665 262.409 97.7618 251.626C92.8038 240.725 89.4658 228.873 86.8518 217.211C86.7888 216.939 86.3448 216.994 86.3628 217.274L86.3718 217.265Z" fill="#522C1F"/>
<path d="M102.566 188.738C96.4321 212.261 97.8431 237.15 107.903 259.442C108.645 261.09 111.458 259.913 110.834 258.201C102.783 236.073 99.6621 212.333 103.316 188.946C103.389 188.457 102.692 188.24 102.557 188.738H102.566Z" fill="#522C1F"/>
<path d="M72.3418 272.769C74.7118 283.688 80.3658 293.422 88.2178 301.335C95.1198 308.289 105.515 316.293 115.538 317.542C116.515 317.66 116.859 316.139 116.035 315.713C111.612 313.413 106.808 312.073 102.466 309.493C97.8698 306.767 93.6548 303.463 89.8828 299.678C82.3108 292.082 76.7928 282.62 73.2738 272.515C73.0748 271.927 72.2148 272.162 72.3418 272.769Z" fill="#522C1F"/>
<path d="M83.4962 298.518C86.7522 301.769 89.7382 305.245 93.0672 308.441C95.4912 310.759 98.1242 314.463 101.625 314.743C102.466 314.816 102.936 313.919 102.792 313.204C102.131 309.818 97.7712 307.391 95.2382 305.291C91.8362 302.466 88.2092 300.012 84.7622 297.251C83.8852 296.553 82.6642 297.685 83.5052 298.509L83.4962 298.518Z" fill="#522C1F"/>
<path d="M153.044 217.301C159.204 226.011 170.376 231.461 179.504 236.459C190.514 242.48 201.776 248.302 211.944 255.717C221.343 262.571 229.051 271.381 234.714 281.54C237.428 286.411 239.771 291.472 241.688 296.706C243.362 301.269 244.267 306.693 247.37 310.532C247.994 311.31 249.45 310.885 249.64 309.934C250.599 305.081 248.482 299.802 246.881 295.275C245.099 290.241 243.018 285.27 240.458 280.589C235.094 270.775 227.893 262.137 219.037 255.301C208.823 247.415 197.135 242.381 185.583 236.858C179.966 234.168 174.438 231.298 169.119 228.048C163.619 224.689 158.797 220.442 153.397 216.975C153.197 216.848 152.908 217.11 153.053 217.319L153.044 217.301Z" fill="#522C1F"/>
<path d="M197.896 272.715C206.453 274.843 214.07 280.664 219.417 287.555C222.303 291.285 224.727 295.386 226.916 299.56C228.888 303.3 230.155 308.397 233.393 311.177C234.298 311.956 235.836 311.476 235.827 310.163C235.791 305.346 232.054 300.131 229.748 296.02C227.224 291.52 224.302 287.229 220.801 283.417C214.613 276.681 207.25 272.235 198.077 271.266C197.253 271.176 197.091 272.507 197.887 272.706L197.896 272.715Z" fill="#522C1F"/>
<path d="M222.42 277.804C231.629 285.835 236.614 297.152 238.034 309.149C238.369 311.992 242.747 312.155 242.602 309.149C241.951 295.595 234.488 283.988 223.65 276.21C222.718 275.54 221.551 277.052 222.42 277.813V277.804Z" fill="#522C1F"/>
<path d="M186.271 224.508C197.289 235.925 213.645 239.429 225.405 249.878C231.339 255.156 236.08 261.585 239.943 268.493C241.815 271.843 243.507 275.302 245.045 278.815C246.492 282.138 247.37 286.049 249.649 288.883C250.518 289.961 252.318 289.046 252.3 287.788C252.255 284.293 250.319 280.843 248.953 277.665C247.406 274.052 245.714 270.503 243.796 267.072C240.006 260.308 235.383 253.898 229.729 248.565C217.372 236.93 200.193 234.042 187.031 223.756C186.506 223.34 185.782 224.001 186.271 224.517V224.508Z" fill="#522C1F"/>
<path d="M255.014 274.949C255.964 263.024 269.841 256.288 277.204 248.501C283.872 241.457 289.535 232.159 291.199 222.489C291.679 219.682 287.825 218.541 286.893 221.303C283.048 232.82 277.982 242.372 268.647 250.403C260.65 257.284 252.852 263.414 253.585 274.949C253.639 275.872 254.941 275.863 255.014 274.949Z" fill="#522C1F"/>
<path d="M261.563 239.794C266.955 234.742 272.935 230.224 278.652 225.543C281.8 222.971 284.993 220.481 288.241 218.046C290.593 216.289 292.927 214.75 294.411 212.151C294.809 211.463 294.157 210.811 293.461 210.92C287.345 211.862 281.067 218.426 276.562 222.337C270.673 227.444 265.933 233.239 260.975 239.214C260.641 239.613 261.165 240.165 261.554 239.794H261.563Z" fill="#522C1F"/>
<path d="M259.745 249.073C263.608 246.339 267.335 243.623 270.501 240.074C272.98 237.294 276.68 233.681 277.078 229.842C277.15 229.109 276.227 228.693 275.657 229.028C272.374 230.956 270.293 235.465 267.905 238.362C265.1 241.767 262.332 245.244 259.166 248.322C258.786 248.693 259.293 249.399 259.754 249.083L259.745 249.073Z" fill="#522C1F"/>
<path d="M252.327 304.918C252.092 287.498 268.656 275.601 280.389 265.397C290.159 256.895 302.064 243.929 299.16 229.741C298.744 227.704 295.858 228.338 295.722 230.203C295.071 239.257 292.212 246.655 286.242 253.572C281.076 259.566 274.707 264.392 268.8 269.607C258.261 278.906 249.559 290.205 251.793 304.982C251.838 305.28 252.327 305.208 252.318 304.909L252.327 304.918Z" fill="#522C1F"/>
<path d="M300.969 246.591C294.8 257.004 283.103 262.59 273.097 268.611C265.824 272.984 252.49 280.916 253.268 290.975C253.313 291.527 253.919 291.79 254.335 291.419C258.533 287.697 261.048 282.491 265.444 278.806C269.868 275.112 274.862 272.215 279.774 269.236C289.209 263.514 297.251 257.312 301.521 246.827C301.657 246.501 301.141 246.302 300.969 246.591Z" fill="#522C1F"/>
<path d="M275.495 302.892C285.337 297.514 292.954 290.651 299.567 281.515C302.842 276.988 305.61 272.126 307.88 267.019C309.635 263.072 312.829 257.123 311.399 252.795C311.038 251.7 309.78 251.392 308.921 252.143C305.7 254.986 304.75 261.107 303.004 264.973C300.897 269.627 298.337 274.091 295.478 278.319C289.761 286.757 282.071 294.734 274.111 301.099C273.07 301.932 274.4 303.49 275.495 302.892Z" fill="#522C1F"/>
<path d="M292.285 297.62C297.64 293.618 301.946 289.281 305.764 283.74C308.622 279.593 314.095 272.449 313.263 267.125C313.136 266.319 312.123 266.283 311.626 266.691C309.536 268.375 308.948 271.1 307.799 273.481C306.478 276.216 305.04 278.905 303.448 281.503C300.11 286.972 296.129 292.359 292.022 297.276C291.878 297.448 292.068 297.765 292.285 297.611V297.62Z" fill="#522C1F"/>
<path d="M122.477 233.563C127.045 244.482 133.477 253.98 142.297 261.947C146.594 265.823 151.325 269.209 156.346 272.079C160.932 274.705 166.604 278.019 172.005 278.2C173 278.236 173.172 276.968 172.476 276.47C168.188 273.41 162.615 271.862 158.001 269.254C153.008 266.429 148.313 263.07 143.953 259.349C135.503 252.133 128.085 243.214 122.748 233.463C122.676 233.327 122.422 233.418 122.486 233.572L122.477 233.563Z" fill="#522C1F"/>
<path d="M158.698 212.06C152.067 202.191 147.263 190.185 145.101 178.496C144.016 172.611 143.545 166.608 143.789 160.623C144.043 154.467 145.608 148.645 146.395 142.587C146.72 140.088 143.111 140.061 142.333 142.035C137.891 153.262 138.515 168.03 141.094 179.61C143.925 192.313 149.868 202.608 158.146 212.504C158.408 212.812 158.933 212.404 158.707 212.069L158.698 212.06Z" fill="#522C1F"/>
<path d="M138.452 190.183C135.06 183.564 133.07 175.207 132.192 167.81C131.776 164.306 131.622 160.766 131.803 157.235C131.966 154.057 133.079 150.879 132.247 147.782C131.83 146.243 129.985 146.27 129.153 147.375C127.181 149.992 127.271 154.039 127.144 157.235C126.982 161.219 127.226 165.221 127.895 169.15C129.306 177.48 132.744 183.89 137.448 190.772C137.873 191.396 138.814 190.853 138.461 190.174L138.452 190.183Z" fill="#522C1F"/>
<path d="M123.48 187.521C120.703 182.352 119.274 176.014 118.849 170.165C118.451 164.777 119.943 159.779 120.07 154.501C120.106 152.953 117.935 152.4 117.175 153.713C114.443 158.467 114.642 165.366 115.42 170.626C116.406 177.227 119.129 182.424 122.947 187.82C123.173 188.137 123.661 187.866 123.471 187.512L123.48 187.521Z" fill="#522C1F"/>
<path d="M147.083 145.349C142.976 162.289 144.64 182.127 152.99 197.555C153.587 198.651 155.369 197.908 155.016 196.704C152.474 188.22 149.977 179.764 148.901 170.927C147.888 162.561 148.078 153.968 148.765 145.575C148.847 144.606 147.309 144.416 147.083 145.349Z" fill="#522C1F"/>
<path d="M144.504 161.373C143.609 168.562 144.061 175.769 146.395 182.642C147.001 184.425 149.624 183.71 149.217 181.863C148.457 178.413 148.023 174.936 148.059 171.405C148.086 168.716 148.53 166.1 148.095 163.438C147.987 162.786 147.019 162.731 146.73 163.257C143.717 168.743 145.119 176.829 146.404 182.642C147.345 182.379 148.285 182.125 149.226 181.863C146.947 175.163 145.517 168.472 145.472 161.364C145.472 160.73 144.586 160.767 144.504 161.364V161.373Z" fill="#522C1F"/>
<path d="M157.006 138.901C150.565 159.21 157.92 184.688 176.338 196.423C176.673 196.64 177.071 196.133 176.772 195.861C160.715 181.347 152.402 160.559 157.395 139.01C157.45 138.766 157.097 138.666 157.015 138.901H157.006Z" fill="#522C1F"/>
<path d="M296.609 81.2179L318.049 63.1367C318.049 63.1367 344.021 80.3487 317.813 110.137L312.919 115.642L296.609 81.2089V81.2179Z" fill="url(#paint9_linear_3022_1502)"/>
<path d="M318.04 63.1367L303.918 96.4109L296.609 81.2179L318.04 63.1367Z" fill="url(#paint10_linear_3022_1502)"/>
<path d="M318.022 109.35C325.241 104.397 328.877 97.2354 330.017 88.5071C331.211 79.3171 326.525 69.9913 320.103 63.6081C318.275 61.7882 314.792 64.2329 316.403 66.4692C321.423 73.4319 326.498 79.7608 325.44 88.9055C324.662 95.6328 321.948 103.754 317.859 109.205C317.787 109.296 317.922 109.422 318.013 109.359L318.022 109.35Z" fill="#522C1F"/>
<path d="M314.041 77.6696C314.792 75.7048 315.941 73.9392 316.656 71.9383C317.352 69.9916 317.967 67.9906 318.574 66.0168C319.125 64.215 316.221 63.4092 315.751 65.2382C315.235 67.2482 314.729 69.2673 314.313 71.2954C313.888 73.3688 313.951 75.4784 313.562 77.5428C313.508 77.8597 313.933 77.9774 314.041 77.6786V77.6696Z" fill="#522C1F"/>
<path d="M317.325 83.0575C318.836 78.4942 321.767 71.7941 319.379 67.104C318.782 65.936 317.271 66.443 316.864 67.4299C316.004 69.5215 316.529 72.0657 316.457 74.3111C316.357 77.1179 316.556 79.9428 316.149 82.7225C316.041 83.483 317.072 83.809 317.316 83.0484L317.325 83.0575Z" fill="#522C1F"/>
<path d="M319.08 91.5155C320.5 87.6312 321.676 83.9552 322.111 79.8175C322.427 76.8749 323.422 72.5289 321.378 70.1295C320.971 69.6496 320.283 69.885 319.976 70.3106C318.347 72.5651 319.243 76.4674 319.143 79.1384C318.999 83.1404 319.071 87.3777 318.356 91.3163C318.266 91.7871 318.908 91.9682 319.08 91.5155Z" fill="#522C1F"/>
<path d="M319.044 98.2315C323.766 92.627 326.914 83.8626 325.014 76.4743C324.571 74.745 322.083 75.1886 321.993 76.8818C321.613 83.944 321.694 91.296 318.619 97.9056C318.501 98.1591 318.827 98.4851 319.035 98.2315H319.044Z" fill="#522C1F"/>
<path d="M208.245 81.2179L186.959 63.1367C186.959 63.1367 160.498 79.9413 186.705 109.73L192.938 117.924L208.245 81.2089V81.2179Z" fill="url(#paint11_linear_3022_1502)"/>
<path d="M186.958 63.1367L201.478 98.0135L208.244 81.2179L186.958 63.1367Z" fill="url(#paint12_linear_3022_1502)"/>
<path d="M185.909 109.187C181.82 103.737 179.106 95.6243 178.328 88.8879C177.27 79.7432 182.345 73.4143 187.366 66.4517C188.958 64.2424 185.52 61.7525 183.666 63.5905C177.243 69.9828 172.566 79.2905 173.751 88.4896C174.882 97.2268 178.528 104.38 185.746 109.332C185.837 109.396 185.973 109.269 185.9 109.178L185.909 109.187Z" fill="#522C1F"/>
<path d="M190.224 77.5337C189.845 75.4693 189.908 73.3687 189.474 71.2863C189.057 69.2581 188.542 67.239 188.035 65.229C187.574 63.4001 184.661 64.1968 185.213 66.0077C185.819 67.9905 186.434 69.9825 187.131 71.9291C187.845 73.9301 188.994 75.6957 189.745 77.6604C189.863 77.9592 190.288 77.8506 190.224 77.5246V77.5337Z" fill="#522C1F"/>
<path d="M187.619 82.7283C187.221 79.9577 187.402 77.1147 187.312 74.317C187.239 72.0534 187.773 69.5454 186.905 67.4358C186.497 66.4489 184.987 65.9419 184.39 67.1098C182.001 71.809 184.932 78.491 186.443 83.0633C186.696 83.8239 187.719 83.4979 187.61 82.7374L187.619 82.7283Z" fill="#522C1F"/>
<path d="M185.421 91.3143C184.706 87.3757 184.778 83.1293 184.634 79.1364C184.534 76.4383 185.43 72.5631 183.801 70.3086C183.494 69.8831 182.806 69.6567 182.399 70.1275C180.346 72.5359 181.35 76.8638 181.666 79.8155C182.11 83.9533 183.286 87.6293 184.697 91.5135C184.86 91.9662 185.502 91.7942 185.421 91.3143Z" fill="#522C1F"/>
<path d="M185.158 97.9053C182.083 91.2958 182.155 83.9438 181.784 76.8815C181.694 75.2065 179.215 74.7266 178.763 76.4741C176.863 83.8623 180.02 92.6267 184.742 98.2313C184.95 98.4757 185.285 98.1588 185.158 97.9053Z" fill="#522C1F"/>
<path d="M252.427 213.871C167.201 213.871 158.381 149.197 158.381 149.197L208.245 81.209H296.609L346.472 149.197C346.472 149.197 337.652 213.871 252.427 213.871Z" fill="url(#paint13_linear_3022_1502)"/>
<path d="M270.112 155.546C270.194 149.389 271.596 141.756 269.597 135.853C268.828 133.58 267.896 131.208 268.357 128.854C269.117 125.033 273.64 126.473 274.355 124.164C274.617 123.304 274.355 122.371 274.228 121.475C274.102 120.578 274.255 119.51 275.033 119.039C276.417 118.215 278.028 120.098 279.638 119.917C280.588 119.809 281.321 118.967 281.592 118.052C281.863 117.138 281.773 116.16 281.682 115.209C283.076 115.354 284.423 115.888 285.527 116.739C286.54 116.278 286.667 114.919 286.703 113.797C286.739 112.683 287.056 111.289 288.142 111.053C289.318 110.8 290.177 112.113 290.665 113.208C291.679 115.526 292.701 117.853 293.714 120.171C293.985 120.787 294.275 121.429 294.791 121.864C295.306 122.299 296.129 122.443 296.645 122.009C296.953 121.755 297.097 121.357 297.36 121.058C298.129 120.207 299.639 120.569 300.336 121.475C303.502 125.549 299.866 128.392 297.477 131.47C295.351 134.205 296.102 136.803 295.37 139.963C294.727 142.698 292.402 144.798 289.797 145.858C287.192 146.917 284.324 147.089 281.52 147.143C279.638 148.438 278.163 150.258 276.381 151.743C274.355 153.427 272.256 155.029 270.094 156.532C270.094 156.197 270.094 155.862 270.094 155.536L270.112 155.546Z" fill="#FAE1C0"/>
<path d="M236.713 155.546C236.632 149.389 235.23 141.756 237.229 135.853C237.998 133.58 238.93 131.208 238.468 128.854C237.709 125.033 233.185 126.473 232.471 124.164C232.208 123.304 232.48 122.371 232.597 121.475C232.715 120.578 232.57 119.51 231.792 119.039C230.408 118.215 228.798 120.098 227.188 119.917C226.238 119.809 225.505 118.967 225.234 118.052C224.962 117.138 225.053 116.16 225.143 115.209C223.75 115.354 222.402 115.888 221.299 116.739C220.285 116.278 220.159 114.919 220.123 113.797C220.086 112.683 219.77 111.289 218.684 111.053C217.508 110.8 216.649 112.113 216.16 113.208C215.147 115.526 214.125 117.853 213.112 120.171C212.84 120.787 212.551 121.429 212.035 121.864C211.52 122.299 210.696 122.443 210.181 122.009C209.873 121.755 209.728 121.357 209.466 121.058C208.697 120.207 207.186 120.569 206.49 121.475C203.324 125.549 206.96 128.392 209.348 131.47C211.474 134.205 210.723 136.803 211.456 139.963C212.098 142.698 214.423 144.798 217.029 145.858C219.634 146.917 222.502 147.089 225.306 147.143C227.188 148.438 228.662 150.258 230.444 151.743C232.471 153.427 234.57 155.029 236.732 156.532C236.732 156.197 236.732 155.862 236.732 155.536L236.713 155.546Z" fill="#FAE1C0"/>
<path d="M191.183 127.467C191.183 127.467 212.351 151.388 213.69 161.501C214.884 170.519 202.192 196.034 202.192 196.034L191.192 127.467H191.183Z" fill="url(#paint14_linear_3022_1502)"/>
<path d="M315.109 127.467C315.109 127.467 293.941 151.388 292.602 161.501C291.408 170.519 304.1 196.034 304.1 196.034L315.1 127.467H315.109Z" fill="url(#paint15_linear_3022_1502)"/>
<path d="M306.397 94.5742C306.37 96.4484 306.858 98.1778 307.7 100.043C310.106 105.403 313.426 109.948 314.503 115.933C315.651 122.316 315.489 128.817 316.321 135.246C316.809 139.021 319.071 142.715 318.79 146.618C318.573 149.587 317.081 150.755 316.348 153.345C315.407 156.677 314.638 159.819 313.562 163.187C311.861 168.511 314.72 173.228 313.752 177.827C312.603 183.287 303.276 188.041 298.644 189.87C293.624 191.852 289.1 192.531 283.845 191.789C274.491 190.476 263.083 192.115 253.53 194.415C244.204 196.669 227.721 198.924 218.521 195.058C215.066 193.6 214.704 191.065 212.279 189.136C210.723 187.896 207.81 187.298 206.037 187.099C203.323 186.8 201.179 188.113 198.466 186.556C194.72 184.41 196.421 180.698 194.286 178.325C192.151 175.944 188.632 176.288 186.841 172.531C184.769 168.176 184.127 163.295 181.766 158.895C179.975 155.563 179.405 154.531 178.962 151C178.808 149.787 178.283 146.5 178.292 145.232C178.301 141.955 177.985 137.518 178.781 134.295C179.758 130.356 183.657 127.124 185.52 123.539C187.384 119.935 187.465 116.666 188.723 113.09C189.691 110.338 192.35 108.925 193.472 106.426C194.286 104.606 193.671 103.719 194.078 102.252C194.313 101.41 194.512 100.505 194.757 99.6174L158.381 149.207C158.381 149.207 167.201 213.881 252.427 213.881C337.652 213.881 346.472 149.207 346.472 149.207L306.406 94.5742H306.397Z" fill="url(#paint16_linear_3022_1502)"/>
<g style="mix-blend-mode:multiply">
<path d="M297.152 190.411C292.71 191.959 288.576 192.448 283.845 191.787C274.491 190.474 263.083 192.113 253.531 194.413C244.204 196.667 227.721 198.922 218.521 195.056C215.066 193.598 214.704 191.063 212.279 189.134C211.366 188.41 210 187.921 208.661 187.586C206.209 193.688 206.092 200.099 207.602 206.256C219.498 210.9 234.199 213.879 252.427 213.879C272.682 213.879 288.585 210.203 301.114 204.626C300.987 199.546 299.956 194.675 297.152 190.411Z" fill="#FAE1C0"/>
</g>
<path style="mix-blend-mode:soft-light" d="M208.245 81.2188L237.745 114.185H267.254L296.609 81.2188H208.245Z" fill="url(#paint17_linear_3022_1502)"/>
<path style="mix-blend-mode:soft-light" d="M203.839 124.498C203.839 124.498 205.124 145.332 209.701 149.995C214.532 154.911 236.46 156.622 236.46 156.622L203.83 124.498H203.839Z" fill="url(#paint18_linear_3022_1502)"/>
<path style="mix-blend-mode:soft-light" d="M302.842 124.498C302.842 124.498 301.557 145.332 296.98 149.995C292.149 154.911 270.221 156.622 270.221 156.622L302.851 124.498H302.842Z" fill="url(#paint19_linear_3022_1502)"/>
<path d="M274.862 180.297C275.576 180.297 276.273 179.664 276.237 178.921C276.201 178.179 275.631 177.545 274.862 177.545C274.147 177.545 273.451 178.179 273.487 178.921C273.523 179.664 274.093 180.297 274.862 180.297Z" fill="#522C1F"/>
<path d="M281.05 157.891C283.61 158.887 286.26 159.023 288.974 158.742C291.127 158.515 293.859 158.362 295.288 156.605C295.668 156.134 295.605 155.292 294.899 155.138C292.792 154.686 290.72 155.817 288.63 156.225C286.124 156.714 283.564 156.822 281.04 157.203C280.651 157.266 280.751 157.782 281.04 157.891H281.05Z" fill="#522C1F"/>
<path d="M279.702 161.445C282.542 164.061 291.2 173.459 294.583 166.524C295.288 165.084 292.991 164.179 292.593 165.682C291.67 169.141 286.785 165.401 285.428 164.514C283.61 163.337 281.764 162.268 279.883 161.209C279.747 161.128 279.584 161.318 279.711 161.436L279.702 161.445Z" fill="#522C1F"/>
<path d="M306.162 131.107C306.28 135.263 304.905 138.839 303.313 142.597C302.824 143.746 304.353 144.742 305.041 143.602C307.311 139.844 307.51 135.344 306.949 131.098C306.886 130.618 306.153 130.573 306.162 131.098V131.107Z" fill="#522C1F"/>
<path d="M291.462 177.381C292.565 182.65 298.409 180.025 299.884 176.394C301.196 173.153 300.779 169.114 301.186 165.701C301.892 159.807 304.398 154.374 305.194 148.616C305.33 147.602 304.19 147.095 303.566 147.928C300.544 151.948 299.621 158.05 298.961 162.93C298.654 165.212 298.545 167.476 298.572 169.775C298.59 170.952 298.69 172.139 298.644 173.325C298.572 174.149 298.491 174.963 298.418 175.787C297.649 179.264 295.469 179.762 291.869 177.272C291.769 177.019 291.398 177.109 291.453 177.39L291.462 177.381Z" fill="#522C1F"/>
<path d="M303.014 170.789C303.521 167.901 304.425 165.085 305.176 162.26C305.855 159.734 307.049 157.298 307.347 154.709C307.438 153.912 306.352 153.822 305.981 154.338C302.815 158.792 302.752 165.501 302.625 170.744C302.625 170.961 302.969 171.015 303.014 170.798V170.789Z" fill="#522C1F"/>
<path d="M297.451 190.79C303.385 188.916 309.374 188.237 313.435 182.94C317.95 177.046 314.811 170.228 316.376 163.601C317.995 156.747 321.08 151.314 320.184 144.026C319.325 137.072 317.959 129.765 316.556 122.92C316.33 121.816 314.485 121.779 314.286 122.92C313.381 128.009 315.19 133.496 316.086 138.484C317.389 145.664 316.819 151.314 314.412 158.15C313.49 160.776 312.712 163.465 312.621 166.263C312.504 169.613 313.653 172.917 313.39 176.267C312.775 184.018 304.027 188.654 297.396 190.582C297.252 190.627 297.315 190.845 297.46 190.799L297.451 190.79Z" fill="#522C1F"/>
<path d="M322.825 141.854C323.133 148.355 322.002 153.633 319.56 159.636C318.474 162.316 317.189 165.802 319.777 167.903C319.985 168.075 320.319 167.975 320.329 167.676C320.392 165.241 320.03 163.167 320.709 160.75C321.369 158.396 322.355 156.187 322.88 153.778C323.739 149.83 323.839 145.792 323.033 141.836C323.006 141.718 322.816 141.745 322.825 141.863V141.854Z" fill="#522C1F"/>
<path d="M316.249 157.58C314.213 162.017 318.049 165.91 317.28 170.573C316.357 176.159 313.797 181.71 314.81 187.423C314.883 187.812 315.407 187.803 315.597 187.522C318.764 182.868 319.677 175.761 320.302 170.247C320.835 165.557 317.886 162.189 317.135 157.689C317.072 157.29 316.421 157.209 316.258 157.571L316.249 157.58Z" fill="#522C1F"/>
<path d="M306.723 193.065C316.158 190.358 325.874 178.533 324.327 168.311C324.291 168.048 323.893 167.958 323.73 168.157C320.636 171.76 320.093 176.65 317.859 180.769C315.19 185.686 310.939 189.317 306.542 192.639C306.343 192.784 306.452 193.146 306.723 193.065Z" fill="#522C1F"/>
<path d="M324.852 134.963C325.494 138.023 325.494 141.228 325.458 144.343C325.422 146.842 324.879 149.395 325.331 151.849C325.503 152.781 326.969 152.963 327.385 152.121C329.981 146.824 327.439 139.888 325.548 134.773C325.385 134.347 324.761 134.51 324.861 134.963H324.852Z" fill="#522C1F"/>
<path d="M276.662 132.554C277.124 130.046 277.513 128.371 276.472 125.89C275.559 123.717 273.994 121.562 271.805 120.539C270.176 119.778 268.132 121.87 269.733 123.228C271.126 124.414 272.528 125.455 273.56 127.004C274.5 128.407 275.74 130.752 275.866 132.436C275.893 132.871 276.581 133.034 276.671 132.545L276.662 132.554Z" fill="#522C1F"/>
<path d="M267.896 148.589C267.643 145.656 266.413 143.32 263.889 141.699C263.708 141.581 263.4 141.572 263.219 141.699C262.957 141.889 262.93 141.944 262.894 142.279C262.867 142.514 263.048 142.731 263.219 142.858C265.219 144.216 267.037 146.299 267.833 148.607C267.842 148.644 267.905 148.644 267.905 148.598L267.896 148.589Z" fill="#522C1F"/>
<path d="M271.687 143.23C272.184 138.468 270.312 135.561 267.001 132.175C265.427 130.572 263.645 129.187 262.125 127.521C259.972 125.158 260.107 123.067 258.959 120.341C258.76 119.87 258.181 119.608 257.764 120.024C255.295 122.532 257.629 126.245 259.538 128.445C263.201 132.664 271.904 136.693 271.452 143.221C271.442 143.366 271.669 143.366 271.678 143.221L271.687 143.23Z" fill="#522C1F"/>
<path d="M270.049 131.36C269.208 130.455 268.575 129.387 268.005 128.3C267.417 127.205 267.317 125.991 266.847 124.878C266.53 124.117 265.119 123.791 264.956 124.878C264.486 127.947 266.956 130.817 269.579 131.985C269.968 132.157 270.375 131.714 270.059 131.369L270.049 131.36Z" fill="#522C1F"/>
<path d="M279.249 131.052C278.806 128.508 283.782 128.444 285.138 127.566C286.269 126.833 287.029 125.665 287.355 124.379C287.934 122.07 286.993 117.634 284.451 116.873C284.107 116.774 283.673 117 283.592 117.362C283.302 118.756 283.845 119.182 284.451 120.44C284.939 121.436 285.328 122.604 285.274 123.727C285.202 125.402 283.709 126.353 282.37 127.005C280.181 128.064 278.833 128.345 279.023 131.088C279.032 131.251 279.276 131.224 279.249 131.061V131.052Z" fill="#522C1F"/>
<path d="M293.995 121.174C295.162 115.714 292.792 113.523 289.59 109.648C286.55 105.972 289.119 101.273 285.347 97.6058C282.588 94.9258 278.607 93.5586 274.925 92.78C272.266 92.2095 267.444 90.951 265.3 93.1964C264.875 93.6401 265.011 94.2648 265.481 94.5998C267.336 95.9308 270.402 95.4147 272.573 95.6863C276.156 96.1391 280.588 97.0807 283.275 99.6792C286.342 102.649 283.872 105.99 285.582 109.295C286.279 110.635 287.391 111.187 288.567 112.038C291.589 114.238 293.298 117.299 293.398 121.092C293.398 121.418 293.923 121.518 293.995 121.174Z" fill="#522C1F"/>
<path d="M259.384 108.388C262.595 108.406 265.87 109.14 269.036 109.683C271.479 110.108 273.831 111.159 276.291 110.643C277.296 110.425 277.666 108.995 276.907 108.316C274.844 106.478 271.605 106.369 268.91 106.224C265.571 106.034 262.505 106.822 259.266 107.447C258.723 107.555 258.859 108.388 259.393 108.397L259.384 108.388Z" fill="#522C1F"/>
<path d="M258.461 90.8683C257.412 100.493 267.453 103.327 275.197 104.042C277.621 104.269 277.549 100.574 275.197 100.294C269.226 99.5785 259.872 98.4014 258.778 90.8321C258.751 90.642 258.479 90.7144 258.461 90.8774V90.8683Z" fill="#522C1F"/>
<path d="M283.447 89.6012C286.468 91.3758 291.616 92.8788 293.018 96.0749C294.158 98.6825 292.71 101 293.425 103.798C293.968 105.908 295.388 107.746 296.763 109.385C299.26 112.363 301.169 114.745 302.562 118.466C302.878 119.299 304.226 119.489 304.452 118.466C305.031 115.858 303.964 113.694 302.381 111.603C301.413 110.317 300.237 109.213 299.178 108.008C296.392 104.867 295.732 102.721 296.094 98.5739C296.293 96.256 296.392 94.9794 294.429 93.422C291.742 91.2943 286.903 90.081 283.709 88.9855C283.338 88.8587 283.121 89.411 283.447 89.6102V89.6012Z" fill="#522C1F"/>
<path d="M304.95 107.085C306.054 109.81 307.031 112.653 308.315 115.288C308.514 115.704 309.229 115.405 309.066 114.971C308.026 112.218 306.633 109.556 305.402 106.885C305.285 106.632 304.842 106.813 304.95 107.076V107.085Z" fill="#522C1F"/>
<path d="M269.289 86.9659C275.314 88.6047 282.678 88.5504 288.811 87.5001C289.625 87.3643 289.625 85.988 288.811 85.8432C282.678 84.7929 275.314 84.7385 269.289 86.3773C269 86.4588 269 86.8844 269.289 86.9659Z" fill="#522C1F"/>
<path d="M281.982 186.002C282.072 185.956 282.162 185.92 282.253 185.875C282.705 185.667 282.705 184.879 282.253 184.671C282.162 184.625 282.072 184.589 281.982 184.544C281.421 184.29 280.724 184.58 280.724 185.268C280.724 185.956 281.421 186.246 281.982 185.992V186.002Z" fill="#522C1F"/>
<path d="M301.694 130.599C300.309 132.718 299.866 134.465 299.857 137.001C299.857 140.26 299.948 143.32 297.035 145.448C296.32 145.973 296.709 147.205 297.668 146.951C304.579 145.122 299.568 134.954 301.893 130.717C301.965 130.59 301.775 130.482 301.694 130.599Z" fill="#522C1F"/>
<path d="M305.891 128.596C307.709 128.596 307.709 125.771 305.891 125.771C304.073 125.771 304.073 128.596 305.891 128.596Z" fill="#522C1F"/>
<path d="M282.624 148.943C286.523 149.504 289.571 149.739 292.946 147.25C295.786 145.149 298.093 141.627 298.174 138.023C298.201 136.946 296.609 136.756 296.32 137.77C295.533 140.549 294.809 143.067 292.584 145.104C290.214 147.277 285.98 149.187 282.678 148.725C282.533 148.707 282.47 148.925 282.615 148.943H282.624Z" fill="#522C1F"/>
<path d="M282.253 152.784C283.402 152.784 283.402 151 282.253 151C281.104 151 281.104 152.784 282.253 152.784Z" fill="#522C1F"/>
<path d="M288.069 153.016C288.395 152.835 288.757 152.69 288.838 152.301C288.866 152.156 288.82 151.966 288.676 151.894C288.25 151.704 287.925 151.912 287.536 152.093C286.921 152.383 287.463 153.351 288.079 153.016H288.069Z" fill="#522C1F"/>
<path d="M228.915 180.297C229.63 180.297 230.327 179.664 230.29 178.921C230.254 178.179 229.684 177.545 228.915 177.545C228.201 177.545 227.504 178.179 227.54 178.921C227.577 179.664 228.147 180.297 228.915 180.297Z" fill="#522C1F"/>
<path d="M222.728 157.202C220.204 156.821 217.644 156.713 215.138 156.224C213.048 155.816 210.986 154.694 208.869 155.137C208.163 155.291 208.1 156.133 208.48 156.604C209.9 158.351 212.659 158.514 214.794 158.741C217.508 159.021 220.159 158.895 222.719 157.89C223.008 157.781 223.108 157.256 222.719 157.202H222.728Z" fill="#522C1F"/>
<path d="M223.904 161.222C222.022 162.281 220.168 163.35 218.359 164.527C216.902 165.477 212.108 169.153 211.194 165.695C210.796 164.21 208.489 165.07 209.204 166.537C212.587 173.463 221.244 164.065 224.085 161.457C224.203 161.349 224.049 161.158 223.913 161.231L223.904 161.222Z" fill="#522C1F"/>
<path d="M196.837 131.104C196.276 135.342 196.466 139.851 198.746 143.608C199.434 144.74 200.962 143.753 200.474 142.603C198.891 138.846 197.507 135.26 197.624 131.113C197.642 130.597 196.901 130.624 196.837 131.113V131.104Z" fill="#522C1F"/>
<path d="M211.899 177.263C208.769 179.654 206.806 179.581 206.019 177.055C205.241 175.95 204.943 174.701 205.124 173.316C205.097 172.41 205.169 171.496 205.187 170.59C205.232 168.019 205.151 165.484 204.816 162.93C204.165 158.041 203.242 151.948 200.212 147.928C199.587 147.095 198.439 147.602 198.583 148.616C199.307 153.885 201.668 158.892 202.401 164.252C202.926 168.1 202.437 172.745 203.893 176.394C205.35 180.025 211.212 182.66 212.316 177.381C212.37 177.109 211.999 177.01 211.899 177.263Z" fill="#522C1F"/>
<path d="M201.144 170.736C201.017 165.494 200.954 158.784 197.787 154.33C197.416 153.805 196.331 153.904 196.421 154.701C196.72 157.291 197.914 159.735 198.592 162.252C199.352 165.086 200.248 167.893 200.755 170.781C200.791 170.999 201.144 170.944 201.144 170.727V170.736Z" fill="#522C1F"/>
<path d="M206.39 190.574C199.778 188.654 190.957 184 190.397 176.259C190.152 172.909 191.274 169.613 191.166 166.254C191.075 163.457 190.288 160.767 189.374 158.142C186.968 151.279 186.416 145.683 187.701 138.476C188.587 133.487 190.406 127.991 189.501 122.912C189.302 121.771 187.457 121.798 187.23 122.912C185.837 129.757 184.462 137.073 183.603 144.017C182.698 151.351 185.783 156.711 187.411 163.592C188.967 170.184 185.837 177.074 190.351 182.932C194.413 188.202 200.402 188.908 206.336 190.782C206.472 190.827 206.535 190.601 206.4 190.565L206.39 190.574Z" fill="#522C1F"/>
<path d="M180.744 141.825C179.948 145.791 180.047 149.82 180.898 153.768C181.368 155.95 182.227 157.969 182.87 160.097C183.657 162.722 183.376 165.004 183.449 167.666C183.449 167.965 183.783 168.064 184.001 167.892C186.588 165.792 185.321 162.315 184.218 159.626C181.766 153.632 180.644 148.344 180.952 141.843C180.952 141.726 180.762 141.698 180.744 141.816V141.825Z" fill="#522C1F"/>
<path d="M186.651 157.699C185.909 162.172 182.951 165.576 183.485 170.257C184.109 175.744 185.041 182.906 188.189 187.533C188.379 187.804 188.904 187.823 188.976 187.433C189.989 181.738 187.438 176.161 186.506 170.583C185.719 165.911 189.582 162.036 187.538 157.591C187.375 157.228 186.723 157.31 186.66 157.708L186.651 157.699Z" fill="#522C1F"/>
<path d="M197.235 192.639C192.839 189.316 188.587 185.676 185.918 180.769C183.684 176.658 183.132 171.751 180.047 168.156C179.885 167.966 179.486 168.057 179.45 168.31C177.903 178.533 187.628 190.357 197.054 193.064C197.326 193.146 197.434 192.793 197.235 192.639Z" fill="#522C1F"/>
<path d="M178.238 134.773C176.348 139.879 173.806 146.824 176.402 152.121C176.809 152.963 178.283 152.791 178.455 151.849C178.908 149.404 178.356 146.833 178.329 144.343C178.292 141.219 178.283 138.023 178.935 134.963C179.034 134.51 178.401 134.347 178.247 134.773H178.238Z" fill="#522C1F"/>
<path d="M227.93 132.437C228.056 130.734 229.305 128.398 230.236 127.004C231.268 125.456 232.67 124.414 234.063 123.228C235.646 121.879 233.629 119.77 231.991 120.539C229.802 121.562 228.228 123.717 227.323 125.89C226.292 128.362 226.672 130.046 227.133 132.554C227.224 133.034 227.911 132.88 227.939 132.446L227.93 132.437Z" fill="#522C1F"/>
<path d="M235.953 148.598C236.75 146.289 238.568 144.206 240.567 142.848C240.748 142.731 240.929 142.513 240.893 142.269C240.857 141.943 240.829 141.889 240.567 141.689C240.386 141.563 240.079 141.572 239.898 141.689C237.374 143.31 236.143 145.646 235.89 148.58C235.89 148.625 235.944 148.625 235.962 148.589L235.953 148.598Z" fill="#522C1F"/>
<path d="M232.317 143.229C231.856 136.701 240.567 132.663 244.231 128.453C246.14 126.262 248.474 122.531 246.004 120.032C245.588 119.616 245.009 119.869 244.81 120.349C243.688 123.02 243.761 125.193 241.644 127.529C240.133 129.195 238.342 130.571 236.768 132.183C233.439 135.578 231.575 138.449 232.082 143.238C232.1 143.383 232.317 143.383 232.308 143.238L232.317 143.229Z" fill="#522C1F"/>
<path d="M234.208 131.975C236.822 130.816 239.301 127.937 238.83 124.868C238.658 123.781 237.256 124.107 236.94 124.868C236.469 125.991 236.37 127.195 235.782 128.29C235.203 129.377 234.579 130.454 233.737 131.351C233.421 131.695 233.819 132.147 234.217 131.966L234.208 131.975Z" fill="#522C1F"/>
<path d="M224.754 131.08C224.926 128.454 223.632 127.911 221.407 126.996C218.177 125.674 217.987 123.203 219.326 120.423C219.932 119.173 220.484 118.739 220.186 117.345C220.113 116.982 219.67 116.756 219.326 116.856C216.775 117.616 215.834 122.053 216.422 124.361C216.739 125.629 217.463 126.743 218.557 127.485C219.896 128.391 224.971 128.517 224.528 131.034C224.501 131.197 224.745 131.234 224.754 131.062V131.08Z" fill="#522C1F"/>
<path d="M210.38 121.092C210.47 117.742 211.936 114.419 214.65 112.381C215.889 111.449 217.327 110.888 218.123 109.457C219.96 106.143 217.427 102.693 220.503 99.6784C223.008 97.2248 227.106 96.3103 230.463 95.8032C232.796 95.4501 236.306 96.0296 238.297 94.599C238.767 94.264 238.903 93.6393 238.478 93.1956C236.343 90.9592 231.485 92.2178 228.852 92.7791C225.179 93.5669 221.19 94.934 218.431 97.605C214.677 101.254 217.219 105.989 214.188 109.647C210.995 113.504 208.625 115.732 209.783 121.173C209.855 121.517 210.371 121.427 210.38 121.092Z" fill="#522C1F"/>
<path d="M244.521 107.438C241.273 106.814 238.215 106.035 234.877 106.216C232.172 106.37 228.952 106.461 226.88 108.308C226.121 108.987 226.491 110.426 227.496 110.635C229.956 111.16 232.299 110.1 234.751 109.675C237.917 109.132 241.192 108.398 244.403 108.38C244.928 108.38 245.082 107.538 244.53 107.429L244.521 107.438Z" fill="#522C1F"/>
<path d="M245.009 90.8236C243.915 98.411 234.57 99.5699 228.59 100.285C226.247 100.566 226.166 104.26 228.59 104.034C236.325 103.318 246.366 100.484 245.326 90.8598C245.308 90.6968 245.036 90.6244 245.009 90.8145V90.8236Z" fill="#522C1F"/>
<path d="M220.068 88.9865C216.757 90.1183 212.279 91.2591 209.439 93.3506C207.385 94.8536 207.476 96.2389 207.684 98.5749C208.027 102.314 207.62 104.542 205.106 107.466C203.939 108.824 202.609 110.028 201.505 111.459C199.868 113.596 198.728 115.787 199.325 118.467C199.551 119.49 200.908 119.3 201.216 118.467C202.527 114.972 204.11 112.727 206.526 109.938C208.082 108.136 209.719 106.153 210.352 103.799C210.94 101.617 209.909 100.014 209.945 97.9501C210.009 93.4955 217.173 91.4673 220.33 89.6022C220.656 89.412 220.439 88.8507 220.068 88.9774V88.9865Z" fill="#522C1F"/>
<path d="M198.375 106.896C197.145 109.567 195.752 112.229 194.712 114.981C194.549 115.416 195.254 115.715 195.463 115.298C196.756 112.654 197.733 109.821 198.828 107.095C198.936 106.833 198.493 106.642 198.375 106.905V106.896Z" fill="#522C1F"/>
<path d="M234.497 86.3773C228.472 84.7385 221.109 84.7929 214.975 85.8432C214.161 85.979 214.161 87.3552 214.975 87.5001C221.109 88.5504 228.472 88.6047 234.497 86.9659C234.787 86.8844 234.787 86.4588 234.497 86.3773Z" fill="#522C1F"/>
<path d="M221.796 184.552C221.706 184.598 221.615 184.634 221.525 184.679C221.072 184.887 221.072 185.675 221.525 185.883C221.615 185.929 221.706 185.965 221.796 186.01C222.357 186.264 223.063 185.974 223.063 185.286C223.063 184.598 222.366 184.308 221.796 184.561V184.552Z" fill="#522C1F"/>
<path d="M201.895 130.717C204.228 134.963 199.199 145.122 206.119 146.951C207.069 147.205 207.476 145.982 206.752 145.448C203.83 143.311 203.939 140.269 203.93 137.001C203.93 134.474 203.478 132.709 202.094 130.599C202.012 130.472 201.822 130.581 201.895 130.717Z" fill="#522C1F"/>
<path d="M197.896 128.596C199.714 128.596 199.714 125.771 197.896 125.771C196.078 125.771 196.078 128.596 197.896 128.596Z" fill="#522C1F"/>
<path d="M221.1 148.726C217.825 149.188 213.528 147.278 211.194 145.105C208.996 143.05 208.254 140.569 207.458 137.771C207.168 136.757 205.576 136.938 205.603 138.024C205.694 141.628 207.992 145.159 210.832 147.251C214.188 149.731 217.264 149.505 221.154 148.944C221.299 148.926 221.235 148.699 221.091 148.726H221.1Z" fill="#522C1F"/>
<path d="M221.525 152.784C222.674 152.784 222.674 151 221.525 151C220.376 151 220.376 152.784 221.525 152.784Z" fill="#522C1F"/>
<path d="M216.251 152.093C215.862 151.912 215.527 151.704 215.111 151.894C214.966 151.957 214.921 152.156 214.948 152.301C215.03 152.7 215.392 152.844 215.717 153.016C216.332 153.351 216.875 152.383 216.26 152.093H216.251Z" fill="#522C1F"/>
<path d="M253.205 194.877C253.54 206.991 244.159 212.65 232.398 212.976C220.638 213.302 210.95 208.186 210.615 196.072C210.28 183.957 219.417 169.425 231.177 169.099C242.937 168.773 252.87 182.762 253.214 194.886L253.205 194.877Z" fill="url(#paint20_linear_3022_1502)"/>
<path d="M295.514 193.689C295.849 205.804 286.468 211.462 274.708 211.788C262.948 212.114 253.259 206.999 252.924 194.884C252.59 182.77 261.727 168.238 273.487 167.912C285.247 167.586 295.18 181.575 295.524 193.698L295.514 193.689Z" fill="url(#paint21_linear_3022_1502)"/>
<path d="M319.18 164.246C319.325 164.246 319.325 164.02 319.18 164.02C319.035 164.02 319.035 164.246 319.18 164.246Z" fill="#522C1F"/>
<path d="M270.519 81.7893C270.664 81.7893 270.664 81.5625 270.519 81.5625C270.374 81.5625 270.374 81.7893 270.519 81.7893Z" fill="#522C1F"/>
<path d="M267.507 195.656H239.681V214.145H267.742L267.507 195.656Z" fill="#522C1F"/>
<path d="M267.037 209.436H240.694C238.296 209.436 236.352 211.381 236.352 213.782V217.376C236.352 219.776 238.296 221.722 240.694 221.722H267.037C269.435 221.722 271.379 219.776 271.379 217.376V213.782C271.379 211.381 269.435 209.436 267.037 209.436Z" fill="#FAE1C0"/>
<path d="M224.872 190.476C220.71 189.082 216.278 187.09 213.021 184.129C211.384 187.986 210.497 192.142 210.606 196.062C210.94 208.177 220.629 213.302 232.389 212.966C238.333 212.804 244.819 211.255 249.043 206.773C253.259 202.301 254.399 195.555 248.274 192.16C245.371 190.548 242.023 190.168 239.065 188.538C236.397 187.072 234.994 185.523 232.353 184.283C233.104 187.696 234.361 190.431 236.93 192.604C232.733 192.042 228.924 191.834 224.872 190.476Z" fill="#FAE1C0"/>
<path d="M237.347 199.721C237.084 200.382 237.392 201.124 238.052 201.405C238.767 201.704 239.608 201.314 239.816 200.554C240.242 199.006 237.926 198.245 237.347 199.721Z" fill="#522C1F"/>
<path d="M236.46 208.576C237.328 208.576 238.161 207.815 238.115 206.919C238.079 206.022 237.383 205.262 236.46 205.262C235.592 205.262 234.759 206.022 234.804 206.919C234.841 207.815 235.537 208.576 236.46 208.576Z" fill="#522C1F"/>
<path d="M232.064 203.55C233.394 203.55 233.394 201.477 232.064 201.477C230.734 201.477 230.734 203.55 232.064 203.55Z" fill="#522C1F"/>
<path d="M229.974 196.487C222.655 194.695 215.617 191.535 209.62 186.953C207.892 185.64 206.055 188.655 207.892 189.914C214.631 194.532 221.715 197.067 229.865 197.329C230.345 197.347 230.453 196.605 229.983 196.487H229.974Z" fill="#522C1F"/>
<path d="M228.011 206.682C226.183 207.796 223.063 207.923 220.964 207.986C219.471 208.031 217.734 207.452 216.459 208.339C216.224 208.502 216.178 208.801 216.368 209.009C217.544 210.295 219.589 209.797 221.172 209.552C222.312 209.38 223.488 209.136 224.564 208.701C225.794 208.203 226.844 207.325 228.092 206.881C228.255 206.827 228.147 206.592 228.002 206.673L228.011 206.682Z" fill="#522C1F"/>
<path d="M224.908 201.714C219.942 200.491 215.21 200.908 210.524 198.355C208.516 197.259 207.105 200.392 209.285 201.288C213.89 203.19 220.421 204.91 224.935 201.904C225.008 201.859 225.008 201.732 224.908 201.705V201.714Z" fill="#522C1F"/>
<path d="M253.006 194.739C252.943 194.866 252.879 195.002 252.825 195.138C251.441 198.669 255.638 204.699 258.153 206.917C262.613 210.856 268.946 211.951 274.708 211.788C286.468 211.462 295.858 205.804 295.515 193.689C295.415 190.013 294.411 186.165 292.764 182.598C288.893 186.138 284.107 188.564 279.204 190.33C276.698 191.235 274.12 192.032 271.497 192.512C269.126 192.947 266.232 192.784 264.051 193.888C266.132 192.249 271.126 188.438 271.162 185.595C271.144 187.134 263.346 188.999 262.251 189.388C259.429 190.393 254.535 191.742 252.997 194.739H253.006Z" fill="#FAE1C0"/>
<path d="M265.707 198.996C265.047 198.733 264.305 199.041 264.025 199.702C263.726 200.417 264.115 201.259 264.875 201.468C266.422 201.893 267.182 199.575 265.707 198.996Z" fill="#522C1F"/>
<path d="M267.317 208.576C268.186 208.576 269.018 207.815 268.973 206.919C268.937 206.022 268.24 205.262 267.317 205.262C266.449 205.262 265.617 206.022 265.662 206.919C265.698 207.815 266.395 208.576 267.317 208.576Z" fill="#522C1F"/>
<path d="M271.714 203.55C273.043 203.55 273.043 201.477 271.714 201.477C270.384 201.477 270.384 203.55 271.714 203.55Z" fill="#522C1F"/>
<path d="M273.921 197.331C282.072 197.059 289.155 194.533 295.894 189.915C297.731 188.657 295.894 185.633 294.167 186.954C288.169 191.536 281.131 194.696 273.812 196.489C273.351 196.606 273.441 197.349 273.93 197.331H273.921Z" fill="#522C1F"/>
<path d="M275.685 206.891C276.906 207.326 277.946 208.186 279.15 208.675C280.235 209.128 281.447 209.381 282.605 209.553C284.179 209.798 286.242 210.277 287.409 209.01C287.608 208.793 287.554 208.494 287.318 208.34C286.052 207.453 284.315 208.032 282.813 207.987C280.715 207.923 277.594 207.797 275.766 206.683C275.631 206.602 275.513 206.837 275.676 206.891H275.685Z" fill="#522C1F"/>
<path d="M278.842 201.911C283.356 204.917 289.888 203.197 294.492 201.295C296.645 200.408 295.297 197.248 293.253 198.362C288.576 200.906 283.836 200.499 278.869 201.721C278.779 201.748 278.77 201.866 278.842 201.92V201.911Z" fill="#522C1F"/>
<path d="M271.687 183.83L252.617 194.967L233.267 183.83L244.204 139.012H261.501L271.687 183.83Z" fill="url(#paint22_linear_3022_1502)"/>
<path d="M232.724 183.531L272.012 183.721L269.018 187.569L259.456 190.476L252.418 196.108L245.95 190.856L236.569 188.321L232.724 183.531Z" fill="url(#paint23_linear_3022_1502)"/>
<path d="M272.103 183.729C271.008 186.137 268.475 187.567 265.979 188.437C263.473 189.306 260.813 189.795 258.515 191.108C256.218 192.421 252.102 194.874 252.427 197.5C252.753 194.874 248.646 192.421 246.339 191.108C244.041 189.795 241.373 189.306 238.876 188.437C236.37 187.567 233.846 186.137 232.751 183.729" stroke="#522C1F" stroke-width="2.68" stroke-linecap="round" stroke-linejoin="round"/>
<path d="M204.138 124.498L227.061 137.255L236.759 156.622L204.138 124.498Z" fill="#522C1F"/>
<path d="M237.645 162.526C237.69 158.931 237.012 156.106 235.266 152.955C233.674 150.076 231.982 145.486 229.196 143.729C228.843 143.512 228.481 143.802 228.445 144.164C228.11 147.306 230.897 150.284 232.471 152.856C234.334 155.88 236.116 159.139 236.903 162.625C236.994 163.042 237.636 162.942 237.636 162.526H237.645Z" fill="#522C1F"/>
<path d="M222.095 145.846C225.125 145.846 227.794 144.415 229.549 142.215L227.061 137.244L214.523 130.264C213.238 131.902 212.46 133.949 212.46 136.194C212.46 141.527 216.776 145.846 222.104 145.846H222.095Z" fill="#77B02C"/>
<path d="M222.167 139.627C223.985 139.627 225.478 138.269 225.722 136.512L219.878 133.262C219.082 133.923 218.566 134.91 218.566 136.023C218.566 138.015 220.177 139.627 222.167 139.627Z" fill="#522C1F"/>
<path d="M303.014 124.498L280.1 137.255L270.393 156.622L303.014 124.498Z" fill="#522C1F"/>
<path d="M270.248 162.624C271.035 159.129 272.817 155.879 274.681 152.855C276.255 150.292 279.05 147.304 278.707 144.163C278.67 143.809 278.309 143.511 277.956 143.728C275.179 145.475 273.469 150.093 271.886 152.954C270.149 156.096 269.461 158.939 269.506 162.524C269.506 162.932 270.149 163.05 270.239 162.624H270.248Z" fill="#522C1F"/>
<path d="M285.066 145.846C282.035 145.846 279.367 144.415 277.612 142.215L280.1 137.244L292.638 130.264C293.922 131.902 294.7 133.949 294.7 136.194C294.7 141.527 290.385 145.846 285.057 145.846H285.066Z" fill="#77B02C"/>
<path d="M284.985 139.627C283.167 139.627 281.674 138.269 281.43 136.512L287.274 133.262C288.07 133.923 288.585 134.91 288.585 136.023C288.585 138.015 286.975 139.627 284.985 139.627Z" fill="#522C1F"/>
<g style="mix-blend-mode:multiply">
<path d="M175.234 280.582C159.105 253.428 145.653 224.808 130.355 197.184C121.427 200.135 114.579 208.854 114.642 218.416C114.823 244.501 123.987 279.269 123.987 279.269C123.833 296.327 121.354 309.465 118.098 319.415C113.43 333.666 122.784 346.904 137.303 346.904H192.947V308.659C186.813 299.451 180.879 290.107 175.225 280.591L175.234 280.582Z" fill="#E5D6CE"/>
</g>
<path d="M204.544 307.808L341.741 319.596C341.741 319.596 365.297 326.423 365.297 346.895H149.923C135.403 346.895 124.358 333.657 127.198 319.406C129.18 309.456 129.976 296.318 127.949 279.26C127.949 279.26 114.326 244.492 110.807 218.416C109.214 206.627 118.297 196.115 130.184 196.115C137.556 196.115 144.305 200.271 147.634 206.854L204.544 307.799V307.808Z" fill="url(#paint24_linear_3022_1502)"/>
<path style="mix-blend-mode:soft-light" d="M323.323 328.233C333.518 328.233 341.786 336.508 341.786 346.712V346.893H365.297C365.297 326.413 341.741 319.595 341.741 319.595L204.545 307.806L147.634 206.861L193.463 319.64L323.323 328.242V328.233Z" fill="url(#paint25_linear_3022_1502)"/>
<path d="M121.282 201.784C132.581 200.652 143.31 205.895 150.556 214.297C152.176 216.171 155.559 213.627 154.03 211.617C146.178 201.241 133.459 197.357 121.074 200.245C120.233 200.444 120.387 201.875 121.282 201.784Z" fill="#522C1F"/>
<path d="M126.05 219.177C134.472 217.937 141.791 224.23 148.087 228.947C154.166 233.501 159.91 238.408 165.537 243.506C167.518 245.308 170.467 242.392 168.486 240.554C161.928 234.461 154.881 228.711 147.445 223.704C140.895 219.286 133.721 215.845 125.761 218.145C125.082 218.344 125.381 219.277 126.041 219.177H126.05Z" fill="#522C1F"/>
<path d="M152.167 315.848C143.754 323.427 139.022 332.517 138.742 343.944C138.715 344.849 139.429 345.863 140.343 346.053C140.805 346.153 141.049 346.171 141.501 346.053C142.433 345.827 143.093 344.885 143.102 343.944C143.184 334.355 146.694 324.033 153.325 317.007C154.057 316.238 152.945 315.142 152.167 315.848Z" fill="#522C1F"/>
<path d="M149.86 331.72C147.67 336.02 146.377 340.502 146.096 345.328C145.97 347.456 149.344 347.474 149.416 345.328C149.552 340.946 150.357 336.69 151.949 332.607C152.42 331.403 150.448 330.579 149.86 331.729V331.72Z" fill="#522C1F"/>
<path d="M145.508 260.779C138.624 266.094 128.23 273.672 127.958 283.387C127.931 284.383 129.315 285.026 130.003 284.229C132.898 280.888 134.2 276.37 136.969 272.839C139.9 269.091 143.301 265.614 146.666 262.255C147.399 261.521 146.395 260.091 145.517 260.77L145.508 260.779Z" fill="#522C1F"/>
<path d="M141.374 276.77C138.687 278.572 136.227 280.664 134.119 283.136C132.274 285.3 129.885 288.124 129.442 291.013C129.279 292.072 130.591 293.222 131.468 292.199C133.178 290.207 134.119 287.572 135.693 285.435C137.593 282.846 139.909 280.6 142.487 278.69C143.609 277.866 142.577 275.974 141.374 276.78V276.77Z" fill="#522C1F"/>
<path d="M183.005 326.189C185.792 322.006 189.483 318.438 193.689 315.677C197.371 313.259 201.912 312.444 205.431 310.036C206.888 309.04 206.309 306.894 204.545 306.776C200.022 306.469 194.811 310.054 191.473 312.816C187.248 316.301 184.326 320.693 182.164 325.7C181.92 326.261 182.644 326.714 182.996 326.189H183.005Z" fill="#522C1F"/>
<path d="M195.209 327.094C197.298 320.511 200.193 314.065 205.63 309.619C207.032 308.478 205.241 306.423 203.766 307.211C197.072 310.742 195.661 320.185 194.205 326.822C194.06 327.474 195.001 327.736 195.2 327.094H195.209Z" fill="#522C1F"/>
<path d="M238.622 334.064C239.201 328.894 241.879 324.684 245.886 321.442C247.614 320.048 249.559 318.835 251.649 318.056C253.476 317.377 255.457 317.404 257.067 316.272C258.225 315.449 257.954 313.946 256.696 313.429C252.237 311.591 245.678 316.408 242.846 319.586C239.327 323.543 237.5 328.813 237.401 334.064C237.383 334.861 238.531 334.824 238.613 334.064H238.622Z" fill="#522C1F"/>
<path d="M265.562 328.695C267.977 323.479 271.505 319.804 276.001 316.345C277.431 315.249 276.164 312.823 274.545 313.846C269.615 316.979 265.824 322.203 263.563 327.527C262.993 328.876 264.929 330.071 265.562 328.695Z" fill="#522C1F"/>
<path d="M142.84 296.373C153.524 283.616 172.059 279.623 187.194 285.861C189.926 286.984 191.147 282.511 188.415 281.415C179.631 277.884 169.436 277.332 160.489 280.691C152.51 283.688 147.065 289.066 142.469 296.083C142.324 296.3 142.659 296.572 142.831 296.364L142.84 296.373Z" fill="#522C1F"/>
<path d="M170.965 287.517C170.829 287.517 170.702 287.517 170.567 287.508V289.428C173.425 289.6 176.293 289.4 179.142 289.735C181.793 290.043 184.335 291.094 187.004 291.075C188.288 291.075 189.256 289.246 188.144 288.332C183.657 284.656 174.99 284.937 170.087 287.644C169.164 288.151 169.807 289.817 170.829 289.4C170.956 289.346 171.082 289.301 171.2 289.246C172.068 288.884 172.023 287.562 170.965 287.526V287.517Z" fill="#522C1F"/>
<path d="M336.612 327.408C342.519 331.736 347.006 338.609 347.947 345.924C348.3 348.65 352.135 348.179 351.701 345.417C350.326 336.761 345.323 329.781 337.318 326.204C336.494 325.842 335.888 326.874 336.612 327.408Z" fill="#522C1F"/>
<path d="M353.519 331.484C356.577 335.124 357.717 341.39 358.042 346.025C358.205 348.379 361.923 348.379 361.715 346.025C361.163 339.841 359.245 334.445 354.143 330.678C353.637 330.307 353.166 331.077 353.519 331.493V331.484Z" fill="#522C1F"/>
<path d="M401.64 165.36L402.4 163.68C404.667 163.733 406.56 164.093 408.08 164.76C409.6 165.4 410.733 166.293 411.48 167.44C412.227 168.587 412.6 169.933 412.6 171.48C412.6 173.107 412.227 174.573 411.48 175.88C410.76 177.16 409.653 178.173 408.16 178.92C406.667 179.64 404.813 180 402.6 180H379.76V164.6V150H401.76C404.533 150 406.693 150.653 408.24 151.96C409.813 153.24 410.6 155.027 410.6 157.32C410.6 158.6 410.307 159.813 409.72 160.96C409.16 162.107 408.213 163.08 406.88 163.88C405.573 164.653 403.827 165.147 401.64 165.36ZM388.88 177.92L385.32 173.68H399.84C400.88 173.68 401.693 173.427 402.28 172.92C402.867 172.387 403.16 171.653 403.16 170.72C403.16 169.84 402.853 169.12 402.24 168.56C401.627 167.973 400.733 167.68 399.56 167.68H385.4V161.52H398.24C399.067 161.52 399.76 161.267 400.32 160.76C400.88 160.253 401.16 159.587 401.16 158.76C401.16 158.067 400.907 157.493 400.4 157.04C399.92 156.56 399.227 156.32 398.32 156.32H385.36L388.88 152.08V164.6V177.92ZM433.181 180.68C429.581 180.68 426.421 180.027 423.701 178.72C421.008 177.413 418.901 175.587 417.381 173.24C415.888 170.893 415.141 168.147 415.141 165C415.141 161.853 415.888 159.107 417.381 156.76C418.901 154.413 421.008 152.587 423.701 151.28C426.421 149.973 429.581 149.32 433.181 149.32C436.781 149.32 439.928 149.973 442.621 151.28C445.341 152.587 447.448 154.413 448.941 156.76C450.461 159.107 451.221 161.853 451.221 165C451.221 168.147 450.461 170.893 448.941 173.24C447.448 175.587 445.341 177.413 442.621 178.72C439.928 180.027 436.781 180.68 433.181 180.68ZM433.181 172.4C434.968 172.4 436.501 172.107 437.781 171.52C439.088 170.907 440.088 170.053 440.781 168.96C441.475 167.84 441.821 166.52 441.821 165C441.821 163.48 441.475 162.173 440.781 161.08C440.088 159.96 439.088 159.107 437.781 158.52C436.501 157.907 434.968 157.6 433.181 157.6C431.395 157.6 429.848 157.907 428.541 158.52C427.261 159.107 426.275 159.96 425.581 161.08C424.888 162.173 424.541 163.48 424.541 165C424.541 166.52 424.888 167.84 425.581 168.96C426.275 170.053 427.261 170.907 428.541 171.52C429.848 172.107 431.395 172.4 433.181 172.4ZM489.09 167.24C488.77 169.907 487.837 172.253 486.29 174.28C484.77 176.307 482.744 177.88 480.21 179C477.704 180.12 474.824 180.68 471.57 180.68C468.05 180.68 464.97 180.027 462.33 178.72C459.69 177.413 457.637 175.587 456.17 173.24C454.704 170.893 453.97 168.147 453.97 165C453.97 161.853 454.704 159.107 456.17 156.76C457.637 154.413 459.69 152.587 462.33 151.28C464.97 149.973 468.05 149.32 471.57 149.32C474.824 149.32 477.704 149.88 480.21 151C482.744 152.12 484.77 153.693 486.29 155.72C487.837 157.72 488.77 160.067 489.09 162.76H479.73C479.464 161.613 478.97 160.64 478.25 159.84C477.557 159.013 476.65 158.387 475.53 157.96C474.41 157.507 473.09 157.28 471.57 157.28C469.864 157.28 468.397 157.587 467.17 158.2C465.944 158.813 464.997 159.707 464.33 160.88C463.664 162.027 463.33 163.4 463.33 165C463.33 166.6 463.664 167.973 464.33 169.12C464.997 170.267 465.944 171.16 467.17 171.8C468.397 172.413 469.864 172.72 471.57 172.72C473.09 172.72 474.41 172.52 475.53 172.12C476.65 171.693 477.557 171.067 478.25 170.24C478.97 169.413 479.464 168.413 479.73 167.24H489.09ZM501.17 154.04H510.49V180H501.17V154.04ZM490.05 150H521.61V158.28H490.05V150ZM540.681 180.68C537.081 180.68 533.921 180.027 531.201 178.72C528.508 177.413 526.401 175.587 524.881 173.24C523.388 170.893 522.641 168.147 522.641 165C522.641 161.853 523.388 159.107 524.881 156.76C526.401 154.413 528.508 152.587 531.201 151.28C533.921 149.973 537.081 149.32 540.681 149.32C544.281 149.32 547.428 149.973 550.121 151.28C552.841 152.587 554.948 154.413 556.441 156.76C557.961 159.107 558.721 161.853 558.721 165C558.721 168.147 557.961 170.893 556.441 173.24C554.948 175.587 552.841 177.413 550.121 178.72C547.428 180.027 544.281 180.68 540.681 180.68ZM540.681 172.4C542.468 172.4 544.001 172.107 545.281 171.52C546.588 170.907 547.588 170.053 548.281 168.96C548.975 167.84 549.321 166.52 549.321 165C549.321 163.48 548.975 162.173 548.281 161.08C547.588 159.96 546.588 159.107 545.281 158.52C544.001 157.907 542.468 157.6 540.681 157.6C538.895 157.6 537.348 157.907 536.041 158.52C534.761 159.107 533.775 159.96 533.081 161.08C532.388 162.173 532.041 163.48 532.041 165C532.041 166.52 532.388 167.84 533.081 168.96C533.775 170.053 534.761 170.907 536.041 171.52C537.348 172.107 538.895 172.4 540.681 172.4ZM562.67 180V150H571.91V180H562.67ZM575.03 164.68L587.07 150H597.23L585.15 164.16L597.67 180H586.71L575.03 164.68ZM567.91 160.6H584.03V168.84H567.91V160.6ZM646.884 175.96L644.084 176L650.964 150H660.804L652.004 180H640.044L631.804 155H635.524L627.284 180H615.324L606.524 150H616.404L623.284 175.96L620.524 175.92L628.764 150H638.564L646.884 175.96ZM689.964 161.72V168.28H667.244V161.72H689.964ZM672.164 165V176.6L668.524 172.56H691.364V180H662.924V165V150H691.164V157.44H668.524L672.164 153.4V165ZM716.913 165.36L717.673 163.68C719.94 163.733 721.833 164.093 723.353 164.76C724.873 165.4 726.007 166.293 726.753 167.44C727.5 168.587 727.873 169.933 727.873 171.48C727.873 173.107 727.5 174.573 726.753 175.88C726.033 177.16 724.927 178.173 723.433 178.92C721.94 179.64 720.087 180 717.873 180H695.033V164.6V150H717.033C719.807 150 721.967 150.653 723.513 151.96C725.087 153.24 725.873 155.027 725.873 157.32C725.873 158.6 725.58 159.813 724.993 160.96C724.433 162.107 723.487 163.08 722.153 163.88C720.847 164.653 719.1 165.147 716.913 165.36ZM704.153 177.92L700.593 173.68H715.113C716.153 173.68 716.967 173.427 717.553 172.92C718.14 172.387 718.433 171.653 718.433 170.72C718.433 169.84 718.127 169.12 717.513 168.56C716.9 167.973 716.007 167.68 714.833 167.68H700.673V161.52H713.513C714.34 161.52 715.033 161.267 715.593 160.76C716.153 160.253 716.433 159.587 716.433 158.76C716.433 158.067 716.18 157.493 715.673 157.04C715.193 156.56 714.5 156.32 713.593 156.32H700.633L704.153 152.08V164.6V177.92Z" fill="white"/>
<path d="M387.568 212.944V210H379.264V198.688H381.264V208.176H386.208V198.688H388.208V208.176H389.552V212.944H387.568ZM392.165 210V198.688H394.165V206.704L399.797 198.688H401.589V210H399.589V202.08L393.941 210H392.165ZM409.846 210.208V208.4H409.014C408.108 208.389 407.324 208.208 406.662 207.856C406.001 207.504 405.494 207.003 405.142 206.352C404.79 205.691 404.614 204.912 404.614 204.016C404.625 203.077 404.822 202.288 405.206 201.648C405.59 201.008 406.124 200.523 406.806 200.192C407.489 199.861 408.268 199.696 409.142 199.696H409.846V198.128H411.846V199.696H412.486C413.361 199.696 414.145 199.861 414.838 200.192C415.532 200.523 416.076 201.008 416.47 201.648C416.865 202.277 417.068 203.056 417.078 203.984C417.089 204.901 416.913 205.691 416.55 206.352C416.188 207.003 415.67 207.504 414.998 207.856C414.337 208.208 413.542 208.389 412.614 208.4H411.846V210.208H409.846ZM409.206 206.688H409.846V201.408H409.238C408.673 201.408 408.193 201.52 407.798 201.744C407.404 201.968 407.1 202.272 406.886 202.656C406.684 203.04 406.582 203.477 406.582 203.968C406.582 204.491 406.673 204.96 406.854 205.376C407.046 205.792 407.334 206.117 407.718 206.352C408.113 206.576 408.609 206.688 409.206 206.688ZM411.846 206.688H412.47C413.078 206.688 413.574 206.576 413.958 206.352C414.353 206.117 414.641 205.792 414.822 205.376C415.014 204.96 415.11 204.491 415.11 203.968C415.11 203.467 415.004 203.024 414.79 202.64C414.588 202.256 414.284 201.957 413.878 201.744C413.484 201.52 413.004 201.408 412.438 201.408H411.846V206.688ZM420.108 210V198.688H424.364C425.218 198.688 425.954 198.821 426.572 199.088C427.202 199.344 427.687 199.755 428.028 200.32C428.38 200.885 428.556 201.627 428.556 202.544C428.556 203.419 428.364 204.149 427.98 204.736C427.596 205.323 427.074 205.765 426.412 206.064C425.751 206.352 424.994 206.496 424.14 206.496H422.108V210H420.108ZM422.108 204.704H424.108C424.844 204.704 425.436 204.528 425.884 204.176C426.332 203.824 426.556 203.269 426.556 202.512C426.556 201.851 426.37 201.355 425.996 201.024C425.623 200.683 425.047 200.512 424.268 200.512H422.108V204.704ZM436.53 210.128C435.367 210.128 434.375 209.883 433.554 209.392C432.743 208.901 432.119 208.219 431.682 207.344C431.255 206.469 431.042 205.472 431.042 204.352C431.042 203.211 431.261 202.208 431.698 201.344C432.135 200.469 432.765 199.787 433.586 199.296C434.407 198.795 435.399 198.544 436.562 198.544C437.725 198.544 438.711 198.789 439.522 199.28C440.343 199.771 440.973 200.453 441.41 201.328C441.847 202.192 442.066 203.189 442.066 204.32C442.066 205.44 441.847 206.437 441.41 207.312C440.983 208.187 440.354 208.875 439.522 209.376C438.701 209.877 437.703 210.128 436.53 210.128ZM436.562 208.272C437.373 208.272 438.034 208.085 438.546 207.712C439.058 207.339 439.431 206.853 439.666 206.256C439.911 205.659 440.034 205.024 440.034 204.352C440.034 203.84 439.965 203.349 439.826 202.88C439.698 202.411 439.49 201.989 439.202 201.616C438.925 201.243 438.567 200.949 438.13 200.736C437.693 200.512 437.17 200.4 436.562 200.4C435.762 200.4 435.101 200.587 434.578 200.96C434.066 201.333 433.687 201.819 433.442 202.416C433.197 203.013 433.074 203.659 433.074 204.352C433.074 205.035 433.197 205.675 433.442 206.272C433.687 206.869 434.066 207.355 434.578 207.728C435.101 208.091 435.762 208.272 436.562 208.272ZM445.067 210V198.688H449.707C450.229 198.688 450.709 198.736 451.147 198.832C451.595 198.917 451.979 199.072 452.299 199.296C452.629 199.52 452.885 199.819 453.067 200.192C453.248 200.565 453.339 201.029 453.339 201.584C453.339 202.096 453.221 202.565 452.987 202.992C452.752 203.408 452.405 203.723 451.947 203.936C452.565 204.096 453.04 204.411 453.371 204.88C453.701 205.339 453.867 205.936 453.867 206.672C453.867 207.323 453.744 207.867 453.499 208.304C453.264 208.731 452.933 209.072 452.507 209.328C452.091 209.573 451.611 209.749 451.067 209.856C450.523 209.952 449.947 210 449.339 210H445.067ZM447.067 208.176H449.451C449.749 208.176 450.043 208.155 450.331 208.112C450.619 208.069 450.88 207.995 451.115 207.888C451.349 207.781 451.531 207.627 451.659 207.424C451.797 207.211 451.867 206.939 451.867 206.608C451.867 206.309 451.813 206.064 451.707 205.872C451.6 205.68 451.451 205.531 451.259 205.424C451.077 205.307 450.859 205.227 450.603 205.184C450.347 205.131 450.08 205.104 449.803 205.104H447.067V208.176ZM447.067 203.424H449.179C449.509 203.424 449.808 203.392 450.075 203.328C450.341 203.264 450.571 203.168 450.763 203.04C450.955 202.912 451.104 202.752 451.211 202.56C451.317 202.357 451.371 202.117 451.371 201.84C451.371 201.467 451.285 201.189 451.115 201.008C450.955 200.816 450.731 200.688 450.443 200.624C450.155 200.549 449.835 200.512 449.483 200.512H447.067V203.424ZM455.706 210L460.042 198.688H462.426L466.746 210H464.586L463.834 207.904H458.618L457.85 210H455.706ZM459.258 206.096H463.178L461.226 200.704L459.258 206.096ZM468.734 210L471.438 205.68C470.67 205.456 470.062 205.067 469.614 204.512C469.166 203.957 468.942 203.227 468.942 202.32C468.942 201.637 469.048 201.067 469.262 200.608C469.486 200.139 469.795 199.765 470.19 199.488C470.584 199.2 471.048 198.997 471.582 198.88C472.126 198.752 472.707 198.688 473.326 198.688H477.678V210H475.678V206.016H473.406L471.054 210H468.734ZM473.486 204.24H475.678V200.512H473.198C472.718 200.512 472.307 200.576 471.966 200.704C471.624 200.832 471.363 201.029 471.182 201.296C471.011 201.563 470.926 201.909 470.926 202.336C470.926 202.848 471.048 203.243 471.294 203.52C471.539 203.787 471.854 203.973 472.238 204.08C472.632 204.187 473.048 204.24 473.486 204.24ZM491.659 210.128C490.485 210.128 489.499 209.888 488.699 209.408C487.899 208.917 487.296 208.24 486.891 207.376C486.485 206.512 486.283 205.509 486.283 204.368C486.283 203.227 486.491 202.219 486.907 201.344C487.323 200.469 487.931 199.787 488.731 199.296C489.531 198.795 490.507 198.544 491.659 198.544C492.512 198.544 493.264 198.688 493.915 198.976C494.565 199.264 495.093 199.675 495.499 200.208C495.915 200.731 496.181 201.376 496.299 202.144H494.363C494.213 201.6 493.909 201.173 493.451 200.864C492.992 200.555 492.395 200.4 491.659 200.4C490.859 200.4 490.213 200.587 489.723 200.96C489.232 201.333 488.875 201.813 488.651 202.4C488.437 202.987 488.331 203.616 488.331 204.288C488.331 204.981 488.443 205.632 488.667 206.24C488.901 206.848 489.269 207.339 489.771 207.712C490.272 208.085 490.917 208.272 491.707 208.272C492.197 208.272 492.624 208.203 492.987 208.064C493.36 207.925 493.669 207.728 493.915 207.472C494.171 207.205 494.347 206.896 494.443 206.544H496.475C496.347 207.301 496.059 207.947 495.611 208.48C495.173 209.013 494.613 209.424 493.931 209.712C493.259 209.989 492.501 210.128 491.659 210.128ZM499.495 210V198.688H501.495V206.704L507.127 198.688H508.919V210H506.919V202.08L501.271 210H499.495ZM511.48 210.08V208.16C511.822 208.16 512.094 208.096 512.296 207.968C512.51 207.829 512.675 207.643 512.792 207.408C512.92 207.163 513.011 206.891 513.064 206.592C513.128 206.272 513.171 205.947 513.192 205.616C513.224 205.275 513.246 204.939 513.256 204.608C513.278 204.277 513.288 203.979 513.288 203.712L513.352 198.688H521.208V210H519.224V200.512H515.256L515.192 203.504C515.182 204.304 515.16 205.067 515.128 205.792C515.107 206.507 515.032 207.152 514.904 207.728C514.776 208.304 514.536 208.784 514.184 209.168C513.896 209.488 513.539 209.717 513.112 209.856C512.696 209.984 512.152 210.059 511.48 210.08ZM523.66 210L527.996 198.688H530.38L534.7 210H532.54L531.788 207.904H526.572L525.804 210H523.66ZM527.212 206.096H531.132L529.18 200.704L527.212 206.096ZM541.717 212.944V208.176C542.144 208.176 542.459 208.08 542.661 207.888C542.875 207.685 543.029 207.435 543.125 207.136C543.221 206.837 543.296 206.512 543.349 206.16C543.403 205.797 543.445 205.429 543.477 205.056C543.52 204.683 543.552 204.315 543.573 203.952C543.627 203.045 543.664 202.16 543.685 201.296C543.707 200.421 543.723 199.552 543.733 198.688H551.477V208.176H552.837V212.944H550.837V210H543.717V212.944H541.717ZM544.885 208.176H549.477V200.512H545.605L545.493 204.352C545.483 204.587 545.467 204.864 545.445 205.184C545.435 205.493 545.408 205.819 545.365 206.16C545.323 206.501 545.264 206.848 545.189 207.2C545.115 207.541 545.013 207.867 544.885 208.176ZM554.583 210L558.919 198.688H561.303L565.623 210H563.463L562.711 207.904H557.495L556.727 210H554.583ZM558.135 206.096H562.055L560.103 200.704L558.135 206.096ZM567.143 210.08V208.16C567.484 208.16 567.756 208.096 567.959 207.968C568.172 207.829 568.338 207.643 568.455 207.408C568.583 207.163 568.674 206.891 568.727 206.592C568.791 206.272 568.834 205.947 568.855 205.616C568.887 205.275 568.908 204.939 568.919 204.608C568.94 204.277 568.951 203.979 568.951 203.712L569.015 198.688H576.871V210H574.887V200.512H570.919L570.855 203.504C570.844 204.304 570.823 205.067 570.791 205.792C570.77 206.507 570.695 207.152 570.567 207.728C570.439 208.304 570.199 208.784 569.847 209.168C569.559 209.488 569.202 209.717 568.775 209.856C568.359 209.984 567.815 210.059 567.143 210.08ZM580.507 210V198.688H582.507V203.04H584.763C585.339 203.04 585.883 203.088 586.395 203.184C586.907 203.28 587.36 203.451 587.755 203.696C588.149 203.941 588.459 204.277 588.683 204.704C588.907 205.131 589.019 205.68 589.019 206.352C589.029 207.056 588.907 207.648 588.651 208.128C588.405 208.597 588.069 208.971 587.643 209.248C587.216 209.525 586.725 209.723 586.171 209.84C585.627 209.947 585.056 210 584.459 210H580.507ZM582.507 208.176H584.459C584.8 208.176 585.125 208.155 585.435 208.112C585.744 208.069 586.016 207.989 586.251 207.872C586.496 207.744 586.683 207.568 586.811 207.344C586.949 207.109 587.019 206.805 587.019 206.432C587.019 206.069 586.955 205.781 586.827 205.568C586.699 205.355 586.523 205.195 586.299 205.088C586.075 204.981 585.819 204.912 585.531 204.88C585.243 204.837 584.939 204.816 584.619 204.816H582.507V208.176ZM592.08 210V198.688H594.08V203.52H599.36V198.688H601.344V210H599.36V205.344H594.08V210H592.08ZM604.997 210V198.688H612.981V200.512H606.997V203.488H612.197V205.28H606.997V208.176H612.981V210H604.997ZM616.008 210V198.688H623.656V200.512H618.008V210H616.008ZM630.773 210.128C629.61 210.128 628.618 209.883 627.797 209.392C626.986 208.901 626.362 208.219 625.925 207.344C625.498 206.469 625.285 205.472 625.285 204.352C625.285 203.211 625.504 202.208 625.941 201.344C626.378 200.469 627.008 199.787 627.829 199.296C628.65 198.795 629.642 198.544 630.805 198.544C631.968 198.544 632.954 198.789 633.765 199.28C634.586 199.771 635.216 200.453 635.653 201.328C636.09 202.192 636.309 203.189 636.309 204.32C636.309 205.44 636.09 206.437 635.653 207.312C635.226 208.187 634.597 208.875 633.765 209.376C632.944 209.877 631.946 210.128 630.773 210.128ZM630.805 208.272C631.616 208.272 632.277 208.085 632.789 207.712C633.301 207.339 633.674 206.853 633.909 206.256C634.154 205.659 634.277 205.024 634.277 204.352C634.277 203.84 634.208 203.349 634.069 202.88C633.941 202.411 633.733 201.989 633.445 201.616C633.168 201.243 632.81 200.949 632.373 200.736C631.936 200.512 631.413 200.4 630.805 200.4C630.005 200.4 629.344 200.587 628.821 200.96C628.309 201.333 627.93 201.819 627.685 202.416C627.44 203.013 627.317 203.659 627.317 204.352C627.317 205.035 627.44 205.675 627.685 206.272C627.93 206.869 628.309 207.355 628.821 207.728C629.344 208.091 630.005 208.272 630.805 208.272ZM644.883 210V198.688H649.523C650.046 198.688 650.526 198.736 650.963 198.832C651.411 198.917 651.795 199.072 652.115 199.296C652.446 199.52 652.702 199.819 652.883 200.192C653.064 200.565 653.155 201.029 653.155 201.584C653.155 202.096 653.038 202.565 652.803 202.992C652.568 203.408 652.222 203.723 651.763 203.936C652.382 204.096 652.856 204.411 653.187 204.88C653.518 205.339 653.683 205.936 653.683 206.672C653.683 207.323 653.56 207.867 653.315 208.304C653.08 208.731 652.75 209.072 652.323 209.328C651.907 209.573 651.427 209.749 650.883 209.856C650.339 209.952 649.763 210 649.155 210H644.883ZM646.883 208.176H649.267C649.566 208.176 649.859 208.155 650.147 208.112C650.435 208.069 650.696 207.995 650.931 207.888C651.166 207.781 651.347 207.627 651.475 207.424C651.614 207.211 651.683 206.939 651.683 206.608C651.683 206.309 651.63 206.064 651.523 205.872C651.416 205.68 651.267 205.531 651.075 205.424C650.894 205.307 650.675 205.227 650.419 205.184C650.163 205.131 649.896 205.104 649.619 205.104H646.883V208.176ZM646.883 203.424H648.995C649.326 203.424 649.624 203.392 649.891 203.328C650.158 203.264 650.387 203.168 650.579 203.04C650.771 202.912 650.92 202.752 651.027 202.56C651.134 202.357 651.187 202.117 651.187 201.84C651.187 201.467 651.102 201.189 650.931 201.008C650.771 200.816 650.547 200.688 650.259 200.624C649.971 200.549 649.651 200.512 649.299 200.512H646.883V203.424ZM661.586 210.128C660.423 210.128 659.431 209.883 658.61 209.392C657.799 208.901 657.175 208.219 656.738 207.344C656.311 206.469 656.098 205.472 656.098 204.352C656.098 203.211 656.317 202.208 656.754 201.344C657.191 200.469 657.821 199.787 658.642 199.296C659.463 198.795 660.455 198.544 661.618 198.544C662.781 198.544 663.767 198.789 664.578 199.28C665.399 199.771 666.029 200.453 666.466 201.328C666.903 202.192 667.122 203.189 667.122 204.32C667.122 205.44 666.903 206.437 666.466 207.312C666.039 208.187 665.41 208.875 664.578 209.376C663.757 209.877 662.759 210.128 661.586 210.128ZM661.618 208.272C662.429 208.272 663.09 208.085 663.602 207.712C664.114 207.339 664.487 206.853 664.722 206.256C664.967 205.659 665.09 205.024 665.09 204.352C665.09 203.84 665.021 203.349 664.882 202.88C664.754 202.411 664.546 201.989 664.258 201.616C663.981 201.243 663.623 200.949 663.186 200.736C662.749 200.512 662.226 200.4 661.618 200.4C660.818 200.4 660.157 200.587 659.634 200.96C659.122 201.333 658.743 201.819 658.498 202.416C658.253 203.013 658.13 203.659 658.13 204.352C658.13 205.035 658.253 205.675 658.498 206.272C658.743 206.869 659.122 207.355 659.634 207.728C660.157 208.091 660.818 208.272 661.618 208.272ZM674.938 210.128C673.765 210.128 672.778 209.888 671.978 209.408C671.178 208.917 670.575 208.24 670.17 207.376C669.765 206.512 669.562 205.509 669.562 204.368C669.562 203.227 669.77 202.219 670.186 201.344C670.602 200.469 671.21 199.787 672.01 199.296C672.81 198.795 673.786 198.544 674.938 198.544C675.791 198.544 676.543 198.688 677.194 198.976C677.845 199.264 678.373 199.675 678.778 200.208C679.194 200.731 679.461 201.376 679.578 202.144H677.642C677.493 201.6 677.189 201.173 676.73 200.864C676.271 200.555 675.674 200.4 674.938 200.4C674.138 200.4 673.493 200.587 673.002 200.96C672.511 201.333 672.154 201.813 671.93 202.4C671.717 202.987 671.61 203.616 671.61 204.288C671.61 204.981 671.722 205.632 671.946 206.24C672.181 206.848 672.549 207.339 673.05 207.712C673.551 208.085 674.197 208.272 674.986 208.272C675.477 208.272 675.903 208.203 676.266 208.064C676.639 207.925 676.949 207.728 677.194 207.472C677.45 207.205 677.626 206.896 677.722 206.544H679.754C679.626 207.301 679.338 207.947 678.89 208.48C678.453 209.013 677.893 209.424 677.21 209.712C676.538 209.989 675.781 210.128 674.938 210.128ZM685.05 210V200.512H681.514V198.688H690.57V200.512H687.034V210H685.05ZM697.665 210.128C696.502 210.128 695.51 209.883 694.689 209.392C693.878 208.901 693.254 208.219 692.817 207.344C692.39 206.469 692.177 205.472 692.177 204.352C692.177 203.211 692.396 202.208 692.833 201.344C693.27 200.469 693.9 199.787 694.721 199.296C695.542 198.795 696.534 198.544 697.697 198.544C698.86 198.544 699.846 198.789 700.657 199.28C701.478 199.771 702.108 200.453 702.545 201.328C702.982 202.192 703.201 203.189 703.201 204.32C703.201 205.44 702.982 206.437 702.545 207.312C702.118 208.187 701.489 208.875 700.657 209.376C699.836 209.877 698.838 210.128 697.665 210.128ZM697.697 208.272C698.508 208.272 699.169 208.085 699.681 207.712C700.193 207.339 700.566 206.853 700.801 206.256C701.046 205.659 701.169 205.024 701.169 204.352C701.169 203.84 701.1 203.349 700.961 202.88C700.833 202.411 700.625 201.989 700.337 201.616C700.06 201.243 699.702 200.949 699.265 200.736C698.828 200.512 698.305 200.4 697.697 200.4C696.897 200.4 696.236 200.587 695.713 200.96C695.201 201.333 694.822 201.819 694.577 202.416C694.332 203.013 694.209 203.659 694.209 204.352C694.209 205.035 694.332 205.675 694.577 206.272C694.822 206.869 695.201 207.355 695.713 207.728C696.236 208.091 696.897 208.272 697.697 208.272ZM706.218 210V198.688H708.218V203.552H709.85L713.034 198.688H715.306L711.53 204.224L715.322 210H712.986L709.946 205.376H708.218V210H706.218ZM716.653 210L720.989 198.688H723.373L727.693 210H725.533L724.781 207.904H719.565L718.797 210H716.653ZM720.205 206.096H724.125L722.173 200.704L720.205 206.096Z" fill="white"/>
<defs>
<linearGradient id="paint0_linear_3022_1502" x1="406.594" y1="249.589" x2="391.325" y2="333.499" gradientUnits="userSpaceOnUse">
<stop stop-color="#FCC26A"/>
<stop offset="0.17" stop-color="#F8B95F"/>
<stop offset="0.45" stop-color="#EFA244"/>
<stop offset="0.81" stop-color="#E17D19"/>
<stop offset="1" stop-color="#D96800"/>
</linearGradient>
<linearGradient id="paint1_linear_3022_1502" x1="406.82" y1="248.341" x2="393.817" y2="319.811" gradientUnits="userSpaceOnUse">
<stop stop-color="white"/>
<stop offset="1" stop-color="white" stop-opacity="0"/>
</linearGradient>
<linearGradient id="paint2_linear_3022_1502" x1="583.458" y1="302.431" x2="352.985" y2="302.431" gradientUnits="userSpaceOnUse">
<stop stop-color="#FCC26A"/>
<stop offset="0.17" stop-color="#F8B95F"/>
<stop offset="0.45" stop-color="#EFA244"/>
<stop offset="0.81" stop-color="#E17D19"/>
<stop offset="1" stop-color="#D96800"/>
</linearGradient>
<linearGradient id="paint3_linear_3022_1502" x1="412.709" y1="339.018" x2="414.73" y2="455.69" gradientUnits="userSpaceOnUse">
<stop stop-color="#FAE1C0"/>
<stop offset="1" stop-color="#DEB896"/>
</linearGradient>
<linearGradient id="paint4_linear_3022_1502" x1="475.87" y1="302.43" x2="282.705" y2="302.43" gradientUnits="userSpaceOnUse">
<stop stop-color="white"/>
<stop offset="1" stop-color="white" stop-opacity="0"/>
</linearGradient>
<linearGradient id="paint5_linear_3022_1502" x1="80.4382" y1="218.643" x2="238.608" y2="237.913" gradientUnits="userSpaceOnUse">
<stop stop-color="#FCC26A"/>
<stop offset="1" stop-color="#D96800"/>
</linearGradient>
<linearGradient id="paint6_linear_3022_1502" x1="208.091" y1="199.05" x2="183.561" y2="354.259" gradientUnits="userSpaceOnUse">
<stop stop-color="#FCC26A"/>
<stop offset="1" stop-color="#D96800"/>
</linearGradient>
<linearGradient id="paint7_linear_3022_1502" x1="125.172" y1="125.493" x2="118.33" y2="265.896" gradientUnits="userSpaceOnUse">
<stop stop-color="white"/>
<stop offset="0.82" stop-color="white" stop-opacity="0"/>
</linearGradient>
<linearGradient id="paint8_linear_3022_1502" x1="241.797" y1="288.341" x2="241.797" y2="147.539" gradientUnits="userSpaceOnUse">
<stop stop-color="#FAE1C0"/>
<stop offset="1" stop-color="#DEB896"/>
</linearGradient>
<linearGradient id="paint9_linear_3022_1502" x1="313.064" y1="107.973" x2="313.064" y2="64.1598" gradientUnits="userSpaceOnUse">
<stop stop-color="#FAE1C0"/>
<stop offset="1" stop-color="#BD9068"/>
</linearGradient>
<linearGradient id="paint10_linear_3022_1502" x1="296.609" y1="79.7693" x2="318.04" y2="79.7693" gradientUnits="userSpaceOnUse">
<stop stop-color="#FCC26A"/>
<stop offset="1" stop-color="#D96800"/>
</linearGradient>
<linearGradient id="paint11_linear_3022_1502" x1="191.681" y1="107.973" x2="191.681" y2="64.1598" gradientUnits="userSpaceOnUse">
<stop stop-color="#FAE1C0"/>
<stop offset="1" stop-color="#BD9068"/>
</linearGradient>
<linearGradient id="paint12_linear_3022_1502" x1="186.958" y1="80.5751" x2="208.244" y2="80.5751" gradientUnits="userSpaceOnUse">
<stop stop-color="#FCC26A"/>
<stop offset="1" stop-color="#D96800"/>
</linearGradient>
<linearGradient id="paint13_linear_3022_1502" x1="252.427" y1="218.67" x2="252.427" y2="67.2836" gradientUnits="userSpaceOnUse">
<stop stop-color="#FCC26A"/>
<stop offset="1" stop-color="#D96800"/>
</linearGradient>
<linearGradient id="paint14_linear_3022_1502" x1="200.953" y1="253.709" x2="202.874" y2="117.353" gradientUnits="userSpaceOnUse">
<stop stop-color="#FCC26A"/>
<stop offset="1" stop-color="#D96800"/>
</linearGradient>
<linearGradient id="paint15_linear_3022_1502" x1="302.263" y1="255.185" x2="304.184" y2="118.829" gradientUnits="userSpaceOnUse">
<stop stop-color="#FCC26A"/>
<stop offset="1" stop-color="#D96800"/>
</linearGradient>
<linearGradient id="paint16_linear_3022_1502" x1="252.427" y1="109.423" x2="252.427" y2="216.045" gradientUnits="userSpaceOnUse">
<stop stop-color="#FAE1C0"/>
<stop offset="1" stop-color="#DEB896"/>
</linearGradient>
<linearGradient id="paint17_linear_3022_1502" x1="252.3" y1="72.1193" x2="252.898" y2="115.57" gradientUnits="userSpaceOnUse">
<stop stop-color="white"/>
<stop offset="1" stop-color="white" stop-opacity="0"/>
</linearGradient>
<linearGradient id="paint18_linear_3022_1502" x1="220.15" y1="130.89" x2="220.15" y2="185.994" gradientUnits="userSpaceOnUse">
<stop stop-color="white"/>
<stop offset="1" stop-color="white" stop-opacity="0"/>
</linearGradient>
<linearGradient id="paint19_linear_3022_1502" x1="286.531" y1="130.89" x2="286.531" y2="185.994" gradientUnits="userSpaceOnUse">
<stop stop-color="white"/>
<stop offset="1" stop-color="white" stop-opacity="0"/>
</linearGradient>
<linearGradient id="paint20_linear_3022_1502" x1="232.272" y1="124.634" x2="231.547" y2="265.68" gradientUnits="userSpaceOnUse">
<stop stop-color="#FCC26A"/>
<stop offset="1" stop-color="#D96800"/>
</linearGradient>
<linearGradient id="paint21_linear_3022_1502" x1="274.572" y1="124.85" x2="273.847" y2="265.905" gradientUnits="userSpaceOnUse">
<stop stop-color="#FCC26A"/>
<stop offset="1" stop-color="#D96800"/>
</linearGradient>
<linearGradient id="paint22_linear_3022_1502" x1="252.301" y1="170.91" x2="251.394" y2="106.091" gradientUnits="userSpaceOnUse">
<stop offset="0.06" stop-color="#FCC26A"/>
<stop offset="0.94" stop-color="#D96800"/>
</linearGradient>
<linearGradient id="paint23_linear_3022_1502" x1="252.373" y1="136.649" x2="252.373" y2="209.779" gradientUnits="userSpaceOnUse">
<stop stop-color="#FCC3BD"/>
<stop offset="1" stop-color="#D94854"/>
</linearGradient>
<linearGradient id="paint24_linear_3022_1502" x1="67.1402" y1="262.618" x2="267.349" y2="287.014" gradientUnits="userSpaceOnUse">
<stop stop-color="#FCC26A"/>
<stop offset="0.12" stop-color="#F8B95F"/>
<stop offset="0.34" stop-color="#EFA244"/>
<stop offset="0.61" stop-color="#E17D19"/>
<stop offset="0.75" stop-color="#D96800"/>
</linearGradient>
<linearGradient id="paint25_linear_3022_1502" x1="336.901" y1="276.877" x2="102.122" y2="276.877" gradientUnits="userSpaceOnUse">
<stop stop-color="white"/>
<stop offset="1" stop-color="white" stop-opacity="0"/>
</linearGradient>
</defs>
</svg>
